# https://github.com/mikedh/trimesh

o adapter_top.STL
v 0.02187408 0.01300000 -0.02921942
v 0.02187408 0.01100000 -0.02921942
v 0.01834653 0.01100000 -0.03155400
v 0.01834653 0.01300000 -0.03155400
v 0.01457256 0.01100000 -0.03346477
v 0.01457256 0.01300000 -0.03346477
v 0.01060286 0.01100000 -0.03492606
v 0.01060286 0.01300000 -0.03492606
v 0.00649075 0.01100000 -0.03591824
v 0.00649075 0.01300000 -0.03591824
v 0.00229146 0.01100000 -0.03642800
v 0.00229146 0.01300000 -0.03642800
v -0.00193860 0.01100000 -0.03644848
v -0.00193860 0.01300000 -0.03644848
v -0.00614263 0.01100000 -0.03597941
v -0.00614263 0.01300000 -0.03597941
v -0.01026415 0.01100000 -0.03502709
v -0.01026415 0.01300000 -0.03502709
v -0.01424781 0.01100000 -0.03360431
v -0.01424781 0.01300000 -0.03360431
v -0.01804011 0.01100000 -0.03173018
v -0.01804011 0.01300000 -0.03173018
v -0.02159010 0.01100000 -0.02942987
v -0.02159010 0.01300000 -0.02942987
v -0.02921942 0.01300000 -0.02187408
v -0.02921942 0.01100000 -0.02187408
v -0.03155400 0.01100000 -0.01834653
v -0.03155400 0.01300000 -0.01834653
v -0.03346477 0.01100000 -0.01457256
v -0.03346477 0.01300000 -0.01457256
v -0.03492606 0.01100000 -0.01060286
v -0.03492606 0.01300000 -0.01060286
v -0.03591824 0.01100000 -0.00649075
v -0.03591824 0.01300000 -0.00649075
v -0.03642800 0.01100000 -0.00229146
v -0.03642800 0.01300000 -0.00229146
v -0.03644848 0.01100000 0.00193860
v -0.03644848 0.01300000 0.00193860
v -0.03597941 0.01100000 0.00614263
v -0.03597941 0.01300000 0.00614263
v -0.03502709 0.01100000 0.01026415
v -0.03502709 0.01300000 0.01026415
v -0.03360431 0.01100000 0.01424781
v -0.03360431 0.01300000 0.01424781
v -0.03173018 0.01100000 0.01804011
v -0.03173018 0.01300000 0.01804011
v -0.02942987 0.01100000 0.02159010
v -0.02942987 0.01300000 0.02159010
v -0.02187408 0.01300000 0.02921942
v -0.02187408 0.01100000 0.02921942
v -0.01834653 0.01100000 0.03155400
v -0.01834653 0.01300000 0.03155400
v -0.01457256 0.01100000 0.03346477
v -0.01457256 0.01300000 0.03346477
v -0.01060286 0.01100000 0.03492606
v -0.01060286 0.01300000 0.03492606
v -0.00649075 0.01100000 0.03591824
v -0.00649075 0.01300000 0.03591824
v -0.00229146 0.01100000 0.03642800
v -0.00229146 0.01300000 0.03642800
v 0.00193860 0.01100000 0.03644848
v 0.00193860 0.01300000 0.03644848
v 0.00614263 0.01100000 0.03597941
v 0.00614263 0.01300000 0.03597941
v 0.01026415 0.01100000 0.03502709
v 0.01026415 0.01300000 0.03502709
v 0.01424781 0.01100000 0.03360431
v 0.01424781 0.01300000 0.03360431
v 0.01804011 0.01100000 0.03173018
v 0.01804011 0.01300000 0.03173018
v 0.02159010 0.01100000 0.02942987
v 0.02159010 0.01300000 0.02942987
v -0.00000000 0.01300000 0.02830000
v 0.00000000 0.01300000 -0.02170000
v -0.00330000 0.01300000 0.02500000
v -0.00324987 0.01300000 0.02442696
v -0.00212120 0.01300000 -0.02247205
v -0.00252795 0.01300000 -0.02287880
v -0.02159789 0.01300000 -0.02396555
v -0.00285788 0.01300000 -0.02335000
v -0.00310099 0.01300000 -0.02387133
v 0.00112867 0.01300000 0.02810099
v 0.00057304 0.01300000 0.02824986
v 0.02175013 0.01300000 -0.00057304
v 0.02189902 0.01300000 -0.00112867
v 0.02396555 0.01300000 -0.02159789
v 0.02214212 0.01300000 -0.00165000
v 0.02247205 0.01300000 -0.00212120
v -0.00310099 0.01300000 0.02387133
v -0.00285788 0.01300000 0.02335000
v -0.00252795 0.01300000 0.02287880
v -0.00057304 0.01300000 -0.02175013
v -0.00112867 0.01300000 -0.02189902
v -0.00165000 0.01300000 -0.02214212
v 0.00212120 0.01300000 0.02247205
v 0.00252795 0.01300000 0.02287880
v 0.02287880 0.01300000 -0.00252795
v 0.02335000 0.01300000 -0.00285788
v 0.02387133 0.01300000 -0.00310099
v 0.03642800 0.01300000 0.00229146
v 0.03644848 0.01300000 -0.00193860
v 0.02830000 0.01300000 -0.00000000
v -0.00212120 0.01300000 0.02247205
v -0.00165000 0.01300000 0.02214212
v -0.00112867 0.01300000 0.02189902
v 0.02387133 0.01300000 0.00310099
v 0.00057304 0.01300000 0.02175013
v 0.02159789 0.01300000 0.02396555
v 0.00112867 0.01300000 0.02189902
v 0.00165000 0.01300000 0.02214212
v 0.00165000 0.01300000 -0.02214212
v 0.00112867 0.01300000 -0.02189902
v -0.00000000 0.01300000 0.02170000
v -0.00324987 0.01300000 -0.02442696
v -0.00330000 0.01300000 -0.02500000
v -0.00324987 0.01300000 -0.02557304
v -0.00310099 0.01300000 -0.02612867
v -0.00285788 0.01300000 -0.02665000
v -0.02810099 0.01300000 0.00112867
v -0.00057304 0.01300000 0.02824986
v -0.00112867 0.01300000 0.02810099
v -0.00165000 0.01300000 0.02785788
v -0.00212120 0.01300000 0.02752795
v -0.00252795 0.01300000 0.02712120
v 0.00285788 0.01300000 0.02335000
v 0.00310099 0.01300000 0.02387133
v 0.00324987 0.01300000 0.02442696
v 0.00212120 0.01300000 0.02752795
v 0.00165000 0.01300000 0.02785788
v 0.03597941 0.01300000 -0.00614263
v 0.03502709 0.01300000 -0.01026415
v 0.02752795 0.01300000 -0.00212120
v 0.02824986 0.01300000 0.00057304
v 0.02810099 0.01300000 0.00112867
v 0.03591824 0.01300000 0.00649075
v 0.02785788 0.01300000 0.00165000
v 0.03492606 0.01300000 0.01060286
v 0.00057304 0.01300000 -0.02175013
v -0.00057304 0.01300000 0.02175013
v 0.00165000 0.01300000 -0.02785788
v 0.00112867 0.01300000 -0.02810099
v 0.02072313 0.01300000 -0.02723246
v 0.00057304 0.01300000 -0.02824986
v -0.02824986 0.01300000 -0.00057304
v -0.02810099 0.01300000 -0.00112867
v -0.02723246 0.01300000 -0.02072313
v -0.02785788 0.01300000 -0.00165000
v -0.02752795 0.01300000 -0.00212120
v -0.02752795 0.01300000 0.00212120
v -0.02785788 0.01300000 0.00165000
v 0.02335000 0.01300000 0.00285788
v 0.02287880 0.01300000 0.00252795
v 0.02247205 0.01300000 0.00212120
v 0.02214212 0.01300000 0.00165000
v 0.02189902 0.01300000 0.00112867
v -0.00252795 0.01300000 -0.02712120
v -0.00212120 0.01300000 -0.02752795
v -0.00165000 0.01300000 -0.02785788
v -0.00112867 0.01300000 -0.02810099
v -0.02712120 0.01300000 -0.00252795
v -0.02665000 0.01300000 -0.00285788
v -0.02612867 0.01300000 -0.00310099
v -0.02830000 0.01300000 0.00000000
v 0.00330000 0.01300000 0.02500000
v 0.00324987 0.01300000 0.02557304
v 0.00310099 0.01300000 0.02612867
v 0.00285788 0.01300000 0.02665000
v 0.00252795 0.01300000 0.02712120
v 0.02785788 0.01300000 -0.00165000
v 0.02810099 0.01300000 -0.00112867
v 0.02824986 0.01300000 -0.00057304
v 0.00212120 0.01300000 -0.02752795
v 0.00252795 0.01300000 -0.02712120
v 0.00285788 0.01300000 -0.02665000
v -0.02170000 0.01300000 0.00000000
v -0.02175013 0.01300000 0.00057304
v -0.02189902 0.01300000 0.00112867
v -0.02824986 0.01300000 0.00057304
v 0.02442696 0.01300000 -0.00324987
v 0.02500000 0.01300000 -0.00330000
v 0.02942987 0.01300000 -0.02159010
v 0.02557304 0.01300000 -0.00324987
v 0.03173018 0.01300000 -0.01804011
v 0.02612867 0.01300000 -0.00310099
v 0.03360431 0.01300000 -0.01424781
v 0.02665000 0.01300000 -0.00285788
v 0.02712120 0.01300000 -0.00252795
v 0.02752795 0.01300000 0.00212120
v 0.02712120 0.01300000 0.00252795
v 0.03346477 0.01300000 0.01457256
v 0.02665000 0.01300000 0.00285788
v 0.03155400 0.01300000 0.01834653
v 0.02612867 0.01300000 0.00310099
v 0.02921942 0.01300000 0.02187408
v 0.02557304 0.01300000 0.00324987
v 0.02723246 0.01300000 0.02072313
v 0.02500000 0.01300000 0.00330000
v 0.02442696 0.01300000 0.00324987
v 0.02170000 0.01300000 -0.00000000
v 0.00252795 0.01300000 -0.02287880
v -0.02214212 0.01300000 -0.00165000
v -0.02189902 0.01300000 -0.00112867
v -0.02175013 0.01300000 -0.00057304
v 0.00310099 0.01300000 -0.02612867
v 0.00324987 0.01300000 -0.02557304
v 0.00330000 0.01300000 -0.02500000
v 0.02175013 0.01300000 0.00057304
v 0.00212120 0.01300000 -0.02247205
v 0.00000000 0.01300000 -0.02830000
v -0.02335000 0.01300000 0.00285788
v -0.02387133 0.01300000 0.00310099
v -0.02072313 0.01300000 0.02723246
v -0.02442696 0.01300000 0.00324987
v -0.02396555 0.01300000 0.02159789
v -0.02500000 0.01300000 0.00330000
v -0.02557304 0.01300000 0.00324987
v -0.02612867 0.01300000 0.00310099
v -0.02665000 0.01300000 0.00285788
v -0.02712120 0.01300000 0.00252795
v 0.00324987 0.01300000 -0.02442696
v 0.00310099 0.01300000 -0.02387133
v 0.00285788 0.01300000 -0.02335000
v -0.02557304 0.01300000 -0.00324987
v -0.02500000 0.01300000 -0.00330000
v -0.02442696 0.01300000 -0.00324987
v -0.02387133 0.01300000 -0.00310099
v -0.02335000 0.01300000 -0.00285788
v -0.02287880 0.01300000 -0.00252795
v -0.02247205 0.01300000 -0.00212120
v -0.00057304 0.01300000 -0.02824986
v -0.02214212 0.01300000 0.00165000
v -0.02247205 0.01300000 0.00212120
v -0.00324987 0.01300000 0.02557304
v -0.02287880 0.01300000 0.00252795
v -0.00310099 0.01300000 0.02612867
v -0.00285788 0.01300000 0.02665000
v -0.02665884 0.00000000 -0.03042465
v -0.02722320 0.00000000 -0.03047402
v -0.01250000 0.00000000 -0.03047361
v -0.00355140 0.00000000 0.02076760
v -0.00423240 0.00000000 0.02144860
v -0.01250000 0.00000000 0.02172410
v -0.03943647 0.00000000 -0.02368047
v -0.03679261 0.00000000 -0.02760986
v -0.03049951 0.00000000 -0.03047361
v -0.03441254 0.00000000 -0.03052503
v -0.03375872 0.00000000 -0.03124657
v -0.03049951 0.00000000 -0.03049951
v -0.03036700 0.00000000 -0.03455207
v -0.01842088 0.00000000 -0.04215058
v -0.01398928 0.00000000 -0.04382123
v -0.01250000 0.00000000 -0.03049951
v 0.03443492 0.00000000 -0.03049977
v 0.02172410 0.00000000 -0.03047361
v 0.02172410 0.00000000 -0.03049951
v 0.02778838 0.00000000 -0.03042382
v 0.02722402 0.00000000 -0.03047320
v 0.01622659 0.00000000 0.04304297
v 0.01171487 0.00000000 0.04448327
v 0.01250000 0.00000000 0.02172410
v 0.02688966 0.00000000 0.00519180
v 0.02776250 0.00000000 0.00478479
v 0.04416689 0.00000000 0.01285634
v 0.02855140 0.00000000 0.00423240
v 0.04477016 0.00000000 -0.01056564
v 0.02923240 0.00000000 -0.00355140
v 0.02855140 0.00000000 -0.00423240
v 0.02500000 0.00000000 -0.00552500
v 0.02404059 0.00000000 -0.00544106
v 0.02172410 0.00000000 -0.01250000
v 0.02311034 0.00000000 -0.00519180
v 0.02223750 0.00000000 -0.00478479
v 0.02076760 0.00000000 0.00355140
v 0.02144860 0.00000000 0.00423240
v 0.02172410 0.00000000 0.01250000
v 0.02223750 0.00000000 0.00478479
v 0.02311034 0.00000000 0.00519180
v 0.02404059 0.00000000 0.00544106
v 0.02500000 0.00000000 0.00552500
v 0.02595941 0.00000000 0.00544106
v 0.02923240 0.00000000 0.00355140
v 0.02978479 0.00000000 0.00276250
v 0.04525471 0.00000000 0.00824691
v 0.03019180 0.00000000 0.00188966
v 0.04586280 0.00000000 0.00355007
v 0.03044106 0.00000000 0.00095941
v 0.04598475 0.00000000 -0.00118440
v 0.03052500 0.00000000 -0.00000000
v 0.04561924 0.00000000 -0.00590632
v 0.03044106 0.00000000 -0.00095941
v 0.03019180 0.00000000 -0.00188966
v 0.02978479 0.00000000 -0.00276250
v 0.02776250 0.00000000 -0.00478479
v 0.02688966 0.00000000 -0.00519180
v 0.02595941 0.00000000 -0.00544106
v 0.01250000 0.00000000 0.01250000
v 0.01980820 0.00000000 0.00188966
v 0.02021521 0.00000000 0.00276250
v 0.02144860 0.00000000 -0.00423240
v 0.02076760 0.00000000 -0.00355140
v 0.01250000 0.00000000 -0.01250000
v 0.02021521 0.00000000 -0.00276250
v 0.01980820 0.00000000 -0.00188966
v 0.01955894 0.00000000 -0.00095941
v 0.01947500 0.00000000 -0.00000000
v 0.01955894 0.00000000 0.00095941
v -0.00478479 0.00000000 0.02223750
v -0.00519180 0.00000000 0.02311034
v -0.00544106 0.00000000 0.02404059
v -0.00478479 0.00000000 0.02776250
v -0.00423240 0.00000000 0.02855140
v -0.01171487 0.00000000 0.04448327
v 0.00355140 0.00000000 0.02923240
v 0.00423240 0.00000000 0.02855140
v 0.00552500 0.00000000 0.02500000
v 0.00544106 0.00000000 0.02404059
v 0.00519180 0.00000000 0.02311034
v -0.00552500 0.00000000 0.02500000
v -0.00544106 0.00000000 0.02595941
v -0.00519180 0.00000000 0.02688966
v 0.00478479 0.00000000 0.02776250
v 0.00519180 0.00000000 0.02688966
v 0.00544106 0.00000000 0.02595941
v -0.00355140 0.00000000 0.02923240
v -0.00276250 0.00000000 0.02978479
v -0.00707897 0.00000000 0.04545204
v -0.00188966 0.00000000 0.03019180
v -0.00236802 0.00000000 0.04593901
v -0.00095941 0.00000000 0.03044106
v 0.00000000 0.00000000 0.04600000
v 0.00000000 0.00000000 0.03052500
v 0.00236802 0.00000000 0.04593901
v 0.00095941 0.00000000 0.03044106
v 0.00707897 0.00000000 0.04545204
v 0.00188966 0.00000000 0.03019180
v 0.00276250 0.00000000 0.02978479
v 0.02778756 0.00000000 0.02402340
v 0.02722320 0.00000000 0.02397402
v 0.02172410 0.00000000 0.02172410
v 0.02665884 0.00000000 0.02402340
v 0.04060323 0.00000000 0.02161893
v 0.02884820 0.00000000 0.02440944
v 0.02833476 0.00000000 0.02417002
v 0.02416920 0.00000000 0.02833559
v 0.02440862 0.00000000 0.02884902
v 0.02056631 0.00000000 0.04114640
v 0.02473355 0.00000000 0.02931308
v 0.02513414 0.00000000 0.02971367
v 0.02611163 0.00000000 0.02417002
v 0.02559820 0.00000000 0.02440944
v 0.02513414 0.00000000 0.02473438
v 0.03027720 0.00000000 0.02833559
v 0.03042382 0.00000000 0.02778838
v 0.03532250 0.00000000 0.02946729
v 0.02473355 0.00000000 0.02513496
v 0.02440862 0.00000000 0.02559902
v 0.02416920 0.00000000 0.02611246
v 0.02402257 0.00000000 0.02665967
v 0.02397320 0.00000000 0.02722402
v 0.02402257 0.00000000 0.02778838
v 0.02559820 0.00000000 0.03003861
v 0.02611163 0.00000000 0.03027802
v 0.02468802 0.00000000 0.03881367
v 0.02665884 0.00000000 0.03042465
v 0.02854804 0.00000000 0.03606951
v 0.02722320 0.00000000 0.03047402
v 0.02884820 0.00000000 0.03003861
v 0.03210543 0.00000000 0.03294300
v 0.02833476 0.00000000 0.03027802
v 0.02778756 0.00000000 0.03042465
v 0.03816514 0.00000000 0.02567921
v 0.03003778 0.00000000 0.02559902
v 0.02971284 0.00000000 0.02513496
v 0.02931226 0.00000000 0.02473438
v 0.02931226 0.00000000 0.02971367
v 0.02971284 0.00000000 0.02931308
v 0.03003778 0.00000000 0.02884902
v 0.03047320 0.00000000 0.02722402
v 0.03042382 0.00000000 0.02665967
v 0.03027720 0.00000000 0.02611246
v 0.04261090 0.00000000 0.01732948
v 0.02665967 0.00000000 -0.03042382
v 0.02611246 0.00000000 -0.03027720
v 0.02931308 0.00000000 -0.02971284
v 0.02971367 0.00000000 -0.02931226
v 0.03003861 0.00000000 -0.02884820
v 0.02559902 0.00000000 -0.03003778
v 0.02513496 0.00000000 -0.02971284
v 0.02473438 0.00000000 -0.02931226
v 0.02884902 0.00000000 -0.03003778
v 0.02833559 0.00000000 -0.03027720
v 0.02440944 0.00000000 -0.02884820
v 0.02417002 0.00000000 -0.02833476
v 0.02402340 0.00000000 -0.02778756
v 0.02417002 0.00000000 -0.02611163
v 0.02402340 0.00000000 -0.02665884
v 0.02397402 0.00000000 -0.02722320
v 0.02440944 0.00000000 -0.02559820
v 0.02473438 0.00000000 -0.02513414
v 0.02513496 0.00000000 -0.02473355
v 0.02559902 0.00000000 -0.02440862
v 0.02611246 0.00000000 -0.02416920
v 0.02665967 0.00000000 -0.02402257
v 0.02833559 0.00000000 -0.02416920
v 0.02778838 0.00000000 -0.02402257
v 0.02722402 0.00000000 -0.02397320
v 0.03679261 0.00000000 -0.02760986
v 0.03943647 0.00000000 -0.02368047
v 0.03042465 0.00000000 -0.02665884
v 0.02884902 0.00000000 -0.02440862
v 0.02931308 0.00000000 -0.02473355
v 0.04344650 0.00000000 -0.01511295
v 0.02971367 0.00000000 -0.02513414
v 0.04166230 0.00000000 -0.01950006
v 0.03003861 0.00000000 -0.02559820
v 0.03027802 0.00000000 -0.02611163
v 0.03047402 0.00000000 -0.02722320
v 0.03042465 0.00000000 -0.02778756
v 0.03027802 0.00000000 -0.02833476
v 0.01842088 0.00000000 -0.04215058
v 0.02265721 0.00000000 -0.04003312
v 0.02665337 0.00000000 -0.03749130
v 0.03036700 0.00000000 -0.03455207
v 0.03375872 0.00000000 -0.03124657
v 0.00940940 0.00000000 -0.04502736
v 0.01398928 0.00000000 -0.04382123
v 0.01250000 0.00000000 -0.03049951
v -0.00940940 0.00000000 -0.04502736
v -0.00472977 0.00000000 -0.04575620
v 0.00000000 0.00000000 -0.03052500
v 0.00000000 0.00000000 -0.04600000
v 0.00472977 0.00000000 -0.04575620
v -0.02265721 0.00000000 -0.04003312
v -0.03047361 0.00000000 -0.03049951
v -0.02665337 0.00000000 -0.03749130
v -0.03049951 0.00000000 -0.01250000
v -0.04344650 0.00000000 -0.01511295
v -0.04166230 0.00000000 -0.01950006
v -0.03052500 0.00000000 0.00000000
v -0.04561924 0.00000000 -0.00590632
v -0.04477016 0.00000000 -0.01056564
v -0.04416689 0.00000000 0.01285634
v -0.04525471 0.00000000 0.00824691
v -0.04586280 0.00000000 0.00355007
v -0.04598475 0.00000000 -0.00118440
v -0.03532250 0.00000000 0.02946729
v -0.03816514 0.00000000 0.02567921
v -0.03049951 0.00000000 0.02172410
v -0.04060323 0.00000000 0.02161893
v -0.04261090 0.00000000 0.01732948
v -0.03047361 0.00000000 0.02172410
v -0.03047402 0.00000000 0.02722320
v -0.02971367 0.00000000 0.02513414
v -0.03003861 0.00000000 0.02559820
v -0.03027802 0.00000000 0.02611163
v -0.03042465 0.00000000 0.02665884
v -0.03210543 0.00000000 0.03294300
v -0.03042465 0.00000000 0.02778756
v -0.02473438 0.00000000 0.02513414
v -0.02513496 0.00000000 0.02473355
v -0.02559902 0.00000000 0.02440862
v -0.02611246 0.00000000 0.02416920
v -0.02665967 0.00000000 0.02402257
v -0.02722402 0.00000000 0.02397320
v -0.02778838 0.00000000 0.02402257
v -0.02833559 0.00000000 0.02416920
v -0.03027802 0.00000000 0.02833476
v -0.03003861 0.00000000 0.02884820
v -0.02971367 0.00000000 0.02931226
v -0.02884902 0.00000000 0.02440862
v -0.02931308 0.00000000 0.02473355
v -0.02397402 0.00000000 0.02722320
v -0.02402340 0.00000000 0.02665884
v -0.02931308 0.00000000 0.02971284
v -0.02884902 0.00000000 0.03003778
v -0.02854804 0.00000000 0.03606951
v -0.02833559 0.00000000 0.03027720
v -0.02056631 0.00000000 0.04114640
v -0.02559902 0.00000000 0.03003778
v -0.01622659 0.00000000 0.04304297
v -0.02513496 0.00000000 0.02971284
v -0.02473438 0.00000000 0.02931226
v -0.02417002 0.00000000 0.02611163
v -0.02440944 0.00000000 0.02559820
v -0.02778838 0.00000000 0.03042382
v -0.02722402 0.00000000 0.03047320
v -0.02468802 0.00000000 0.03881367
v -0.02665967 0.00000000 0.03042382
v -0.02611246 0.00000000 0.03027720
v -0.02440944 0.00000000 0.02884820
v -0.02417002 0.00000000 0.02833476
v -0.02402340 0.00000000 0.02778756
v 0.00276250 0.00000000 0.02021521
v 0.00188966 0.00000000 0.01980820
v 0.00478479 0.00000000 0.02223750
v 0.00423240 0.00000000 0.02144860
v 0.00355140 0.00000000 0.02076760
v 0.00095941 0.00000000 0.01955894
v -0.00000000 0.00000000 0.01947500
v -0.01250000 0.00000000 0.01250000
v -0.00095941 0.00000000 0.01955894
v -0.00188966 0.00000000 0.01980820
v -0.00276250 0.00000000 0.02021521
v 0.00095941 0.00000000 -0.03044106
v 0.01250000 0.00000000 -0.03047361
v -0.00188966 0.00000000 -0.03019180
v -0.00276250 0.00000000 -0.02978479
v -0.00355140 0.00000000 -0.02923240
v -0.00095941 0.00000000 -0.01955894
v 0.00000000 0.00000000 -0.01947500
v 0.00095941 0.00000000 -0.01955894
v 0.00188966 0.00000000 -0.01980820
v -0.00423240 0.00000000 -0.02855140
v -0.00478479 0.00000000 -0.02776250
v -0.00519180 0.00000000 -0.02688966
v -0.00519180 0.00000000 -0.02311034
v -0.00478479 0.00000000 -0.02223750
v -0.01250000 0.00000000 -0.01250000
v -0.00423240 0.00000000 -0.02144860
v 0.00355140 0.00000000 -0.02923240
v 0.00276250 0.00000000 -0.02978479
v 0.00188966 0.00000000 -0.03019180
v -0.00544106 0.00000000 -0.02595941
v -0.00552500 0.00000000 -0.02500000
v -0.00544106 0.00000000 -0.02404059
v -0.00355140 0.00000000 -0.02076760
v -0.00276250 0.00000000 -0.02021521
v -0.00188966 0.00000000 -0.01980820
v 0.00423240 0.00000000 -0.02144860
v 0.00478479 0.00000000 -0.02223750
v 0.00544106 0.00000000 -0.02595941
v 0.00519180 0.00000000 -0.02688966
v 0.00276250 0.00000000 -0.02021521
v 0.00355140 0.00000000 -0.02076760
v 0.00478479 0.00000000 -0.02776250
v 0.00423240 0.00000000 -0.02855140
v 0.00519180 0.00000000 -0.02311034
v 0.00544106 0.00000000 -0.02404059
v 0.00552500 0.00000000 -0.02500000
v -0.00095941 0.00000000 -0.03044106
v -0.02978479 0.00000000 0.00276250
v -0.02923240 0.00000000 0.00355140
v -0.03047361 0.00000000 0.01250000
v -0.01980820 0.00000000 -0.00188966
v -0.02021521 0.00000000 -0.00276250
v -0.02076760 0.00000000 -0.00355140
v -0.02144860 0.00000000 -0.00423240
v -0.02223750 0.00000000 -0.00478479
v -0.03047361 0.00000000 -0.01250000
v -0.02595941 0.00000000 -0.00544106
v -0.02688966 0.00000000 -0.00519180
v -0.02776250 0.00000000 -0.00478479
v -0.02855140 0.00000000 -0.00423240
v -0.02923240 0.00000000 -0.00355140
v -0.02311034 0.00000000 0.00519180
v -0.02223750 0.00000000 0.00478479
v -0.02144860 0.00000000 0.00423240
v -0.02076760 0.00000000 0.00355140
v -0.02021521 0.00000000 0.00276250
v -0.01980820 0.00000000 0.00188966
v -0.01955894 0.00000000 0.00095941
v -0.01947500 0.00000000 0.00000000
v -0.01955894 0.00000000 -0.00095941
v -0.02311034 0.00000000 -0.00519180
v -0.02404059 0.00000000 -0.00544106
v -0.02500000 0.00000000 -0.00552500
v -0.02978479 0.00000000 -0.00276250
v -0.03019180 0.00000000 -0.00188966
v -0.03044106 0.00000000 -0.00095941
v -0.02855140 0.00000000 0.00423240
v -0.02776250 0.00000000 0.00478479
v -0.02688966 0.00000000 0.00519180
v -0.02595941 0.00000000 0.00544106
v -0.02500000 0.00000000 0.00552500
v -0.02404059 0.00000000 0.00544106
v -0.03049951 0.00000000 0.01250000
v -0.03044106 0.00000000 0.00095941
v -0.03019180 0.00000000 0.00188966
v -0.02473355 0.00000000 -0.02931308
v -0.02513414 0.00000000 -0.02971367
v -0.02778756 0.00000000 -0.03042465
v -0.03047361 0.00000000 -0.03047361
v -0.02833476 0.00000000 -0.03027802
v -0.02884820 0.00000000 -0.03003861
v -0.02931226 0.00000000 -0.02971367
v -0.02971284 0.00000000 -0.02931308
v -0.02559820 0.00000000 -0.03003861
v -0.02611163 0.00000000 -0.03027802
v -0.03003778 0.00000000 -0.02884902
v -0.03027720 0.00000000 -0.02833559
v -0.03042382 0.00000000 -0.02778838
v -0.03042382 0.00000000 -0.02665967
v -0.03027720 0.00000000 -0.02611246
v -0.03047320 0.00000000 -0.02722402
v -0.03003778 0.00000000 -0.02559902
v -0.02971284 0.00000000 -0.02513496
v -0.02931226 0.00000000 -0.02473438
v -0.02884820 0.00000000 -0.02440944
v -0.02833476 0.00000000 -0.02417002
v -0.02778756 0.00000000 -0.02402340
v -0.02397320 0.00000000 -0.02722402
v -0.02402257 0.00000000 -0.02778838
v -0.02611163 0.00000000 -0.02417002
v -0.02665884 0.00000000 -0.02402340
v -0.02722320 0.00000000 -0.02397402
v -0.02559820 0.00000000 -0.02440944
v -0.02513414 0.00000000 -0.02473438
v -0.02473355 0.00000000 -0.02513496
v -0.02416920 0.00000000 -0.02833559
v -0.02440862 0.00000000 -0.02884902
v -0.02440862 0.00000000 -0.02559902
v -0.02416920 0.00000000 -0.02611246
v -0.02402257 0.00000000 -0.02665967
v -0.03679261 0.01100000 -0.02760986
v -0.03943647 0.01100000 -0.02368047
v -0.04166230 0.01100000 -0.01950006
v -0.04344650 0.01100000 -0.01511295
v -0.04477016 0.01100000 -0.01056564
v -0.04561924 0.01100000 -0.00590632
v -0.04598475 0.01100000 -0.00118440
v -0.04586280 0.01100000 0.00355007
v -0.04525471 0.01100000 0.00824691
v -0.04416689 0.01100000 0.01285634
v -0.04261090 0.01100000 0.01732948
v -0.04060323 0.01100000 0.02161893
v -0.03816514 0.01100000 0.02567921
v -0.03532250 0.01100000 0.02946729
v -0.03210543 0.01100000 0.03294300
v -0.02854804 0.01100000 0.03606951
v -0.02468802 0.01100000 0.03881367
v -0.02056631 0.01100000 0.04114640
v -0.01622659 0.01100000 0.04304297
v -0.01171487 0.01100000 0.04448327
v -0.00707897 0.01100000 0.04545204
v -0.00236802 0.01100000 0.04593901
v 0.00000000 0.01100000 0.04600000
v 0.00236802 0.01100000 0.04593901
v 0.00707897 0.01100000 0.04545204
v 0.01171487 0.01100000 0.04448327
v 0.01622659 0.01100000 0.04304297
v 0.02056631 0.01100000 0.04114640
v 0.02468802 0.01100000 0.03881367
v 0.02854804 0.01100000 0.03606951
v 0.03210543 0.01100000 0.03294300
v 0.03532250 0.01100000 0.02946729
v 0.03816514 0.01100000 0.02567921
v 0.04060323 0.01100000 0.02161893
v 0.04261090 0.01100000 0.01732948
v 0.04416689 0.01100000 0.01285634
v 0.04525471 0.01100000 0.00824691
v 0.04586280 0.01100000 0.00355007
v 0.04598475 0.01100000 -0.00118440
v 0.04561924 0.01100000 -0.00590632
v 0.04477016 0.01100000 -0.01056564
v 0.04344650 0.01100000 -0.01511295
v 0.04166230 0.01100000 -0.01950006
v 0.03943647 0.01100000 -0.02368047
v 0.03679261 0.01100000 -0.02760986
v 0.03375872 0.01100000 -0.03124657
v 0.03036700 0.01100000 -0.03455207
v 0.02665337 0.01100000 -0.03749130
v 0.02265721 0.01100000 -0.04003312
v 0.01842088 0.01100000 -0.04215058
v 0.01398928 0.01100000 -0.04382123
v 0.00940940 0.01100000 -0.04502736
v 0.00472977 0.01100000 -0.04575620
v 0.00000000 0.01100000 -0.04600000
v -0.00472977 0.01100000 -0.04575620
v -0.00940940 0.01100000 -0.04502736
v -0.01398928 0.01100000 -0.04382123
v -0.01842088 0.01100000 -0.04215058
v -0.02265721 0.01100000 -0.04003312
v -0.02665337 0.01100000 -0.03749130
v -0.03036700 0.01100000 -0.03455207
v -0.03375872 0.01100000 -0.03124657
v -0.02398160 0.01100000 0.03285777
v 0.02398160 0.01100000 -0.03285777
v 0.03046645 0.01100000 -0.02158862
v 0.02942987 0.01100000 -0.02159010
v 0.03173018 0.01100000 -0.01804011
v 0.02158862 0.01100000 0.03046645
v -0.03048249 0.01100000 0.03284851
v -0.03372492 0.01100000 0.02721393
v 0.03360431 0.01100000 -0.01424781
v 0.03502709 0.01100000 -0.01026415
v 0.03597941 0.01100000 -0.00614263
v 0.02721393 0.01100000 0.03372492
v 0.03284851 0.01100000 0.03048249
v 0.03285777 0.01100000 0.02398160
v 0.03155400 0.01100000 0.01834653
v 0.02921942 0.01100000 0.02187408
v -0.03046645 0.01100000 0.02158862
v 0.03372492 0.01100000 -0.02721393
v -0.03285777 0.01100000 -0.02398160
v -0.02721393 0.01100000 -0.03372492
v -0.03284851 0.01100000 -0.03048249
v 0.03048249 0.01100000 -0.03284851
v 0.03644848 0.01100000 -0.00193860
v 0.03642800 0.01100000 0.00229146
v 0.03591824 0.01100000 0.00649075
v 0.03492606 0.01100000 0.01060286
v 0.03346477 0.01100000 0.01457256
v -0.02158862 0.01100000 -0.03046645
v -0.00000000 0.00600000 0.02170000
v 0.00057304 0.00600000 0.02175013
v 0.00112867 0.00600000 0.02189902
v 0.00165000 0.00600000 0.02214212
v 0.00212120 0.00600000 0.02247205
v 0.00252795 0.00600000 0.02287880
v 0.00285788 0.00600000 0.02335000
v 0.00310099 0.00600000 0.02387133
v 0.00324987 0.00600000 0.02442696
v 0.00330000 0.00600000 0.02500000
v 0.00324987 0.00600000 0.02557304
v 0.00310099 0.00600000 0.02612867
v 0.00285788 0.00600000 0.02665000
v 0.00252795 0.00600000 0.02712120
v 0.00212120 0.00600000 0.02752795
v 0.00165000 0.00600000 0.02785788
v 0.00112867 0.00600000 0.02810099
v 0.00057304 0.00600000 0.02824986
v -0.00000000 0.00600000 0.02830000
v -0.00057304 0.00600000 0.02824986
v -0.00112867 0.00600000 0.02810099
v -0.00165000 0.00600000 0.02785788
v -0.00212120 0.00600000 0.02752795
v -0.00252795 0.00600000 0.02712120
v -0.00285788 0.00600000 0.02665000
v -0.00310099 0.00600000 0.02612867
v -0.00324987 0.00600000 0.02557304
v -0.00330000 0.00600000 0.02500000
v -0.00324987 0.00600000 0.02442696
v -0.00310099 0.00600000 0.02387133
v -0.00285788 0.00600000 0.02335000
v -0.00252795 0.00600000 0.02287880
v -0.00212120 0.00600000 0.02247205
v -0.00165000 0.00600000 0.02214212
v -0.00112867 0.00600000 0.02189902
v -0.00057304 0.00600000 0.02175013
v -0.00541644 0.00600000 0.02595506
v -0.00550000 0.00600000 0.02500000
v -0.00541644 0.00600000 0.02404494
v -0.00516831 0.00600000 0.02311889
v -0.00476314 0.00600000 0.02225000
v -0.00421324 0.00600000 0.02146467
v -0.00353533 0.00600000 0.02078675
v -0.00275000 0.00600000 0.02023686
v -0.00188111 0.00600000 0.01983169
v -0.00095506 0.00600000 0.01958356
v -0.00000000 0.00600000 0.01950000
v 0.00095506 0.00600000 0.01958356
v 0.00188111 0.00600000 0.01983169
v 0.00275000 0.00600000 0.02023686
v 0.00353533 0.00600000 0.02078675
v 0.00421324 0.00600000 0.02146467
v 0.00476314 0.00600000 0.02225000
v 0.00516831 0.00600000 0.02311889
v 0.00541644 0.00600000 0.02404494
v 0.00550000 0.00600000 0.02500000
v 0.00541644 0.00600000 0.02595506
v 0.00516831 0.00600000 0.02688111
v 0.00476314 0.00600000 0.02775000
v 0.00421324 0.00600000 0.02853533
v 0.00353533 0.00600000 0.02921324
v 0.00275000 0.00600000 0.02976314
v 0.00188111 0.00600000 0.03016831
v 0.00095506 0.00600000 0.03041644
v -0.00000000 0.00600000 0.03050000
v -0.00095506 0.00600000 0.03041644
v -0.00188111 0.00600000 0.03016831
v -0.00275000 0.00600000 0.02976314
v -0.00353533 0.00600000 0.02921324
v -0.00421324 0.00600000 0.02853533
v -0.00476314 0.00600000 0.02775000
v -0.00516831 0.00600000 0.02688111
v -0.00000000 0.00002500 0.01950000
v 0.00095506 0.00002500 0.01958356
v 0.00188111 0.00002500 0.01983169
v 0.00275000 0.00002500 0.02023686
v 0.00353533 0.00002500 0.02078675
v 0.00421324 0.00002500 0.02146467
v 0.00476314 0.00002500 0.02225000
v 0.00516831 0.00002500 0.02311889
v 0.00541644 0.00002500 0.02404494
v 0.00550000 0.00002500 0.02500000
v 0.00541644 0.00002500 0.02595506
v 0.00516831 0.00002500 0.02688111
v 0.00476314 0.00002500 0.02775000
v 0.00421324 0.00002500 0.02853533
v 0.00353533 0.00002500 0.02921324
v 0.00275000 0.00002500 0.02976314
v 0.00188111 0.00002500 0.03016831
v 0.00095506 0.00002500 0.03041644
v -0.00000000 0.00002500 0.03050000
v -0.00095506 0.00002500 0.03041644
v -0.00188111 0.00002500 0.03016831
v -0.00275000 0.00002500 0.02976314
v -0.00353533 0.00002500 0.02921324
v -0.00421324 0.00002500 0.02853533
v -0.00476314 0.00002500 0.02775000
v -0.00516831 0.00002500 0.02688111
v -0.00541644 0.00002500 0.02595506
v -0.00550000 0.00002500 0.02500000
v -0.00541644 0.00002500 0.02404494
v -0.00516831 0.00002500 0.02311889
v -0.00476314 0.00002500 0.02225000
v -0.00421324 0.00002500 0.02146467
v -0.00353533 0.00002500 0.02078675
v -0.00275000 0.00002500 0.02023686
v -0.00188111 0.00002500 0.01983169
v -0.00095506 0.00002500 0.01958356
v 0.02500000 0.00600000 -0.00330000
v 0.02557304 0.00600000 -0.00324987
v 0.02612867 0.00600000 -0.00310099
v 0.02665000 0.00600000 -0.00285788
v 0.02712120 0.00600000 -0.00252795
v 0.02752795 0.00600000 -0.00212120
v 0.02785788 0.00600000 -0.00165000
v 0.02810099 0.00600000 -0.00112867
v 0.02824986 0.00600000 -0.00057304
v 0.02830000 0.00600000 -0.00000000
v 0.02824986 0.00600000 0.00057304
v 0.02810099 0.00600000 0.00112867
v 0.02785788 0.00600000 0.00165000
v 0.02752795 0.00600000 0.00212120
v 0.02712120 0.00600000 0.00252795
v 0.02665000 0.00600000 0.00285788
v 0.02612867 0.00600000 0.00310099
v 0.02557304 0.00600000 0.00324987
v 0.02500000 0.00600000 0.00330000
v 0.02442696 0.00600000 0.00324987
v 0.02387133 0.00600000 0.00310099
v 0.02335000 0.00600000 0.00285788
v 0.02287880 0.00600000 0.00252795
v 0.02247205 0.00600000 0.00212120
v 0.02214212 0.00600000 0.00165000
v 0.02189902 0.00600000 0.00112867
v 0.02175013 0.00600000 0.00057304
v 0.02170000 0.00600000 -0.00000000
v 0.02175013 0.00600000 -0.00057304
v 0.02189902 0.00600000 -0.00112867
v 0.02214212 0.00600000 -0.00165000
v 0.02247205 0.00600000 -0.00212120
v 0.02287880 0.00600000 -0.00252795
v 0.02335000 0.00600000 -0.00285788
v 0.02387133 0.00600000 -0.00310099
v 0.02442696 0.00600000 -0.00324987
v 0.02775000 0.00600000 0.00476314
v 0.02688111 0.00600000 0.00516831
v 0.02595506 0.00600000 0.00541644
v 0.02500000 0.00600000 0.00550000
v 0.02404494 0.00600000 0.00541644
v 0.02311889 0.00600000 0.00516831
v 0.02225000 0.00600000 0.00476314
v 0.02146467 0.00600000 0.00421324
v 0.02078675 0.00600000 0.00353533
v 0.02023686 0.00600000 0.00275000
v 0.01983169 0.00600000 0.00188111
v 0.01958356 0.00600000 0.00095506
v 0.01950000 0.00600000 -0.00000000
v 0.01958356 0.00600000 -0.00095506
v 0.01983169 0.00600000 -0.00188111
v 0.02023686 0.00600000 -0.00275000
v 0.02078675 0.00600000 -0.00353533
v 0.02146467 0.00600000 -0.00421324
v 0.02225000 0.00600000 -0.00476314
v 0.02311889 0.00600000 -0.00516831
v 0.02404494 0.00600000 -0.00541644
v 0.02500000 0.00600000 -0.00550000
v 0.02595506 0.00600000 -0.00541644
v 0.02688111 0.00600000 -0.00516831
v 0.02775000 0.00600000 -0.00476314
v 0.02853533 0.00600000 -0.00421324
v 0.02921324 0.00600000 -0.00353533
v 0.02976314 0.00600000 -0.00275000
v 0.03016831 0.00600000 -0.00188111
v 0.03041644 0.00600000 -0.00095506
v 0.03050000 0.00600000 -0.00000000
v 0.03041644 0.00600000 0.00095506
v 0.03016831 0.00600000 0.00188111
v 0.02976314 0.00600000 0.00275000
v 0.02921324 0.00600000 0.00353533
v 0.02853533 0.00600000 0.00421324
v 0.02500000 0.00002500 -0.00550000
v 0.02595506 0.00002500 -0.00541644
v 0.02688111 0.00002500 -0.00516831
v 0.02775000 0.00002500 -0.00476314
v 0.02853533 0.00002500 -0.00421324
v 0.02921324 0.00002500 -0.00353533
v 0.02976314 0.00002500 -0.00275000
v 0.03016831 0.00002500 -0.00188111
v 0.03041644 0.00002500 -0.00095506
v 0.03050000 0.00002500 -0.00000000
v 0.03041644 0.00002500 0.00095506
v 0.03016831 0.00002500 0.00188111
v 0.02976314 0.00002500 0.00275000
v 0.02921324 0.00002500 0.00353533
v 0.02853533 0.00002500 0.00421324
v 0.02775000 0.00002500 0.00476314
v 0.02688111 0.00002500 0.00516831
v 0.02595506 0.00002500 0.00541644
v 0.02500000 0.00002500 0.00550000
v 0.02404494 0.00002500 0.00541644
v 0.02311889 0.00002500 0.00516831
v 0.02225000 0.00002500 0.00476314
v 0.02146467 0.00002500 0.00421324
v 0.02078675 0.00002500 0.00353533
v 0.02023686 0.00002500 0.00275000
v 0.01983169 0.00002500 0.00188111
v 0.01958356 0.00002500 0.00095506
v 0.01950000 0.00002500 -0.00000000
v 0.01958356 0.00002500 -0.00095506
v 0.01983169 0.00002500 -0.00188111
v 0.02023686 0.00002500 -0.00275000
v 0.02078675 0.00002500 -0.00353533
v 0.02146467 0.00002500 -0.00421324
v 0.02225000 0.00002500 -0.00476314
v 0.02311889 0.00002500 -0.00516831
v 0.02404494 0.00002500 -0.00541644
v 0.00000000 0.00600000 -0.02830000
v 0.00057304 0.00600000 -0.02824986
v 0.00112867 0.00600000 -0.02810099
v 0.00165000 0.00600000 -0.02785788
v 0.00212120 0.00600000 -0.02752795
v 0.00252795 0.00600000 -0.02712120
v 0.00285788 0.00600000 -0.02665000
v 0.00310099 0.00600000 -0.02612867
v 0.00324987 0.00600000 -0.02557304
v 0.00330000 0.00600000 -0.02500000
v 0.00324987 0.00600000 -0.02442696
v 0.00310099 0.00600000 -0.02387133
v 0.00285788 0.00600000 -0.02335000
v 0.00252795 0.00600000 -0.02287880
v 0.00212120 0.00600000 -0.02247205
v 0.00165000 0.00600000 -0.02214212
v 0.00112867 0.00600000 -0.02189902
v 0.00057304 0.00600000 -0.02175013
v 0.00000000 0.00600000 -0.02170000
v -0.00057304 0.00600000 -0.02175013
v -0.00112867 0.00600000 -0.02189902
v -0.00165000 0.00600000 -0.02214212
v -0.00212120 0.00600000 -0.02247205
v -0.00252795 0.00600000 -0.02287880
v -0.00285788 0.00600000 -0.02335000
v -0.00310099 0.00600000 -0.02387133
v -0.00324987 0.00600000 -0.02442696
v -0.00330000 0.00600000 -0.02500000
v -0.00324987 0.00600000 -0.02557304
v -0.00310099 0.00600000 -0.02612867
v -0.00285788 0.00600000 -0.02665000
v -0.00252795 0.00600000 -0.02712120
v -0.00212120 0.00600000 -0.02752795
v -0.00165000 0.00600000 -0.02785788
v -0.00112867 0.00600000 -0.02810099
v -0.00057304 0.00600000 -0.02824986
v -0.00541644 0.00600000 -0.02404494
v -0.00550000 0.00600000 -0.02500000
v -0.00541644 0.00600000 -0.02595506
v -0.00516831 0.00600000 -0.02688111
v -0.00476314 0.00600000 -0.02775000
v -0.00421324 0.00600000 -0.02853533
v -0.00353533 0.00600000 -0.02921324
v -0.00275000 0.00600000 -0.02976314
v -0.00188111 0.00600000 -0.03016831
v -0.00095506 0.00600000 -0.03041644
v 0.00000000 0.00600000 -0.03050000
v 0.00095506 0.00600000 -0.03041644
v 0.00188111 0.00600000 -0.03016831
v 0.00275000 0.00600000 -0.02976314
v 0.00353533 0.00600000 -0.02921324
v 0.00421324 0.00600000 -0.02853533
v 0.00476314 0.00600000 -0.02775000
v 0.00516831 0.00600000 -0.02688111
v 0.00541644 0.00600000 -0.02595506
v 0.00550000 0.00600000 -0.02500000
v 0.00541644 0.00600000 -0.02404494
v 0.00516831 0.00600000 -0.02311889
v 0.00476314 0.00600000 -0.02225000
v 0.00421324 0.00600000 -0.02146467
v 0.00353533 0.00600000 -0.02078675
v 0.00275000 0.00600000 -0.02023686
v 0.00188111 0.00600000 -0.01983169
v 0.00095506 0.00600000 -0.01958356
v 0.00000000 0.00600000 -0.01950000
v -0.00095506 0.00600000 -0.01958356
v -0.00188111 0.00600000 -0.01983169
v -0.00275000 0.00600000 -0.02023686
v -0.00353533 0.00600000 -0.02078675
v -0.00421324 0.00600000 -0.02146467
v -0.00476314 0.00600000 -0.02225000
v -0.00516831 0.00600000 -0.02311889
v 0.00000000 0.00002500 -0.03050000
v 0.00095506 0.00002500 -0.03041644
v 0.00188111 0.00002500 -0.03016831
v 0.00275000 0.00002500 -0.02976314
v 0.00353533 0.00002500 -0.02921324
v 0.00421324 0.00002500 -0.02853533
v 0.00476314 0.00002500 -0.02775000
v 0.00516831 0.00002500 -0.02688111
v 0.00541644 0.00002500 -0.02595506
v 0.00550000 0.00002500 -0.02500000
v 0.00541644 0.00002500 -0.02404494
v 0.00516831 0.00002500 -0.02311889
v 0.00476314 0.00002500 -0.02225000
v 0.00421324 0.00002500 -0.02146467
v 0.00353533 0.00002500 -0.02078675
v 0.00275000 0.00002500 -0.02023686
v 0.00188111 0.00002500 -0.01983169
v 0.00095506 0.00002500 -0.01958356
v 0.00000000 0.00002500 -0.01950000
v -0.00095506 0.00002500 -0.01958356
v -0.00188111 0.00002500 -0.01983169
v -0.00275000 0.00002500 -0.02023686
v -0.00353533 0.00002500 -0.02078675
v -0.00421324 0.00002500 -0.02146467
v -0.00476314 0.00002500 -0.02225000
v -0.00516831 0.00002500 -0.02311889
v -0.00541644 0.00002500 -0.02404494
v -0.00550000 0.00002500 -0.02500000
v -0.00541644 0.00002500 -0.02595506
v -0.00516831 0.00002500 -0.02688111
v -0.00476314 0.00002500 -0.02775000
v -0.00421324 0.00002500 -0.02853533
v -0.00353533 0.00002500 -0.02921324
v -0.00275000 0.00002500 -0.02976314
v -0.00188111 0.00002500 -0.03016831
v -0.00095506 0.00002500 -0.03041644
v -0.02500000 0.00600000 -0.00330000
v -0.02442696 0.00600000 -0.00324987
v -0.02387133 0.00600000 -0.00310099
v -0.02335000 0.00600000 -0.00285788
v -0.02287880 0.00600000 -0.00252795
v -0.02247205 0.00600000 -0.00212120
v -0.02214212 0.00600000 -0.00165000
v -0.02189902 0.00600000 -0.00112867
v -0.02175013 0.00600000 -0.00057304
v -0.02170000 0.00600000 0.00000000
v -0.02175013 0.00600000 0.00057304
v -0.02189902 0.00600000 0.00112867
v -0.02214212 0.00600000 0.00165000
v -0.02247205 0.00600000 0.00212120
v -0.02287880 0.00600000 0.00252795
v -0.02335000 0.00600000 0.00285788
v -0.02387133 0.00600000 0.00310099
v -0.02442696 0.00600000 0.00324987
v -0.02500000 0.00600000 0.00330000
v -0.02557304 0.00600000 0.00324987
v -0.02612867 0.00600000 0.00310099
v -0.02665000 0.00600000 0.00285788
v -0.02712120 0.00600000 0.00252795
v -0.02752795 0.00600000 0.00212120
v -0.02785788 0.00600000 0.00165000
v -0.02810099 0.00600000 0.00112867
v -0.02824986 0.00600000 0.00057304
v -0.02830000 0.00600000 0.00000000
v -0.02824986 0.00600000 -0.00057304
v -0.02810099 0.00600000 -0.00112867
v -0.02785788 0.00600000 -0.00165000
v -0.02752795 0.00600000 -0.00212120
v -0.02712120 0.00600000 -0.00252795
v -0.02665000 0.00600000 -0.00285788
v -0.02612867 0.00600000 -0.00310099
v -0.02557304 0.00600000 -0.00324987
v -0.02225000 0.00600000 0.00476314
v -0.02311889 0.00600000 0.00516831
v -0.02404494 0.00600000 0.00541644
v -0.02500000 0.00600000 0.00550000
v -0.02595506 0.00600000 0.00541644
v -0.02688111 0.00600000 0.00516831
v -0.02775000 0.00600000 0.00476314
v -0.02853533 0.00600000 0.00421324
v -0.02921324 0.00600000 0.00353533
v -0.02976314 0.00600000 0.00275000
v -0.03016831 0.00600000 0.00188111
v -0.03041644 0.00600000 0.00095506
v -0.03050000 0.00600000 0.00000000
v -0.03041644 0.00600000 -0.00095506
v -0.03016831 0.00600000 -0.00188111
v -0.02976314 0.00600000 -0.00275000
v -0.02921324 0.00600000 -0.00353533
v -0.02853533 0.00600000 -0.00421324
v -0.02775000 0.00600000 -0.00476314
v -0.02688111 0.00600000 -0.00516831
v -0.02595506 0.00600000 -0.00541644
v -0.02500000 0.00600000 -0.00550000
v -0.02404494 0.00600000 -0.00541644
v -0.02311889 0.00600000 -0.00516831
v -0.02225000 0.00600000 -0.00476314
v -0.02146467 0.00600000 -0.00421324
v -0.02078675 0.00600000 -0.00353533
v -0.02023686 0.00600000 -0.00275000
v -0.01983169 0.00600000 -0.00188111
v -0.01958356 0.00600000 -0.00095506
v -0.01950000 0.00600000 0.00000000
v -0.01958356 0.00600000 0.00095506
v -0.01983169 0.00600000 0.00188111
v -0.02023686 0.00600000 0.00275000
v -0.02078675 0.00600000 0.00353533
v -0.02146467 0.00600000 0.00421324
v -0.02500000 0.00002500 -0.00550000
v -0.02404494 0.00002500 -0.00541644
v -0.02311889 0.00002500 -0.00516831
v -0.02225000 0.00002500 -0.00476314
v -0.02146467 0.00002500 -0.00421324
v -0.02078675 0.00002500 -0.00353533
v -0.02023686 0.00002500 -0.00275000
v -0.01983169 0.00002500 -0.00188111
v -0.01958356 0.00002500 -0.00095506
v -0.01950000 0.00002500 0.00000000
v -0.01958356 0.00002500 0.00095506
v -0.01983169 0.00002500 0.00188111
v -0.02023686 0.00002500 0.00275000
v -0.02078675 0.00002500 0.00353533
v -0.02146467 0.00002500 0.00421324
v -0.02225000 0.00002500 0.00476314
v -0.02311889 0.00002500 0.00516831
v -0.02404494 0.00002500 0.00541644
v -0.02500000 0.00002500 0.00550000
v -0.02595506 0.00002500 0.00541644
v -0.02688111 0.00002500 0.00516831
v -0.02775000 0.00002500 0.00476314
v -0.02853533 0.00002500 0.00421324
v -0.02921324 0.00002500 0.00353533
v -0.02976314 0.00002500 0.00275000
v -0.03016831 0.00002500 0.00188111
v -0.03041644 0.00002500 0.00095506
v -0.03050000 0.00002500 0.00000000
v -0.03041644 0.00002500 -0.00095506
v -0.03016831 0.00002500 -0.00188111
v -0.02976314 0.00002500 -0.00275000
v -0.02921324 0.00002500 -0.00353533
v -0.02853533 0.00002500 -0.00421324
v -0.02775000 0.00002500 -0.00476314
v -0.02688111 0.00002500 -0.00516831
v -0.02595506 0.00002500 -0.00541644
v 0.03372492 0.00600000 -0.02721393
v 0.03046645 0.00600000 -0.02158862
v 0.02396555 0.00600000 -0.02159789
v 0.02072313 0.00600000 -0.02723246
v 0.02398160 0.00600000 -0.03285777
v 0.03048249 0.00600000 -0.03284851
v 0.02778838 0.00600000 -0.02402257
v 0.02722402 0.00600000 -0.02397320
v 0.02611246 0.00600000 -0.02416920
v 0.02559902 0.00600000 -0.02440862
v 0.02665967 0.00600000 -0.02402257
v 0.02440944 0.00600000 -0.02559820
v 0.02417002 0.00600000 -0.02611163
v 0.02402340 0.00600000 -0.02665884
v 0.02397402 0.00600000 -0.02722320
v 0.02402340 0.00600000 -0.02778756
v 0.02778838 0.00600000 -0.03042382
v 0.02833559 0.00600000 -0.03027720
v 0.02884902 0.00600000 -0.03003778
v 0.02931308 0.00600000 -0.02971284
v 0.02513496 0.00600000 -0.02473355
v 0.02473438 0.00600000 -0.02513414
v 0.02417002 0.00600000 -0.02833476
v 0.02440944 0.00600000 -0.02884820
v 0.02473438 0.00600000 -0.02931226
v 0.02513496 0.00600000 -0.02971284
v 0.02722402 0.00600000 -0.03047320
v 0.02665967 0.00600000 -0.03042382
v 0.02559902 0.00600000 -0.03003778
v 0.02611246 0.00600000 -0.03027720
v 0.03042465 0.00600000 -0.02665884
v 0.03047402 0.00600000 -0.02722320
v 0.03042465 0.00600000 -0.02778756
v 0.02931308 0.00600000 -0.02473355
v 0.02884902 0.00600000 -0.02440862
v 0.02833559 0.00600000 -0.02416920
v 0.02971367 0.00600000 -0.02931226
v 0.03003861 0.00600000 -0.02884820
v 0.03027802 0.00600000 -0.02833476
v 0.03027802 0.00600000 -0.02611163
v 0.03003861 0.00600000 -0.02559820
v 0.02971367 0.00600000 -0.02513414
v 0.02721393 0.00600000 0.03372492
v 0.02158862 0.00600000 0.03046645
v 0.02159789 0.00600000 0.02396555
v 0.02723246 0.00600000 0.02072313
v 0.03285777 0.00600000 0.02398160
v 0.03284851 0.00600000 0.03048249
v 0.02440862 0.00600000 0.02559902
v 0.02473355 0.00600000 0.02513496
v 0.02778756 0.00600000 0.03042465
v 0.02722320 0.00600000 0.03047402
v 0.02665884 0.00600000 0.03042465
v 0.02416920 0.00600000 0.02611246
v 0.02513414 0.00600000 0.02971367
v 0.02559820 0.00600000 0.03003861
v 0.02611163 0.00600000 0.03027802
v 0.02473355 0.00600000 0.02931308
v 0.02440862 0.00600000 0.02884902
v 0.02416920 0.00600000 0.02833559
v 0.02402257 0.00600000 0.02778838
v 0.02397320 0.00600000 0.02722402
v 0.02402257 0.00600000 0.02665967
v 0.02778756 0.00600000 0.02402340
v 0.02722320 0.00600000 0.02397402
v 0.02665884 0.00600000 0.02402340
v 0.03042382 0.00600000 0.02778838
v 0.03027720 0.00600000 0.02833559
v 0.03003778 0.00600000 0.02884902
v 0.02971284 0.00600000 0.02931308
v 0.02833476 0.00600000 0.02417002
v 0.02884820 0.00600000 0.02440944
v 0.02931226 0.00600000 0.02473438
v 0.02971284 0.00600000 0.02513496
v 0.03047320 0.00600000 0.02722402
v 0.03042382 0.00600000 0.02665967
v 0.02931226 0.00600000 0.02971367
v 0.02884820 0.00600000 0.03003861
v 0.02833476 0.00600000 0.03027802
v 0.02513414 0.00600000 0.02473438
v 0.02559820 0.00600000 0.02440944
v 0.02611163 0.00600000 0.02417002
v 0.03003778 0.00600000 0.02559902
v 0.03027720 0.00600000 0.02611246
v -0.03372492 0.00600000 0.02721393
v -0.03046645 0.00600000 0.02158862
v -0.02396555 0.00600000 0.02159789
v -0.02072313 0.00600000 0.02723246
v -0.02398160 0.00600000 0.03285777
v -0.03048249 0.00600000 0.03284851
v -0.02665967 0.00600000 0.03042382
v -0.02722402 0.00600000 0.03047320
v -0.02833559 0.00600000 0.03027720
v -0.02884902 0.00600000 0.03003778
v -0.02778838 0.00600000 0.03042382
v -0.03003861 0.00600000 0.02884820
v -0.03027802 0.00600000 0.02833476
v -0.03042465 0.00600000 0.02778756
v -0.03047402 0.00600000 0.02722320
v -0.03042465 0.00600000 0.02665884
v -0.02665967 0.00600000 0.02402257
v -0.02611246 0.00600000 0.02416920
v -0.02559902 0.00600000 0.02440862
v -0.02513496 0.00600000 0.02473355
v -0.02931308 0.00600000 0.02971284
v -0.02971367 0.00600000 0.02931226
v -0.03027802 0.00600000 0.02611163
v -0.03003861 0.00600000 0.02559820
v -0.02971367 0.00600000 0.02513414
v -0.02931308 0.00600000 0.02473355
v -0.02722402 0.00600000 0.02397320
v -0.02778838 0.00600000 0.02402257
v -0.02884902 0.00600000 0.02440862
v -0.02833559 0.00600000 0.02416920
v -0.02402340 0.00600000 0.02778756
v -0.02397402 0.00600000 0.02722320
v -0.02402340 0.00600000 0.02665884
v -0.02513496 0.00600000 0.02971284
v -0.02559902 0.00600000 0.03003778
v -0.02611246 0.00600000 0.03027720
v -0.02473438 0.00600000 0.02513414
v -0.02440944 0.00600000 0.02559820
v -0.02417002 0.00600000 0.02611163
v -0.02417002 0.00600000 0.02833476
v -0.02440944 0.00600000 0.02884820
v -0.02473438 0.00600000 0.02931226
v -0.02721393 0.00600000 -0.03372492
v -0.02158862 0.00600000 -0.03046645
v -0.02159789 0.00600000 -0.02396555
v -0.02723246 0.00600000 -0.02072313
v -0.03285777 0.00600000 -0.02398160
v -0.03284851 0.00600000 -0.03048249
v -0.03003778 0.00600000 -0.02884902
v -0.02971284 0.00600000 -0.02931308
v -0.02665884 0.00600000 -0.02402340
v -0.02722320 0.00600000 -0.02397402
v -0.02778756 0.00600000 -0.02402340
v -0.02971284 0.00600000 -0.02513496
v -0.03003778 0.00600000 -0.02559902
v -0.03027720 0.00600000 -0.02611246
v -0.03027720 0.00600000 -0.02833559
v -0.02665884 0.00600000 -0.03042465
v -0.02722320 0.00600000 -0.03047402
v -0.02778756 0.00600000 -0.03042465
v -0.03042382 0.00600000 -0.02665967
v -0.03047320 0.00600000 -0.02722402
v -0.03042382 0.00600000 -0.02778838
v -0.02513414 0.00600000 -0.02971367
v -0.02559820 0.00600000 -0.03003861
v -0.02611163 0.00600000 -0.03027802
v -0.02473355 0.00600000 -0.02931308
v -0.02440862 0.00600000 -0.02884902
v -0.02416920 0.00600000 -0.02833559
v -0.02833476 0.00600000 -0.02417002
v -0.02884820 0.00600000 -0.02440944
v -0.02931226 0.00600000 -0.02473438
v -0.02402257 0.00600000 -0.02665967
v -0.02397320 0.00600000 -0.02722402
v -0.02402257 0.00600000 -0.02778838
v -0.02931226 0.00600000 -0.02971367
v -0.02884820 0.00600000 -0.03003861
v -0.02833476 0.00600000 -0.03027802
v -0.02416920 0.00600000 -0.02611246
v -0.02440862 0.00600000 -0.02559902
v -0.02473355 0.00600000 -0.02513496
v -0.02513414 0.00600000 -0.02473438
v -0.02559820 0.00600000 -0.02440944
v -0.02611163 0.00600000 -0.02417002
f 1 2 3
f 1 3 4
f 4 3 5
f 4 5 6
f 6 5 7
f 6 7 8
f 8 7 9
f 8 9 10
f 10 9 11
f 10 11 12
f 12 11 13
f 12 13 14
f 14 13 15
f 14 15 16
f 16 15 17
f 16 17 18
f 18 17 19
f 18 19 20
f 20 19 21
f 20 21 22
f 22 21 23
f 22 23 24
f 25 26 27
f 25 27 28
f 28 27 29
f 28 29 30
f 30 29 31
f 30 31 32
f 32 31 33
f 32 33 34
f 34 33 35
f 34 35 36
f 36 35 37
f 36 37 38
f 38 37 39
f 38 39 40
f 40 39 41
f 40 41 42
f 42 41 43
f 42 43 44
f 44 43 45
f 44 45 46
f 46 45 47
f 46 47 48
f 49 50 51
f 49 51 52
f 52 51 53
f 52 53 54
f 54 53 55
f 54 55 56
f 56 55 57
f 56 57 58
f 58 57 59
f 58 59 60
f 60 59 61
f 60 61 62
f 62 61 63
f 62 63 64
f 64 63 65
f 64 65 66
f 66 65 67
f 66 67 68
f 68 67 69
f 68 69 70
f 70 69 71
f 70 71 72
f 60 62 73
f 74 75 76
f 77 78 79
f 79 78 80
f 79 80 81
f 64 82 62
f 62 82 83
f 62 83 73
f 84 85 86
f 86 85 87
f 86 87 88
f 76 89 74
f 74 89 90
f 74 90 91
f 92 93 79
f 79 93 94
f 79 94 77
f 72 95 96
f 88 97 86
f 86 97 98
f 86 98 99
f 100 101 102
f 91 103 74
f 74 103 104
f 74 104 105
f 106 107 108
f 108 107 109
f 108 109 72
f 72 109 110
f 72 110 95
f 111 112 113
f 81 114 79
f 79 114 115
f 79 115 24
f 24 115 116
f 24 116 22
f 22 116 117
f 22 117 20
f 20 117 118
f 20 118 18
f 38 40 119
f 73 120 60
f 60 120 121
f 60 121 58
f 58 121 122
f 58 122 56
f 56 122 123
f 56 123 54
f 54 123 124
f 54 124 52
f 96 125 72
f 72 125 126
f 72 126 127
f 66 128 64
f 64 128 129
f 64 129 82
f 130 131 132
f 102 133 100
f 100 133 134
f 100 134 135
f 135 134 136
f 135 136 137
f 112 138 113
f 113 138 74
f 113 74 139
f 139 74 105
f 140 86 141
f 141 86 142
f 141 142 143
f 144 145 146
f 146 145 147
f 146 147 148
f 42 149 40
f 40 149 150
f 40 150 119
f 106 151 107
f 107 151 152
f 107 152 113
f 113 152 153
f 113 153 111
f 111 153 154
f 111 154 155
f 118 156 18
f 18 156 157
f 18 157 16
f 157 158 16
f 16 158 159
f 16 159 14
f 148 160 146
f 146 160 161
f 146 161 162
f 144 146 163
f 163 146 25
f 163 25 28
f 28 30 163
f 163 30 32
f 163 32 34
f 127 164 72
f 72 164 165
f 72 165 70
f 70 165 166
f 70 166 68
f 68 166 167
f 68 167 66
f 66 167 168
f 66 168 128
f 132 169 130
f 130 169 170
f 130 170 101
f 101 170 171
f 101 171 102
f 140 172 86
f 86 172 173
f 86 173 174
f 74 175 75
f 75 175 176
f 75 176 177
f 119 178 38
f 38 178 163
f 38 163 36
f 36 163 34
f 99 179 86
f 86 179 180
f 86 180 181
f 181 180 182
f 181 182 183
f 183 182 184
f 183 184 185
f 185 184 186
f 185 186 131
f 131 186 187
f 131 187 132
f 136 188 137
f 137 188 189
f 137 189 190
f 190 189 191
f 190 191 192
f 192 191 193
f 192 193 194
f 194 193 195
f 194 195 196
f 196 195 197
f 196 197 108
f 108 197 198
f 108 198 106
f 199 84 200
f 201 202 74
f 74 202 203
f 74 203 175
f 174 204 86
f 86 204 205
f 86 205 206
f 155 207 111
f 111 207 199
f 111 199 208
f 208 199 200
f 143 142 209
f 209 142 1
f 209 1 4
f 210 211 212
f 212 211 213
f 212 213 214
f 214 213 215
f 214 215 48
f 48 215 216
f 48 216 46
f 46 216 217
f 46 217 44
f 44 217 218
f 44 218 42
f 42 218 219
f 42 219 149
f 206 220 86
f 86 220 221
f 86 221 84
f 84 221 222
f 84 222 200
f 4 6 209
f 209 6 8
f 209 8 10
f 162 223 146
f 146 223 224
f 146 224 79
f 224 225 79
f 79 225 226
f 79 226 92
f 226 227 92
f 92 227 228
f 92 228 74
f 74 228 229
f 74 229 201
f 159 230 14
f 14 230 209
f 14 209 12
f 12 209 10
f 177 231 75
f 75 231 232
f 75 232 233
f 233 232 234
f 233 234 235
f 235 234 210
f 235 210 236
f 236 210 212
f 236 212 124
f 124 212 49
f 124 49 52
f 237 238 239
f 240 241 242
f 243 244 245
f 246 247 248
f 248 247 249
f 250 251 252
f 253 254 255
f 256 257 253
f 258 259 260
f 261 262 263
f 263 262 264
f 265 266 267
f 268 269 270
f 270 269 271
f 270 271 272
f 273 274 275
f 275 274 276
f 275 276 277
f 277 278 275
f 275 278 279
f 275 279 280
f 264 281 263
f 263 281 282
f 263 282 283
f 283 282 284
f 283 284 285
f 285 284 286
f 285 286 287
f 287 286 288
f 287 288 289
f 288 290 289
f 289 290 291
f 289 291 265
f 265 291 292
f 265 292 266
f 267 293 265
f 265 293 294
f 265 294 270
f 270 294 295
f 270 295 268
f 296 297 298
f 299 300 301
f 301 300 302
f 301 302 303
f 303 304 301
f 301 304 305
f 301 305 296
f 296 305 306
f 296 306 297
f 241 307 242
f 242 307 308
f 242 308 309
f 310 311 312
f 313 314 259
f 315 316 260
f 260 316 317
f 309 318 242
f 242 318 319
f 242 319 312
f 312 319 320
f 312 320 310
f 314 321 259
f 259 321 322
f 259 322 260
f 260 322 323
f 260 323 315
f 311 324 312
f 312 324 325
f 312 325 326
f 326 325 327
f 326 327 328
f 328 327 329
f 328 329 330
f 330 329 331
f 330 331 332
f 332 331 333
f 332 333 334
f 334 333 335
f 334 335 259
f 259 335 336
f 259 336 313
f 337 338 339
f 339 338 340
f 341 342 343
f 344 345 346
f 346 345 347
f 346 347 348
f 340 349 339
f 339 349 350
f 339 350 351
f 352 353 354
f 351 355 339
f 339 355 356
f 339 356 357
f 357 358 339
f 339 358 359
f 339 359 346
f 346 359 360
f 346 360 344
f 348 361 346
f 346 361 362
f 346 362 363
f 363 362 364
f 363 364 365
f 365 364 366
f 367 368 369
f 369 368 365
f 369 365 370
f 370 365 366
f 354 353 371
f 372 373 341
f 341 373 374
f 341 374 342
f 367 375 368
f 368 375 376
f 368 376 354
f 354 376 377
f 354 377 352
f 353 378 371
f 371 378 379
f 371 379 341
f 341 379 380
f 341 380 372
f 343 337 341
f 341 337 339
f 341 339 381
f 381 339 275
f 381 275 263
f 263 275 280
f 263 280 261
f 253 257 254
f 254 257 382
f 254 382 383
f 384 253 385
f 385 253 386
f 383 387 254
f 254 387 388
f 254 388 389
f 384 390 253
f 253 390 391
f 253 391 256
f 389 392 254
f 254 392 393
f 254 393 394
f 395 270 396
f 396 270 254
f 396 254 397
f 397 254 394
f 395 398 270
f 270 398 399
f 270 399 400
f 400 401 270
f 270 401 402
f 270 402 403
f 404 265 405
f 405 265 270
f 405 270 406
f 406 270 403
f 407 408 409
f 404 410 265
f 265 410 411
f 265 411 412
f 412 411 413
f 412 413 414
f 414 413 415
f 414 415 408
f 408 415 416
f 408 416 409
f 409 417 407
f 407 417 418
f 407 418 253
f 253 418 419
f 253 419 386
f 420 421 255
f 255 421 422
f 422 423 255
f 255 423 424
f 255 424 253
f 425 426 427
f 428 429 430
f 430 429 431
f 430 431 432
f 250 252 433
f 244 246 245
f 245 246 248
f 245 248 434
f 434 248 249
f 434 249 252
f 252 249 435
f 252 435 433
f 436 437 438
f 439 440 436
f 436 440 441
f 436 441 437
f 442 443 439
f 443 444 439
f 439 444 445
f 439 445 440
f 446 447 448
f 448 447 449
f 448 449 450
f 448 451 452
f 451 453 454
f 454 455 451
f 451 455 456
f 451 456 452
f 446 448 457
f 457 448 452
f 457 452 458
f 459 460 242
f 242 460 461
f 461 462 242
f 242 462 463
f 242 463 451
f 463 464 451
f 451 464 465
f 451 465 466
f 458 467 457
f 457 467 468
f 457 468 469
f 466 470 451
f 451 470 471
f 451 471 453
f 472 473 242
f 469 474 457
f 457 474 475
f 457 475 476
f 476 475 477
f 478 479 480
f 480 479 481
f 480 481 312
f 312 481 482
f 473 483 242
f 242 483 484
f 242 484 459
f 477 485 476
f 476 485 486
f 476 486 487
f 487 486 488
f 487 488 478
f 478 488 489
f 478 489 479
f 482 490 312
f 312 490 491
f 312 491 242
f 242 491 492
f 242 492 472
f 493 494 296
f 317 495 260
f 260 495 496
f 260 496 296
f 296 496 497
f 296 497 493
f 498 499 500
f 500 499 501
f 501 502 500
f 500 502 503
f 500 503 240
f 432 425 430
f 430 425 427
f 430 427 504
f 504 427 505
f 506 507 239
f 239 507 508
f 509 510 301
f 301 510 511
f 301 511 512
f 508 513 239
f 239 513 514
f 239 514 515
f 516 517 518
f 518 517 519
f 520 521 505
f 505 521 522
f 505 522 504
f 515 523 239
f 239 523 524
f 239 524 518
f 518 524 525
f 518 525 516
f 519 526 518
f 518 526 527
f 518 527 528
f 301 529 530
f 505 531 532
f 512 533 301
f 301 533 534
f 301 534 529
f 532 535 505
f 505 535 536
f 505 536 520
f 530 537 301
f 301 537 538
f 301 538 505
f 505 538 539
f 505 539 531
f 540 252 430
f 430 252 251
f 430 251 428
f 541 542 543
f 544 545 518
f 545 546 518
f 518 546 547
f 518 547 548
f 549 550 551
f 551 552 549
f 549 552 553
f 549 553 554
f 555 556 500
f 500 556 557
f 557 558 500
f 500 558 559
f 500 559 560
f 560 561 500
f 500 561 562
f 500 562 518
f 518 562 563
f 518 563 544
f 548 564 518
f 518 564 565
f 518 565 549
f 549 565 566
f 549 566 550
f 554 567 549
f 549 567 568
f 549 568 569
f 542 570 543
f 543 570 571
f 543 571 572
f 572 573 543
f 543 573 574
f 543 574 500
f 500 574 575
f 500 575 555
f 442 439 576
f 576 439 577
f 576 577 543
f 543 577 578
f 543 578 541
f 579 580 239
f 238 581 582
f 582 581 583
f 583 584 582
f 582 584 585
f 582 585 586
f 580 587 239
f 239 587 588
f 239 588 237
f 586 589 582
f 582 589 590
f 582 590 591
f 592 593 549
f 592 549 594
f 593 595 549
f 549 595 596
f 549 596 597
f 597 598 549
f 549 598 599
f 549 599 600
f 601 602 239
f 603 518 604
f 604 518 549
f 604 549 605
f 605 549 600
f 603 606 518
f 518 606 607
f 518 607 608
f 602 609 239
f 239 609 610
f 239 610 579
f 608 611 518
f 518 611 612
f 518 612 239
f 239 612 613
f 239 613 601
f 591 594 582
f 582 594 549
f 582 549 436
f 436 549 569
f 436 569 439
f 438 243 436
f 436 243 245
f 436 245 582
f 582 245 434
f 582 434 238
f 238 434 252
f 238 252 239
f 239 252 540
f 239 540 506
f 240 242 500
f 500 242 451
f 500 451 543
f 543 451 448
f 543 448 576
f 576 448 450
f 576 450 442
f 528 509 518
f 518 509 301
f 518 301 500
f 500 301 296
f 500 296 498
f 498 296 494
f 298 273 296
f 296 273 275
f 296 275 260
f 260 275 339
f 260 339 258
f 258 339 346
f 426 420 427
f 427 420 255
f 427 255 505
f 505 255 254
f 505 254 301
f 301 254 270
f 301 270 299
f 299 270 272
f 614 243 615
f 615 243 438
f 615 438 616
f 616 438 437
f 616 437 617
f 617 437 441
f 617 441 618
f 618 441 440
f 618 440 619
f 619 440 445
f 619 445 620
f 620 445 444
f 620 444 621
f 621 444 443
f 621 443 622
f 622 443 442
f 622 442 623
f 623 442 450
f 623 450 624
f 624 450 449
f 624 449 625
f 625 449 447
f 625 447 626
f 626 447 446
f 626 446 627
f 627 446 457
f 627 457 628
f 628 457 476
f 628 476 629
f 629 476 487
f 629 487 630
f 630 487 478
f 630 478 631
f 631 478 480
f 631 480 632
f 632 480 312
f 632 312 633
f 633 312 326
f 633 326 634
f 634 326 328
f 634 328 635
f 635 328 636
f 636 328 330
f 636 330 637
f 330 332 637
f 637 332 334
f 637 334 638
f 638 334 259
f 638 259 639
f 639 259 258
f 639 258 640
f 640 258 346
f 640 346 641
f 641 346 363
f 641 363 642
f 642 363 365
f 642 365 643
f 643 365 368
f 643 368 644
f 644 368 354
f 644 354 645
f 645 354 371
f 645 371 646
f 646 371 341
f 646 341 647
f 647 341 381
f 647 381 648
f 648 381 263
f 648 263 649
f 649 263 283
f 649 283 650
f 650 283 285
f 650 285 651
f 651 285 287
f 651 287 652
f 652 287 289
f 652 289 653
f 653 289 265
f 653 265 654
f 654 265 412
f 654 412 655
f 655 412 414
f 655 414 656
f 656 414 408
f 656 408 657
f 657 408 407
f 657 407 658
f 658 407 253
f 658 253 659
f 253 424 659
f 659 424 423
f 659 423 660
f 660 423 422
f 660 422 661
f 661 422 421
f 661 421 662
f 662 421 420
f 662 420 663
f 663 420 426
f 663 426 664
f 664 426 425
f 664 425 665
f 665 425 432
f 665 432 666
f 666 432 431
f 666 431 667
f 667 431 429
f 667 429 668
f 668 429 428
f 668 428 669
f 669 428 251
f 669 251 670
f 670 251 250
f 670 250 671
f 671 250 433
f 671 433 672
f 672 433 435
f 672 435 673
f 673 435 249
f 673 249 674
f 674 249 247
f 674 247 675
f 675 247 246
f 675 246 614
f 614 246 244
f 614 244 243
f 51 50 676
f 662 663 677
f 678 679 680
f 681 71 69
f 59 57 634
f 682 629 676
f 676 629 630
f 630 631 676
f 676 631 632
f 676 632 51
f 683 627 682
f 682 627 628
f 682 628 629
f 680 684 651
f 651 684 685
f 651 685 686
f 687 644 688
f 688 644 645
f 688 645 689
f 689 645 646
f 689 646 647
f 634 57 633
f 633 57 55
f 633 55 632
f 632 55 53
f 632 53 51
f 653 654 678
f 678 654 655
f 647 648 689
f 689 648 690
f 689 690 691
f 634 635 59
f 59 635 636
f 59 636 61
f 61 636 637
f 61 637 63
f 63 637 638
f 63 638 65
f 65 638 639
f 65 639 67
f 692 47 45
f 680 651 678
f 678 651 652
f 678 652 653
f 655 656 678
f 678 656 657
f 678 657 693
f 639 640 67
f 67 640 641
f 67 641 642
f 620 621 692
f 692 621 622
f 692 622 623
f 623 624 692
f 692 624 625
f 692 625 683
f 683 625 626
f 683 626 627
f 615 616 694
f 694 616 27
f 694 27 26
f 695 674 696
f 696 674 675
f 696 675 694
f 694 675 614
f 694 614 615
f 69 67 681
f 681 67 642
f 681 642 687
f 687 642 643
f 687 643 644
f 45 43 692
f 692 43 619
f 692 619 620
f 43 41 619
f 619 41 39
f 619 39 37
f 657 658 693
f 693 658 659
f 693 659 697
f 697 659 660
f 697 660 677
f 677 660 661
f 677 661 662
f 686 698 651
f 651 698 699
f 651 699 650
f 650 699 700
f 650 700 649
f 649 700 701
f 649 701 648
f 648 701 702
f 648 702 690
f 703 666 667
f 37 35 619
f 619 35 33
f 619 33 618
f 618 33 31
f 618 31 617
f 667 668 703
f 703 668 669
f 703 669 670
f 617 31 616
f 616 31 29
f 616 29 27
f 670 671 703
f 703 671 672
f 703 672 695
f 695 672 673
f 695 673 674
f 23 21 703
f 703 21 19
f 703 19 666
f 666 19 17
f 666 17 15
f 15 13 666
f 666 13 11
f 666 11 665
f 665 11 9
f 665 9 664
f 664 9 7
f 664 7 663
f 2 677 3
f 3 677 663
f 3 663 5
f 5 663 7
f 194 691 690
f 194 690 192
f 192 690 702
f 192 702 190
f 190 702 701
f 190 701 137
f 137 701 700
f 137 700 135
f 135 700 699
f 135 699 100
f 100 699 698
f 100 698 101
f 101 698 686
f 101 686 130
f 130 686 685
f 130 685 131
f 131 685 684
f 131 684 185
f 185 684 680
f 185 680 183
f 183 680 679
f 183 679 181
f 113 704 107
f 107 704 705
f 107 705 109
f 109 705 706
f 109 706 110
f 110 706 707
f 110 707 95
f 95 707 708
f 95 708 96
f 96 708 709
f 96 709 125
f 125 709 710
f 125 710 126
f 126 710 711
f 126 711 127
f 127 711 712
f 127 712 164
f 164 712 713
f 164 713 165
f 165 713 714
f 165 714 166
f 166 714 715
f 166 715 167
f 167 715 716
f 167 716 168
f 168 716 717
f 168 717 128
f 128 717 718
f 128 718 129
f 129 718 719
f 129 719 82
f 82 719 720
f 82 720 83
f 83 720 721
f 83 721 73
f 73 721 722
f 73 722 120
f 120 722 723
f 120 723 121
f 121 723 724
f 121 724 122
f 122 724 725
f 122 725 123
f 123 725 726
f 123 726 124
f 124 726 727
f 124 727 236
f 236 727 728
f 236 728 235
f 235 728 729
f 235 729 233
f 233 729 730
f 233 730 75
f 75 730 731
f 75 731 76
f 76 731 732
f 76 732 89
f 89 732 733
f 89 733 90
f 90 733 734
f 90 734 91
f 91 734 735
f 91 735 103
f 103 735 736
f 103 736 104
f 104 736 737
f 104 737 105
f 105 737 738
f 105 738 139
f 139 738 739
f 139 739 113
f 113 739 704
f 730 740 731
f 731 740 741
f 731 741 732
f 732 741 742
f 732 742 733
f 733 742 743
f 733 743 734
f 734 743 744
f 734 744 735
f 735 744 745
f 735 745 736
f 736 745 746
f 736 746 737
f 737 746 747
f 737 747 738
f 738 747 748
f 738 748 739
f 739 748 749
f 739 749 704
f 704 749 750
f 704 750 705
f 705 750 751
f 705 751 706
f 706 751 752
f 706 752 707
f 707 752 753
f 707 753 708
f 708 753 754
f 708 754 709
f 709 754 755
f 709 755 710
f 710 755 756
f 710 756 711
f 711 756 757
f 711 757 712
f 712 757 758
f 712 758 713
f 713 758 759
f 713 759 714
f 714 759 760
f 714 760 715
f 715 760 761
f 715 761 716
f 716 761 762
f 716 762 717
f 717 762 763
f 717 763 718
f 718 763 764
f 718 764 719
f 719 764 765
f 719 765 720
f 720 765 766
f 720 766 721
f 721 766 767
f 721 767 722
f 722 767 768
f 722 768 723
f 723 768 769
f 723 769 724
f 724 769 770
f 724 770 725
f 725 770 771
f 725 771 726
f 726 771 772
f 726 772 727
f 727 772 773
f 727 773 728
f 728 773 774
f 728 774 729
f 729 774 775
f 729 775 730
f 730 775 740
f 750 776 751
f 751 776 777
f 751 777 752
f 752 777 778
f 752 778 753
f 753 778 779
f 753 779 754
f 754 779 780
f 754 780 755
f 755 780 781
f 755 781 756
f 756 781 782
f 756 782 757
f 757 782 783
f 757 783 758
f 758 783 784
f 758 784 759
f 759 784 785
f 759 785 760
f 760 785 786
f 760 786 761
f 761 786 787
f 761 787 762
f 762 787 788
f 762 788 763
f 763 788 789
f 763 789 764
f 764 789 790
f 764 790 765
f 765 790 791
f 765 791 766
f 766 791 792
f 766 792 767
f 767 792 793
f 767 793 768
f 768 793 794
f 768 794 769
f 769 794 795
f 769 795 770
f 770 795 796
f 770 796 771
f 771 796 797
f 771 797 772
f 772 797 798
f 772 798 773
f 773 798 799
f 773 799 774
f 774 799 800
f 774 800 775
f 775 800 801
f 775 801 740
f 740 801 802
f 740 802 741
f 741 802 803
f 741 803 742
f 742 803 804
f 742 804 743
f 743 804 805
f 743 805 744
f 744 805 806
f 744 806 745
f 745 806 807
f 745 807 746
f 746 807 808
f 746 808 747
f 747 808 809
f 747 809 748
f 748 809 810
f 748 810 749
f 749 810 811
f 749 811 750
f 750 811 776
f 777 498 778
f 778 498 494
f 778 494 779
f 779 494 493
f 779 493 780
f 780 493 497
f 780 497 781
f 781 497 496
f 781 496 782
f 782 496 495
f 782 495 783
f 783 495 317
f 783 317 784
f 784 317 316
f 784 316 785
f 785 316 315
f 785 315 786
f 786 315 323
f 786 323 787
f 787 323 322
f 787 322 788
f 788 322 321
f 788 321 789
f 789 321 314
f 789 314 790
f 790 314 313
f 790 313 791
f 791 313 336
f 791 336 792
f 792 336 335
f 792 335 793
f 793 335 333
f 793 333 794
f 794 333 331
f 794 331 795
f 795 331 329
f 795 329 796
f 796 329 327
f 796 327 797
f 797 327 325
f 797 325 798
f 798 325 324
f 798 324 799
f 799 324 311
f 799 311 800
f 800 311 310
f 800 310 801
f 801 310 320
f 801 320 802
f 802 320 319
f 802 319 803
f 803 319 318
f 803 318 804
f 804 318 309
f 804 309 805
f 805 309 308
f 805 308 806
f 806 308 307
f 806 307 807
f 807 307 241
f 807 241 808
f 808 241 240
f 808 240 809
f 809 240 503
f 809 503 810
f 810 503 502
f 810 502 811
f 811 502 501
f 811 501 776
f 776 501 499
f 776 499 777
f 777 499 498
f 180 812 182
f 182 812 813
f 182 813 184
f 184 813 814
f 184 814 186
f 186 814 815
f 186 815 187
f 187 815 816
f 187 816 132
f 132 816 817
f 132 817 169
f 169 817 818
f 169 818 170
f 170 818 819
f 170 819 171
f 171 819 820
f 171 820 102
f 102 820 821
f 102 821 133
f 133 821 822
f 133 822 134
f 134 822 823
f 134 823 136
f 136 823 824
f 136 824 188
f 188 824 825
f 188 825 189
f 189 825 826
f 189 826 191
f 191 826 827
f 191 827 193
f 193 827 828
f 193 828 195
f 195 828 829
f 195 829 197
f 197 829 830
f 197 830 198
f 198 830 831
f 198 831 106
f 106 831 832
f 106 832 151
f 151 832 833
f 151 833 152
f 152 833 834
f 152 834 153
f 153 834 835
f 153 835 154
f 154 835 836
f 154 836 155
f 155 836 837
f 155 837 207
f 207 837 838
f 207 838 199
f 199 838 839
f 199 839 84
f 84 839 840
f 84 840 85
f 85 840 841
f 85 841 87
f 87 841 842
f 87 842 88
f 88 842 843
f 88 843 97
f 97 843 844
f 97 844 98
f 98 844 845
f 98 845 99
f 99 845 846
f 99 846 179
f 179 846 847
f 179 847 180
f 180 847 812
f 827 848 828
f 828 848 849
f 828 849 829
f 829 849 850
f 829 850 830
f 830 850 851
f 830 851 831
f 831 851 852
f 831 852 832
f 832 852 853
f 832 853 833
f 833 853 854
f 833 854 834
f 834 854 855
f 834 855 835
f 835 855 856
f 835 856 836
f 836 856 857
f 836 857 837
f 837 857 858
f 837 858 838
f 838 858 859
f 838 859 839
f 839 859 860
f 839 860 840
f 840 860 861
f 840 861 841
f 841 861 862
f 841 862 842
f 842 862 863
f 842 863 843
f 843 863 864
f 843 864 844
f 844 864 865
f 844 865 845
f 845 865 866
f 845 866 846
f 846 866 867
f 846 867 847
f 847 867 868
f 847 868 812
f 812 868 869
f 812 869 813
f 813 869 870
f 813 870 814
f 814 870 871
f 814 871 815
f 815 871 872
f 815 872 816
f 816 872 873
f 816 873 817
f 817 873 874
f 817 874 818
f 818 874 875
f 818 875 819
f 819 875 876
f 819 876 820
f 820 876 877
f 820 877 821
f 821 877 878
f 821 878 822
f 822 878 879
f 822 879 823
f 823 879 880
f 823 880 824
f 824 880 881
f 824 881 825
f 825 881 882
f 825 882 826
f 826 882 883
f 826 883 827
f 827 883 848
f 869 884 870
f 870 884 885
f 870 885 871
f 871 885 886
f 871 886 872
f 872 886 887
f 872 887 873
f 873 887 888
f 873 888 874
f 874 888 889
f 874 889 875
f 875 889 890
f 875 890 876
f 876 890 891
f 876 891 877
f 877 891 892
f 877 892 878
f 878 892 893
f 878 893 879
f 879 893 894
f 879 894 880
f 880 894 895
f 880 895 881
f 881 895 896
f 881 896 882
f 882 896 897
f 882 897 883
f 883 897 898
f 883 898 848
f 848 898 899
f 848 899 849
f 849 899 900
f 849 900 850
f 850 900 901
f 850 901 851
f 851 901 902
f 851 902 852
f 852 902 903
f 852 903 853
f 853 903 904
f 853 904 854
f 854 904 905
f 854 905 855
f 855 905 906
f 855 906 856
f 856 906 907
f 856 907 857
f 857 907 908
f 857 908 858
f 858 908 909
f 858 909 859
f 859 909 910
f 859 910 860
f 860 910 911
f 860 911 861
f 861 911 912
f 861 912 862
f 862 912 913
f 862 913 863
f 863 913 914
f 863 914 864
f 864 914 915
f 864 915 865
f 865 915 916
f 865 916 866
f 866 916 917
f 866 917 867
f 867 917 918
f 867 918 868
f 868 918 919
f 868 919 869
f 869 919 884
f 885 295 886
f 886 295 294
f 886 294 887
f 887 294 293
f 887 293 888
f 888 293 267
f 888 267 889
f 889 267 266
f 889 266 890
f 890 266 292
f 890 292 891
f 891 292 291
f 891 291 892
f 892 291 290
f 892 290 893
f 893 290 288
f 893 288 894
f 894 288 286
f 894 286 895
f 895 286 284
f 895 284 896
f 896 284 282
f 896 282 897
f 897 282 281
f 897 281 898
f 898 281 264
f 898 264 899
f 899 264 262
f 899 262 900
f 900 262 261
f 900 261 901
f 901 261 280
f 901 280 902
f 902 280 279
f 902 279 903
f 903 279 278
f 903 278 904
f 904 278 277
f 904 277 905
f 905 277 276
f 905 276 906
f 906 276 274
f 906 274 907
f 907 274 273
f 907 273 908
f 908 273 298
f 908 298 909
f 909 298 297
f 909 297 910
f 910 297 306
f 910 306 911
f 911 306 305
f 911 305 912
f 912 305 304
f 912 304 913
f 913 304 303
f 913 303 914
f 914 303 302
f 914 302 915
f 915 302 300
f 915 300 916
f 916 300 299
f 916 299 917
f 917 299 272
f 917 272 918
f 918 272 271
f 918 271 919
f 919 271 269
f 919 269 884
f 884 269 268
f 884 268 885
f 885 268 295
f 209 920 143
f 143 920 921
f 143 921 141
f 141 921 922
f 141 922 140
f 140 922 923
f 140 923 172
f 172 923 924
f 172 924 173
f 173 924 925
f 173 925 174
f 174 925 926
f 174 926 204
f 204 926 927
f 204 927 205
f 205 927 928
f 205 928 206
f 206 928 929
f 206 929 220
f 220 929 930
f 220 930 221
f 221 930 931
f 221 931 222
f 222 931 932
f 222 932 200
f 200 932 933
f 200 933 208
f 208 933 934
f 208 934 111
f 111 934 935
f 111 935 112
f 112 935 936
f 112 936 138
f 138 936 937
f 138 937 74
f 74 937 938
f 74 938 92
f 92 938 939
f 92 939 93
f 93 939 940
f 93 940 94
f 94 940 941
f 94 941 77
f 77 941 942
f 77 942 78
f 78 942 943
f 78 943 80
f 80 943 944
f 80 944 81
f 81 944 945
f 81 945 114
f 114 945 946
f 114 946 115
f 115 946 947
f 115 947 116
f 116 947 948
f 116 948 117
f 117 948 949
f 117 949 118
f 118 949 950
f 118 950 156
f 156 950 951
f 156 951 157
f 157 951 952
f 157 952 158
f 158 952 953
f 158 953 159
f 159 953 954
f 159 954 230
f 230 954 955
f 230 955 209
f 209 955 920
f 946 956 947
f 947 956 957
f 947 957 948
f 948 957 958
f 948 958 949
f 949 958 959
f 949 959 950
f 950 959 960
f 950 960 951
f 951 960 961
f 951 961 952
f 952 961 962
f 952 962 953
f 953 962 963
f 953 963 954
f 954 963 964
f 954 964 955
f 955 964 965
f 955 965 920
f 920 965 966
f 920 966 921
f 921 966 967
f 921 967 922
f 922 967 968
f 922 968 923
f 923 968 969
f 923 969 924
f 924 969 970
f 924 970 925
f 925 970 971
f 925 971 926
f 926 971 972
f 926 972 927
f 927 972 973
f 927 973 928
f 928 973 974
f 928 974 929
f 929 974 975
f 929 975 930
f 930 975 976
f 930 976 931
f 931 976 977
f 931 977 932
f 932 977 978
f 932 978 933
f 933 978 979
f 933 979 934
f 934 979 980
f 934 980 935
f 935 980 981
f 935 981 936
f 936 981 982
f 936 982 937
f 937 982 983
f 937 983 938
f 938 983 984
f 938 984 939
f 939 984 985
f 939 985 940
f 940 985 986
f 940 986 941
f 941 986 987
f 941 987 942
f 942 987 988
f 942 988 943
f 943 988 989
f 943 989 944
f 944 989 990
f 944 990 945
f 945 990 991
f 945 991 946
f 946 991 956
f 966 992 967
f 967 992 993
f 967 993 968
f 968 993 994
f 968 994 969
f 969 994 995
f 969 995 970
f 970 995 996
f 970 996 971
f 971 996 997
f 971 997 972
f 972 997 998
f 972 998 973
f 973 998 999
f 973 999 974
f 974 999 1000
f 974 1000 975
f 975 1000 1001
f 975 1001 976
f 976 1001 1002
f 976 1002 977
f 977 1002 1003
f 977 1003 978
f 978 1003 1004
f 978 1004 979
f 979 1004 1005
f 979 1005 980
f 980 1005 1006
f 980 1006 981
f 981 1006 1007
f 981 1007 982
f 982 1007 1008
f 982 1008 983
f 983 1008 1009
f 983 1009 984
f 984 1009 1010
f 984 1010 985
f 985 1010 1011
f 985 1011 986
f 986 1011 1012
f 986 1012 987
f 987 1012 1013
f 987 1013 988
f 988 1013 1014
f 988 1014 989
f 989 1014 1015
f 989 1015 990
f 990 1015 1016
f 990 1016 991
f 991 1016 1017
f 991 1017 956
f 956 1017 1018
f 956 1018 957
f 957 1018 1019
f 957 1019 958
f 958 1019 1020
f 958 1020 959
f 959 1020 1021
f 959 1021 960
f 960 1021 1022
f 960 1022 961
f 961 1022 1023
f 961 1023 962
f 962 1023 1024
f 962 1024 963
f 963 1024 1025
f 963 1025 964
f 964 1025 1026
f 964 1026 965
f 965 1026 1027
f 965 1027 966
f 966 1027 992
f 993 504 994
f 994 504 522
f 994 522 995
f 995 522 521
f 995 521 996
f 996 521 520
f 996 520 997
f 997 520 536
f 997 536 998
f 998 536 535
f 998 535 999
f 999 535 532
f 999 532 1000
f 1000 532 531
f 1000 531 1001
f 1001 531 539
f 1001 539 1002
f 1002 539 538
f 1002 538 1003
f 1003 538 537
f 1003 537 1004
f 1004 537 530
f 1004 530 1005
f 1005 530 529
f 1005 529 1006
f 1006 529 534
f 1006 534 1007
f 1007 534 533
f 1007 533 1008
f 1008 533 512
f 1008 512 1009
f 1009 512 511
f 1009 511 1010
f 1010 511 510
f 1010 510 1011
f 1011 510 509
f 1011 509 1012
f 1012 509 528
f 1012 528 1013
f 1013 528 527
f 1013 527 1014
f 1014 527 526
f 1014 526 1015
f 1015 526 519
f 1015 519 1016
f 1016 519 517
f 1016 517 1017
f 1017 517 516
f 1017 516 1018
f 1018 516 525
f 1018 525 1019
f 1019 525 524
f 1019 524 1020
f 1020 524 523
f 1020 523 1021
f 1021 523 515
f 1021 515 1022
f 1022 515 514
f 1022 514 1023
f 1023 514 513
f 1023 513 1024
f 1024 513 508
f 1024 508 1025
f 1025 508 507
f 1025 507 1026
f 1026 507 506
f 1026 506 1027
f 1027 506 540
f 1027 540 992
f 992 540 430
f 992 430 993
f 993 430 504
f 224 1028 225
f 225 1028 1029
f 225 1029 226
f 226 1029 1030
f 226 1030 227
f 227 1030 1031
f 227 1031 228
f 228 1031 1032
f 228 1032 229
f 229 1032 1033
f 229 1033 201
f 201 1033 1034
f 201 1034 202
f 202 1034 1035
f 202 1035 203
f 203 1035 1036
f 203 1036 175
f 175 1036 1037
f 175 1037 176
f 176 1037 1038
f 176 1038 177
f 177 1038 1039
f 177 1039 231
f 231 1039 1040
f 231 1040 232
f 232 1040 1041
f 232 1041 234
f 234 1041 1042
f 234 1042 210
f 210 1042 1043
f 210 1043 211
f 211 1043 1044
f 211 1044 213
f 213 1044 1045
f 213 1045 215
f 215 1045 1046
f 215 1046 216
f 216 1046 1047
f 216 1047 217
f 217 1047 1048
f 217 1048 218
f 218 1048 1049
f 218 1049 219
f 219 1049 1050
f 219 1050 149
f 149 1050 1051
f 149 1051 150
f 150 1051 1052
f 150 1052 119
f 119 1052 1053
f 119 1053 178
f 178 1053 1054
f 178 1054 163
f 163 1054 1055
f 163 1055 144
f 144 1055 1056
f 144 1056 145
f 145 1056 1057
f 145 1057 147
f 147 1057 1058
f 147 1058 148
f 148 1058 1059
f 148 1059 160
f 160 1059 1060
f 160 1060 161
f 161 1060 1061
f 161 1061 162
f 162 1061 1062
f 162 1062 223
f 223 1062 1063
f 223 1063 224
f 224 1063 1028
f 1043 1064 1044
f 1044 1064 1065
f 1044 1065 1045
f 1045 1065 1066
f 1045 1066 1046
f 1046 1066 1067
f 1046 1067 1047
f 1047 1067 1068
f 1047 1068 1048
f 1048 1068 1069
f 1048 1069 1049
f 1049 1069 1070
f 1049 1070 1050
f 1050 1070 1071
f 1050 1071 1051
f 1051 1071 1072
f 1051 1072 1052
f 1052 1072 1073
f 1052 1073 1053
f 1053 1073 1074
f 1053 1074 1054
f 1054 1074 1075
f 1054 1075 1055
f 1055 1075 1076
f 1055 1076 1056
f 1056 1076 1077
f 1056 1077 1057
f 1057 1077 1078
f 1057 1078 1058
f 1058 1078 1079
f 1058 1079 1059
f 1059 1079 1080
f 1059 1080 1060
f 1060 1080 1081
f 1060 1081 1061
f 1061 1081 1082
f 1061 1082 1062
f 1062 1082 1083
f 1062 1083 1063
f 1063 1083 1084
f 1063 1084 1028
f 1028 1084 1085
f 1028 1085 1029
f 1029 1085 1086
f 1029 1086 1030
f 1030 1086 1087
f 1030 1087 1031
f 1031 1087 1088
f 1031 1088 1032
f 1032 1088 1089
f 1032 1089 1033
f 1033 1089 1090
f 1033 1090 1034
f 1034 1090 1091
f 1034 1091 1035
f 1035 1091 1092
f 1035 1092 1036
f 1036 1092 1093
f 1036 1093 1037
f 1037 1093 1094
f 1037 1094 1038
f 1038 1094 1095
f 1038 1095 1039
f 1039 1095 1096
f 1039 1096 1040
f 1040 1096 1097
f 1040 1097 1041
f 1041 1097 1098
f 1041 1098 1042
f 1042 1098 1099
f 1042 1099 1043
f 1043 1099 1064
f 1085 1100 1086
f 1086 1100 1101
f 1086 1101 1087
f 1087 1101 1102
f 1087 1102 1088
f 1088 1102 1103
f 1088 1103 1089
f 1089 1103 1104
f 1089 1104 1090
f 1090 1104 1105
f 1090 1105 1091
f 1091 1105 1106
f 1091 1106 1092
f 1092 1106 1107
f 1092 1107 1093
f 1093 1107 1108
f 1093 1108 1094
f 1094 1108 1109
f 1094 1109 1095
f 1095 1109 1110
f 1095 1110 1096
f 1096 1110 1111
f 1096 1111 1097
f 1097 1111 1112
f 1097 1112 1098
f 1098 1112 1113
f 1098 1113 1099
f 1099 1113 1114
f 1099 1114 1064
f 1064 1114 1115
f 1064 1115 1065
f 1065 1115 1116
f 1065 1116 1066
f 1066 1116 1117
f 1066 1117 1067
f 1067 1117 1118
f 1067 1118 1068
f 1068 1118 1119
f 1068 1119 1069
f 1069 1119 1120
f 1069 1120 1070
f 1070 1120 1121
f 1070 1121 1071
f 1071 1121 1122
f 1071 1122 1072
f 1072 1122 1123
f 1072 1123 1073
f 1073 1123 1124
f 1073 1124 1074
f 1074 1124 1125
f 1074 1125 1075
f 1075 1125 1126
f 1075 1126 1076
f 1076 1126 1127
f 1076 1127 1077
f 1077 1127 1128
f 1077 1128 1078
f 1078 1128 1129
f 1078 1129 1079
f 1079 1129 1130
f 1079 1130 1080
f 1080 1130 1131
f 1080 1131 1081
f 1081 1131 1132
f 1081 1132 1082
f 1082 1132 1133
f 1082 1133 1083
f 1083 1133 1134
f 1083 1134 1084
f 1084 1134 1135
f 1084 1135 1085
f 1085 1135 1100
f 1101 565 1102
f 1102 565 564
f 1102 564 1103
f 1103 564 548
f 1103 548 1104
f 1104 548 547
f 1104 547 1105
f 1105 547 546
f 1105 546 1106
f 1106 546 545
f 1106 545 1107
f 1107 545 544
f 1107 544 1108
f 1108 544 563
f 1108 563 1109
f 1109 563 562
f 1109 562 1110
f 1110 562 561
f 1110 561 1111
f 1111 561 560
f 1111 560 1112
f 1112 560 559
f 1112 559 1113
f 1113 559 558
f 1113 558 1114
f 1114 558 557
f 1114 557 1115
f 1115 557 556
f 1115 556 1116
f 1116 556 555
f 1116 555 1117
f 1117 555 575
f 1117 575 1118
f 1118 575 574
f 1118 574 1119
f 1119 574 573
f 1119 573 1120
f 1120 573 572
f 1120 572 1121
f 1121 572 571
f 1121 571 1122
f 1122 571 570
f 1122 570 1123
f 1123 570 542
f 1123 542 1124
f 1124 542 541
f 1124 541 1125
f 1125 541 578
f 1125 578 1126
f 1126 578 577
f 1126 577 1127
f 1127 577 439
f 1127 439 1128
f 1128 439 569
f 1128 569 1129
f 1129 569 568
f 1129 568 1130
f 1130 568 567
f 1130 567 1131
f 1131 567 554
f 1131 554 1132
f 1132 554 553
f 1132 553 1133
f 1133 553 552
f 1133 552 1134
f 1134 552 551
f 1134 551 1135
f 1135 551 550
f 1135 550 1100
f 1100 550 566
f 1100 566 1101
f 1101 566 565
f 1136 1137 693
f 693 1137 678
f 678 1137 679
f 679 1137 1138
f 679 1138 181
f 181 1138 86
f 1138 1139 86
f 86 1139 142
f 1 142 2
f 2 142 1139
f 2 1139 677
f 677 1139 1140
f 1140 1141 677
f 677 1141 697
f 1141 1136 697
f 697 1136 693
f 1142 1143 1137
f 1144 1145 1138
f 1137 1143 1138
f 1138 1143 1146
f 1138 1146 1144
f 1138 1147 1139
f 1139 1147 1148
f 1148 1149 1139
f 1139 1149 1150
f 1139 1150 1151
f 1152 1153 1141
f 1141 1153 1154
f 1141 1154 1155
f 1145 1156 1138
f 1138 1156 1157
f 1138 1157 1147
f 1151 1158 1139
f 1139 1158 1159
f 1139 1159 1140
f 1140 1159 1160
f 1140 1160 1161
f 1152 1141 1162
f 1162 1141 1140
f 1162 1140 1163
f 1161 1164 1140
f 1140 1164 1165
f 1140 1165 1163
f 1166 1136 1167
f 1167 1136 1168
f 1169 1170 1137
f 1137 1170 1171
f 1137 1171 1142
f 1155 1172 1141
f 1141 1172 1173
f 1141 1173 1136
f 1136 1173 1174
f 1136 1174 1168
f 1166 1175 1136
f 1136 1175 1176
f 1136 1176 1137
f 1137 1176 1177
f 1137 1177 1169
f 406 1143 405
f 405 1143 1142
f 405 1142 404
f 404 1142 1171
f 404 1171 410
f 410 1171 1170
f 410 1170 411
f 411 1170 1169
f 411 1169 413
f 413 1169 1177
f 413 1177 415
f 415 1177 1176
f 415 1176 416
f 416 1176 1175
f 416 1175 409
f 409 1175 1166
f 409 1166 417
f 417 1166 1167
f 417 1167 418
f 418 1167 1168
f 418 1168 419
f 419 1168 1174
f 419 1174 386
f 386 1174 1173
f 386 1173 385
f 385 1173 1172
f 385 1172 384
f 384 1172 1155
f 384 1155 390
f 390 1155 1154
f 390 1154 391
f 391 1154 1153
f 391 1153 256
f 256 1153 1152
f 256 1152 257
f 257 1152 1162
f 257 1162 382
f 382 1162 1163
f 382 1163 383
f 383 1163 1165
f 383 1165 387
f 387 1165 1164
f 387 1164 388
f 388 1164 1161
f 388 1161 389
f 389 1161 1160
f 389 1160 392
f 392 1160 1159
f 392 1159 393
f 393 1159 1158
f 393 1158 394
f 394 1158 1151
f 394 1151 397
f 397 1151 1150
f 397 1150 396
f 396 1150 1149
f 396 1149 395
f 395 1149 1148
f 395 1148 398
f 398 1148 1147
f 398 1147 399
f 399 1147 1157
f 399 1157 400
f 400 1157 1156
f 400 1156 401
f 401 1156 1145
f 401 1145 402
f 402 1145 1144
f 402 1144 403
f 403 1144 1146
f 403 1146 406
f 406 1146 1143
f 1178 1179 687
f 687 1179 681
f 681 1179 71
f 71 1179 1180
f 71 1180 72
f 72 1180 108
f 1180 1181 108
f 108 1181 196
f 194 196 691
f 691 196 1181
f 691 1181 689
f 689 1181 1182
f 1182 1183 689
f 689 1183 688
f 1183 1178 688
f 688 1178 687
f 1184 1185 1180
f 1186 1187 1178
f 1178 1187 1188
f 1184 1180 1189
f 1190 1179 1191
f 1191 1179 1178
f 1191 1178 1192
f 1192 1178 1188
f 1190 1193 1179
f 1179 1193 1194
f 1179 1194 1195
f 1195 1196 1179
f 1179 1196 1197
f 1179 1197 1180
f 1180 1197 1198
f 1180 1198 1189
f 1199 1181 1200
f 1200 1181 1201
f 1202 1203 1183
f 1183 1203 1204
f 1183 1204 1205
f 1199 1206 1181
f 1181 1206 1207
f 1181 1207 1182
f 1182 1207 1208
f 1182 1208 1209
f 1202 1183 1210
f 1210 1183 1182
f 1210 1182 1211
f 1205 1212 1183
f 1183 1212 1213
f 1183 1213 1178
f 1178 1213 1214
f 1178 1214 1186
f 1185 1215 1180
f 1180 1215 1216
f 1180 1216 1181
f 1181 1216 1217
f 1181 1217 1201
f 1209 1218 1182
f 1182 1218 1219
f 1182 1219 1211
f 1220 1221 683
f 683 1221 692
f 692 1221 47
f 47 1221 1222
f 47 1222 48
f 48 1222 214
f 1222 1223 214
f 214 1223 212
f 49 212 50
f 50 212 1223
f 50 1223 676
f 676 1223 1224
f 1224 1225 676
f 676 1225 682
f 1225 1220 682
f 682 1220 683
f 1226 1227 1224
f 1228 1229 1225
f 1224 1227 1225
f 1225 1227 1230
f 1225 1230 1228
f 1225 1231 1220
f 1220 1231 1232
f 1232 1233 1220
f 1220 1233 1234
f 1220 1234 1235
f 1236 1237 1222
f 1222 1237 1238
f 1222 1238 1239
f 1229 1240 1225
f 1225 1240 1241
f 1225 1241 1231
f 1235 1242 1220
f 1220 1242 1243
f 1220 1243 1221
f 1221 1243 1244
f 1221 1244 1245
f 1236 1222 1246
f 1246 1222 1221
f 1246 1221 1247
f 1245 1248 1221
f 1221 1248 1249
f 1221 1249 1247
f 1250 1223 1251
f 1251 1223 1252
f 1253 1254 1224
f 1224 1254 1255
f 1224 1255 1226
f 1239 1256 1222
f 1222 1256 1257
f 1222 1257 1223
f 1223 1257 1258
f 1223 1258 1252
f 1250 1259 1223
f 1223 1259 1260
f 1223 1260 1224
f 1224 1260 1261
f 1224 1261 1253
f 1262 1263 695
f 695 1263 703
f 703 1263 23
f 23 1263 1264
f 23 1264 24
f 24 1264 79
f 1264 1265 79
f 79 1265 146
f 25 146 26
f 26 146 1265
f 26 1265 694
f 694 1265 1266
f 1266 1267 694
f 694 1267 696
f 1267 1262 696
f 696 1262 695
f 1268 1269 1267
f 1270 1271 1265
f 1265 1271 1272
f 1273 1274 1266
f 1266 1274 1275
f 1268 1267 1276
f 1277 1262 1278
f 1278 1262 1279
f 1275 1280 1266
f 1266 1280 1281
f 1266 1281 1267
f 1267 1281 1282
f 1267 1282 1276
f 1283 1263 1284
f 1284 1263 1262
f 1284 1262 1285
f 1285 1262 1277
f 1283 1286 1263
f 1263 1286 1287
f 1263 1287 1288
f 1272 1289 1265
f 1265 1289 1290
f 1265 1290 1266
f 1266 1290 1291
f 1266 1291 1273
f 1292 1264 1293
f 1293 1264 1263
f 1293 1263 1294
f 1294 1263 1288
f 1269 1295 1267
f 1267 1295 1296
f 1267 1296 1262
f 1262 1296 1297
f 1262 1297 1279
f 1292 1298 1264
f 1264 1298 1299
f 1264 1299 1300
f 1300 1301 1264
f 1264 1301 1302
f 1264 1302 1265
f 1265 1302 1303
f 1265 1303 1270
f 366 1187 370
f 370 1187 1186
f 370 1186 369
f 369 1186 1214
f 369 1214 367
f 367 1214 1213
f 367 1213 375
f 375 1213 1212
f 375 1212 376
f 376 1212 1205
f 376 1205 377
f 377 1205 1204
f 377 1204 352
f 352 1204 1203
f 352 1203 353
f 353 1203 1202
f 353 1202 378
f 378 1202 1210
f 378 1210 379
f 379 1210 1211
f 379 1211 380
f 380 1211 1219
f 380 1219 372
f 372 1219 1218
f 372 1218 373
f 373 1218 1209
f 373 1209 374
f 374 1209 1208
f 374 1208 342
f 342 1208 1207
f 342 1207 343
f 343 1207 1206
f 343 1206 337
f 337 1206 1199
f 337 1199 338
f 338 1199 1200
f 338 1200 340
f 340 1200 1201
f 340 1201 349
f 349 1201 1217
f 349 1217 350
f 350 1217 1216
f 350 1216 351
f 351 1216 1215
f 351 1215 355
f 355 1215 1185
f 355 1185 356
f 356 1185 1184
f 356 1184 357
f 357 1184 1189
f 357 1189 358
f 358 1189 1198
f 358 1198 359
f 359 1198 1197
f 359 1197 360
f 360 1197 1196
f 360 1196 344
f 344 1196 1195
f 344 1195 345
f 345 1195 1194
f 345 1194 347
f 347 1194 1193
f 347 1193 348
f 348 1193 1190
f 348 1190 361
f 361 1190 1191
f 361 1191 362
f 362 1191 1192
f 362 1192 364
f 364 1192 1188
f 364 1188 366
f 366 1188 1187
f 486 1227 488
f 488 1227 1226
f 488 1226 489
f 489 1226 1255
f 489 1255 479
f 479 1255 1254
f 479 1254 481
f 481 1254 1253
f 481 1253 482
f 482 1253 1261
f 482 1261 490
f 490 1261 1260
f 490 1260 491
f 491 1260 1259
f 491 1259 492
f 492 1259 1250
f 492 1250 472
f 472 1250 1251
f 472 1251 473
f 473 1251 1252
f 473 1252 483
f 483 1252 1258
f 483 1258 484
f 484 1258 1257
f 484 1257 459
f 459 1257 1256
f 459 1256 460
f 460 1256 1239
f 460 1239 461
f 461 1239 1238
f 461 1238 462
f 462 1238 1237
f 462 1237 463
f 463 1237 1236
f 463 1236 464
f 464 1236 1246
f 464 1246 465
f 465 1246 1247
f 465 1247 466
f 466 1247 1249
f 466 1249 470
f 470 1249 1248
f 470 1248 471
f 471 1248 1245
f 471 1245 453
f 453 1245 1244
f 453 1244 454
f 454 1244 1243
f 454 1243 455
f 455 1243 1242
f 455 1242 456
f 456 1242 1235
f 456 1235 452
f 452 1235 1234
f 452 1234 458
f 458 1234 1233
f 458 1233 467
f 467 1233 1232
f 467 1232 468
f 468 1232 1231
f 468 1231 469
f 469 1231 1241
f 469 1241 474
f 474 1241 1240
f 474 1240 475
f 475 1240 1229
f 475 1229 477
f 477 1229 1228
f 477 1228 485
f 485 1228 1230
f 485 1230 486
f 486 1230 1227
f 605 1271 604
f 604 1271 1270
f 604 1270 603
f 603 1270 1303
f 603 1303 606
f 606 1303 1302
f 606 1302 607
f 607 1302 1301
f 607 1301 608
f 608 1301 1300
f 608 1300 611
f 611 1300 1299
f 611 1299 612
f 612 1299 1298
f 612 1298 613
f 613 1298 1292
f 613 1292 601
f 601 1292 1293
f 601 1293 602
f 602 1293 1294
f 602 1294 609
f 609 1294 1288
f 609 1288 610
f 610 1288 1287
f 610 1287 579
f 579 1287 1286
f 579 1286 580
f 580 1286 1283
f 580 1283 587
f 587 1283 1284
f 587 1284 588
f 588 1284 1285
f 588 1285 237
f 237 1285 1277
f 237 1277 238
f 238 1277 1278
f 238 1278 581
f 581 1278 1279
f 581 1279 583
f 583 1279 1297
f 583 1297 584
f 584 1297 1296
f 584 1296 585
f 585 1296 1295
f 585 1295 586
f 586 1295 1269
f 586 1269 589
f 589 1269 1268
f 589 1268 590
f 590 1268 1276
f 590 1276 591
f 591 1276 1282
f 591 1282 594
f 594 1282 1281
f 594 1281 592
f 592 1281 1280
f 592 1280 593
f 593 1280 1275
f 593 1275 595
f 595 1275 1274
f 595 1274 596
f 596 1274 1273
f 596 1273 597
f 597 1273 1291
f 597 1291 598
f 598 1291 1290
f 598 1290 599
f 599 1290 1289
f 599 1289 600
f 600 1289 1272
f 600 1272 605
f 605 1272 1271

