# https://github.com/mikedh/trimesh

o adapter_bottom.STL
v 0.00000000 0.00000000 -0.04600000
v 0.00480831 0.01800000 -0.04574800
v 0.00480831 0.00000000 -0.04574800
v 0.00956394 0.01800000 -0.04499479
v 0.00956394 0.00000000 -0.04499479
v 0.01421478 0.01800000 -0.04374860
v 0.01421478 0.00000000 -0.04374860
v 0.01870988 0.01800000 -0.04202309
v 0.01870988 0.00000000 -0.04202309
v 0.02300000 0.01800000 -0.03983717
v 0.02300000 0.00000000 -0.03983717
v 0.02703812 0.01800000 -0.03721478
v 0.02703812 0.00000000 -0.03721478
v 0.03078001 0.01800000 -0.03418466
v 0.03078001 0.00000000 -0.03418466
v 0.03418466 0.01800000 -0.03078001
v 0.03418466 0.00000000 -0.03078001
v 0.03721478 0.01800000 -0.02703812
v 0.03721478 0.00000000 -0.02703812
v 0.03983717 0.01800000 -0.02300000
v 0.03983717 0.00000000 -0.02300000
v 0.04202309 0.01800000 -0.01870988
v 0.04202309 0.00000000 -0.01870988
v 0.04374860 0.01800000 -0.01421478
v 0.04374860 0.00000000 -0.01421478
v 0.04499479 0.01800000 -0.00956394
v 0.04499479 0.00000000 -0.00956394
v 0.04574800 0.01800000 -0.00480831
v 0.04574800 0.00000000 -0.00480831
v 0.04600000 0.01800000 -0.00000000
v 0.04600000 0.00000000 -0.00000000
v 0.04574800 0.01800000 0.00480831
v 0.04574800 0.00000000 0.00480831
v 0.04499479 0.01800000 0.00956394
v 0.04499479 0.00000000 0.00956394
v 0.04374860 0.01800000 0.01421478
v 0.04374860 0.00000000 0.01421478
v 0.04202309 0.01800000 0.01870988
v 0.04202309 0.00000000 0.01870988
v 0.03983717 0.01800000 0.02300000
v 0.03983717 0.00000000 0.02300000
v 0.03721478 0.01800000 0.02703812
v 0.03721478 0.00000000 0.02703812
v 0.03418466 0.01800000 0.03078001
v 0.03418466 0.00000000 0.03078001
v 0.03078001 0.01800000 0.03418466
v 0.03078001 0.00000000 0.03418466
v 0.02703812 0.01800000 0.03721478
v 0.02703812 0.00000000 0.03721478
v 0.02300000 0.01800000 0.03983717
v 0.02300000 0.00000000 0.03983717
v 0.01870988 0.01800000 0.04202309
v 0.01870988 0.00000000 0.04202309
v 0.01421478 0.01800000 0.04374860
v 0.01421478 0.00000000 0.04374860
v 0.00956394 0.01800000 0.04499479
v 0.00956394 0.00000000 0.04499479
v 0.00480831 0.01800000 0.04574800
v 0.00480831 0.00000000 0.04574800
v 0.00000000 0.01800000 0.04600000
v 0.00000000 0.00000000 0.04600000
v -0.00480831 0.01800000 0.04574800
v -0.00480831 0.00000000 0.04574800
v -0.00956394 0.01800000 0.04499479
v -0.00956394 0.00000000 0.04499479
v -0.01421478 0.01800000 0.04374860
v -0.01421478 0.00000000 0.04374860
v -0.01870988 0.01800000 0.04202309
v -0.01870988 0.00000000 0.04202309
v -0.02300000 0.01800000 0.03983717
v -0.02300000 0.00000000 0.03983717
v -0.02703812 0.01800000 0.03721478
v -0.02703812 0.00000000 0.03721478
v -0.03078001 0.01800000 0.03418466
v -0.03078001 0.00000000 0.03418466
v -0.03418466 0.01800000 0.03078001
v -0.03418466 0.00000000 0.03078001
v -0.03721478 0.01800000 0.02703812
v -0.03721478 0.00000000 0.02703812
v -0.03983717 0.01800000 0.02300000
v -0.03983717 0.00000000 0.02300000
v -0.04202309 0.01800000 0.01870988
v -0.04202309 0.00000000 0.01870988
v -0.04374860 0.01800000 0.01421478
v -0.04374860 0.00000000 0.01421478
v -0.04499479 0.01800000 0.00956394
v -0.04499479 0.00000000 0.00956394
v -0.04574800 0.01800000 0.00480831
v -0.04574800 0.00000000 0.00480831
v -0.04600000 0.01800000 0.00000000
v -0.04600000 0.00000000 0.00000000
v -0.04574800 0.01800000 -0.00480831
v -0.04574800 0.00000000 -0.00480831
v -0.04499479 0.01800000 -0.00956394
v -0.04499479 0.00000000 -0.00956394
v -0.04374860 0.01800000 -0.01421478
v -0.04374860 0.00000000 -0.01421478
v -0.04202309 0.01800000 -0.01870988
v -0.04202309 0.00000000 -0.01870988
v -0.03983717 0.01800000 -0.02300000
v -0.03983717 0.00000000 -0.02300000
v -0.03721478 0.01800000 -0.02703812
v -0.03721478 0.00000000 -0.02703812
v -0.03418466 0.01800000 -0.03078001
v -0.03418466 0.00000000 -0.03078001
v -0.03078001 0.01800000 -0.03418466
v -0.03078001 0.00000000 -0.03418466
v -0.02703812 0.01800000 -0.03721478
v -0.02703812 0.00000000 -0.03721478
v -0.02300000 0.01800000 -0.03983717
v -0.02300000 0.00000000 -0.03983717
v -0.01870988 0.01800000 -0.04202309
v -0.01870988 0.00000000 -0.04202309
v -0.01421478 0.01800000 -0.04374860
v -0.01421478 0.00000000 -0.04374860
v -0.00956394 0.01800000 -0.04499479
v -0.00956394 0.00000000 -0.04499479
v -0.00480831 0.01800000 -0.04574800
v -0.00480831 0.00000000 -0.04574800
v 0.00000000 0.01800000 -0.04600000
v 0.01925000 0.01800000 -0.02127938
v 0.00536178 0.01800000 -0.03540438
v 0.00474277 0.01800000 -0.03452034
v 0.00447062 0.01800000 -0.02127938
v -0.01925000 0.01800000 -0.00822062
v 0.00397966 0.01800000 0.04324277
v 0.00309562 0.01800000 0.04386178
v 0.00211753 0.01800000 0.04431787
v 0.00107510 0.01800000 0.04459719
v 0.00000000 0.01800000 0.04469125
v -0.00107510 0.01800000 0.04459719
v -0.00211753 0.01800000 0.04431787
v -0.00309562 0.01800000 0.04386178
v -0.00397966 0.01800000 0.04324277
v -0.00474277 0.01800000 0.04247966
v -0.00536178 0.01800000 0.04159563
v -0.00581787 0.01800000 0.04061753
v -0.00609719 0.01800000 0.03957510
v -0.00619125 0.01800000 0.03850000
v -0.00609719 0.01800000 0.03742490
v -0.01925000 0.01800000 0.02127938
v -0.00581787 0.01800000 0.03638247
v -0.00536178 0.01800000 0.03540438
v -0.01925000 0.01800000 0.00822062
v -0.03268213 0.01800000 0.00211753
v -0.03313822 0.01800000 0.00309562
v -0.03240281 0.01800000 0.00107510
v -0.01925000 0.01800000 0.00000000
v -0.03230875 0.01800000 0.00000000
v -0.03375723 0.01800000 0.00397966
v -0.03452034 0.01800000 0.00474277
v -0.03540438 0.01800000 0.00536178
v -0.03638247 0.01800000 0.00581787
v -0.03742490 0.01800000 0.00609719
v -0.03850000 0.01800000 0.00619125
v -0.03957510 0.01800000 0.00609719
v -0.04061753 0.01800000 0.00581787
v -0.04386178 0.01800000 0.00309562
v -0.04431787 0.01800000 0.00211753
v -0.04459719 0.01800000 0.00107510
v -0.04534563 0.01800000 0.00000000
v -0.04159563 0.01800000 0.00536178
v -0.04247966 0.01800000 0.00474277
v -0.04324277 0.01800000 0.00397966
v -0.03268213 0.01800000 -0.00211753
v -0.03240281 0.01800000 -0.00107510
v -0.04469125 0.01800000 0.00000000
v -0.04459719 0.01800000 -0.00107510
v -0.04431787 0.01800000 -0.00211753
v -0.04386178 0.01800000 -0.00309562
v -0.04324277 0.01800000 -0.00397966
v -0.04247966 0.01800000 -0.00474277
v -0.04159563 0.01800000 -0.00536178
v -0.04061753 0.01800000 -0.00581787
v -0.03957510 0.01800000 -0.00609719
v -0.03540438 0.01800000 -0.00536178
v -0.03452034 0.01800000 -0.00474277
v -0.03850000 0.01800000 -0.00619125
v -0.03742490 0.01800000 -0.00609719
v -0.03638247 0.01800000 -0.00581787
v -0.03375723 0.01800000 -0.00397966
v -0.03313822 0.01800000 -0.00309562
v -0.01925000 0.01800000 -0.02127938
v -0.00474277 0.01800000 -0.03452034
v -0.00536178 0.01800000 -0.03540438
v -0.00581787 0.01800000 -0.03638247
v -0.00609719 0.01800000 -0.03742490
v -0.00619125 0.01800000 -0.03850000
v -0.00609719 0.01800000 -0.03957510
v -0.00581787 0.01800000 -0.04061753
v -0.00536178 0.01800000 -0.04159563
v -0.00474277 0.01800000 -0.04247966
v -0.00397966 0.01800000 -0.04324277
v -0.00309562 0.01800000 -0.04386178
v -0.00211753 0.01800000 -0.04431787
v -0.00107510 0.01800000 -0.04459719
v 0.00000000 0.01800000 -0.04469125
v 0.00107510 0.01800000 -0.04459719
v 0.00211753 0.01800000 -0.04431787
v 0.00309562 0.01800000 -0.04386178
v 0.00397966 0.01800000 -0.04324277
v 0.00474277 0.01800000 -0.04247966
v 0.00536178 0.01800000 -0.04159563
v 0.00581787 0.01800000 -0.04061753
v 0.00609719 0.01800000 -0.03957510
v 0.00619125 0.01800000 -0.03850000
v 0.00609719 0.01800000 -0.03742490
v 0.00581787 0.01800000 -0.03638247
v 0.01925000 0.01800000 -0.00822062
v 0.01925000 0.01800000 0.00000000
v 0.03230875 0.01800000 -0.00000000
v 0.03240281 0.01800000 -0.00107510
v 0.03957510 0.01800000 -0.00609719
v 0.04061753 0.01800000 -0.00581787
v 0.04459719 0.01800000 -0.00107510
v 0.04431787 0.01800000 -0.00211753
v 0.04386178 0.01800000 -0.00309562
v 0.03268213 0.01800000 -0.00211753
v 0.03313822 0.01800000 -0.00309562
v 0.03375723 0.01800000 -0.00397966
v 0.03452034 0.01800000 -0.00474277
v 0.03540438 0.01800000 -0.00536178
v 0.03638247 0.01800000 -0.00581787
v 0.03742490 0.01800000 -0.00609719
v 0.03850000 0.01800000 -0.00619125
v 0.04159563 0.01800000 -0.00536178
v 0.04247966 0.01800000 -0.00474277
v 0.04324277 0.01800000 -0.00397966
v 0.04431787 0.01800000 0.00211753
v 0.04459719 0.01800000 0.00107510
v 0.04469125 0.01800000 -0.00000000
v 0.04159563 0.01800000 0.00536178
v 0.04061753 0.01800000 0.00581787
v 0.03957510 0.01800000 0.00609719
v 0.04386178 0.01800000 0.00309562
v 0.04324277 0.01800000 0.00397966
v 0.04247966 0.01800000 0.00474277
v 0.03850000 0.01800000 0.00619125
v 0.03742490 0.01800000 0.00609719
v 0.01925000 0.01800000 0.00822062
v 0.03638247 0.01800000 0.00581787
v 0.03540438 0.01800000 0.00536178
v 0.03452034 0.01800000 0.00474277
v 0.03375723 0.01800000 0.00397966
v 0.03313822 0.01800000 0.00309562
v 0.03268213 0.01800000 0.00211753
v 0.03240281 0.01800000 0.00107510
v 0.01925000 0.01800000 0.02127938
v 0.00536178 0.01800000 0.03540438
v 0.00581787 0.01800000 0.03638247
v 0.00609719 0.01800000 0.03742490
v 0.00619125 0.01800000 0.03850000
v 0.00609719 0.01800000 0.03957510
v 0.00581787 0.01800000 0.04061753
v 0.00536178 0.01800000 0.04159563
v 0.00474277 0.01800000 0.04247966
v 0.00397966 0.01800000 -0.03375723
v 0.00309562 0.01800000 -0.03313822
v 0.00211753 0.01800000 -0.03268213
v 0.00107510 0.01800000 -0.03240281
v 0.00000000 0.01800000 -0.03230875
v -0.00447062 0.01800000 -0.02127938
v -0.00107510 0.01800000 -0.03240281
v -0.00211753 0.01800000 -0.03268213
v -0.00309562 0.01800000 -0.03313822
v -0.00397966 0.01800000 -0.03375723
v 0.00107510 0.01800000 0.03240281
v 0.00211753 0.01800000 0.03268213
v 0.00447062 0.01800000 0.02127938
v 0.00309562 0.01800000 0.03313822
v 0.00397966 0.01800000 0.03375723
v 0.00474277 0.01800000 0.03452034
v -0.00309562 0.01800000 0.03313822
v -0.00447062 0.01800000 0.02127938
v -0.00397966 0.01800000 0.03375723
v -0.00474277 0.01800000 0.03452034
v -0.00211753 0.01800000 0.03268213
v -0.00107510 0.01800000 0.03240281
v 0.00000000 0.01800000 0.03230875
v -0.00137500 0.01800000 0.00511843
v -0.00094056 0.01800000 0.00491584
v -0.00447062 0.01800000 0.00000000
v 0.00094056 0.01800000 0.00491584
v 0.00137500 0.01800000 0.00511843
v 0.00447062 0.01800000 0.00000000
v 0.00176767 0.01800000 0.00539338
v 0.00210662 0.01800000 0.00573233
v 0.00447062 0.01800000 0.00822062
v 0.00275000 0.01800000 0.00750000
v 0.00270822 0.01800000 0.00797753
v -0.00047753 0.01800000 0.00479178
v -0.00000000 0.01800000 0.00475000
v 0.00047753 0.01800000 0.00479178
v -0.00447062 0.01800000 0.00822062
v -0.00258415 0.01800000 0.00844055
v -0.00270822 0.01800000 0.00797753
v -0.00238157 0.01800000 0.00612500
v -0.00210662 0.01800000 0.00573233
v -0.00176767 0.01800000 0.00539338
v 0.00238157 0.01800000 0.00612500
v 0.00258415 0.01800000 0.00655944
v 0.00270822 0.01800000 0.00702247
v -0.00275000 0.01800000 0.00750000
v -0.00270822 0.01800000 0.00702247
v -0.00258415 0.01800000 0.00655944
v 0.00094056 0.01800000 0.01008416
v 0.00137500 0.01800000 0.00988157
v 0.00176767 0.01800000 0.00960662
v -0.00094056 0.01800000 0.01008416
v -0.00137500 0.01800000 0.00988157
v 0.00258415 0.01800000 0.00844055
v 0.00238157 0.01800000 0.00887500
v 0.00210662 0.01800000 0.00926767
v 0.00047753 0.01800000 0.01020822
v 0.00000000 0.01800000 0.01025000
v -0.00047753 0.01800000 0.01020822
v -0.00176767 0.01800000 0.00960662
v -0.00210662 0.01800000 0.00926767
v -0.00238157 0.01800000 0.00887500
v -0.00210662 0.01800000 -0.00926767
v -0.00238157 0.01800000 -0.00887500
v -0.00447062 0.01800000 -0.00822062
v 0.00094056 0.01800000 -0.01008416
v 0.00137500 0.01800000 -0.00988157
v -0.00176767 0.01800000 -0.00960662
v -0.00137500 0.01800000 -0.00988157
v -0.00094056 0.01800000 -0.01008416
v -0.00047753 0.01800000 -0.01020822
v -0.00000000 0.01800000 -0.01025000
v 0.00047753 0.01800000 -0.01020822
v 0.00176767 0.01800000 -0.00960662
v 0.00210662 0.01800000 -0.00926767
v 0.00447062 0.01800000 -0.00822062
v 0.00238157 0.01800000 -0.00887500
v 0.00258415 0.01800000 -0.00844055
v 0.00270822 0.01800000 -0.00797753
v 0.00238157 0.01800000 -0.00612500
v 0.00210662 0.01800000 -0.00573233
v 0.00176767 0.01800000 -0.00539338
v 0.00137500 0.01800000 -0.00511843
v -0.00176767 0.01800000 -0.00539338
v -0.00210662 0.01800000 -0.00573233
v 0.00275000 0.01800000 -0.00750000
v 0.00270822 0.01800000 -0.00702247
v 0.00258415 0.01800000 -0.00655944
v 0.00094056 0.01800000 -0.00491584
v 0.00047753 0.01800000 -0.00479178
v 0.00000000 0.01800000 -0.00475000
v -0.00047753 0.01800000 -0.00479178
v -0.00094056 0.01800000 -0.00491584
v -0.00137500 0.01800000 -0.00511843
v -0.00275000 0.01800000 -0.00750000
v -0.00270822 0.01800000 -0.00797753
v -0.00258415 0.01800000 -0.00844055
v -0.00238157 0.01800000 -0.00612500
v -0.00258415 0.01800000 -0.00655944
v -0.00270822 0.01800000 -0.00702247
v -0.04182688 0.00000000 -0.00058662
v -0.04187820 0.00000000 0.00000000
v -0.04393910 0.00000000 0.00000000
v -0.00428910 0.00000000 -0.02391090
v 0.00428910 0.00000000 0.02391090
v -0.00428910 0.00000000 0.02391090
v 0.00000000 0.00000000 0.03512180
v -0.00058662 0.00000000 0.03517312
v -0.00000000 0.00000000 0.04187820
v 0.00058662 0.00000000 0.04182688
v 0.00058662 0.00000000 0.03517312
v 0.00115541 0.00000000 0.03532553
v -0.00115541 0.00000000 0.03532553
v -0.00168910 0.00000000 0.03557439
v -0.00217147 0.00000000 0.03591215
v 0.00317447 0.00000000 0.03734459
v 0.00292561 0.00000000 0.03681090
v 0.00258785 0.00000000 0.03632854
v -0.00258785 0.00000000 0.03632854
v -0.00292561 0.00000000 0.03681090
v -0.00317447 0.00000000 0.03734459
v -0.00317447 0.00000000 0.03965541
v -0.00292561 0.00000000 0.04018910
v -0.00258785 0.00000000 0.04067146
v -0.00217147 0.00000000 0.04108785
v 0.00168910 0.00000000 0.04142561
v 0.00217147 0.00000000 0.04108785
v 0.00217147 0.00000000 0.03591215
v 0.00168910 0.00000000 0.03557439
v 0.00115541 0.00000000 0.04167447
v 0.00258785 0.00000000 0.04067146
v 0.00292561 0.00000000 0.04018910
v 0.00317447 0.00000000 0.03965541
v -0.00168910 0.00000000 0.04142561
v -0.00115541 0.00000000 0.04167447
v -0.00058662 0.00000000 0.04182688
v 0.00332688 0.00000000 0.03908662
v 0.00337820 0.00000000 0.03850000
v 0.00332688 0.00000000 0.03791338
v -0.00332688 0.00000000 0.03791338
v -0.00337820 0.00000000 0.03850000
v -0.00332688 0.00000000 0.03908662
v 0.02016090 0.00000000 0.02391090
v 0.02016090 0.00000000 0.00803910
v 0.03532553 0.00000000 0.00115541
v 0.03557439 0.00000000 0.00168910
v 0.03591215 0.00000000 0.00217147
v 0.03632854 0.00000000 0.00258785
v 0.04182688 0.00000000 0.00058662
v 0.04167447 0.00000000 0.00115541
v 0.04142561 0.00000000 0.00168910
v 0.03850000 0.00000000 0.00337820
v 0.03908662 0.00000000 0.00332688
v 0.03965541 0.00000000 0.00317447
v 0.04018910 0.00000000 0.00292561
v 0.04067146 0.00000000 0.00258785
v 0.04108785 0.00000000 0.00217147
v 0.03681090 0.00000000 0.00292561
v 0.03734459 0.00000000 0.00317447
v 0.03791338 0.00000000 0.00332688
v 0.03532553 0.00000000 -0.00115541
v 0.03517312 0.00000000 -0.00058662
v 0.02016090 0.00000000 0.00000000
v 0.03512180 0.00000000 -0.00000000
v 0.03517312 0.00000000 0.00058662
v 0.04187820 0.00000000 -0.00000000
v 0.04182688 0.00000000 -0.00058662
v 0.04167447 0.00000000 -0.00115541
v 0.04142561 0.00000000 -0.00168910
v 0.04108785 0.00000000 -0.00217147
v 0.04067146 0.00000000 -0.00258785
v 0.02016090 0.00000000 -0.00803910
v 0.03681090 0.00000000 -0.00292561
v 0.03632854 0.00000000 -0.00258785
v 0.04018910 0.00000000 -0.00292561
v 0.03965541 0.00000000 -0.00317447
v 0.03908662 0.00000000 -0.00332688
v 0.03591215 0.00000000 -0.00217147
v 0.03557439 0.00000000 -0.00168910
v 0.03850000 0.00000000 -0.00337820
v 0.03791338 0.00000000 -0.00332688
v 0.03734459 0.00000000 -0.00317447
v 0.02016090 0.00000000 -0.02391090
v 0.00428910 0.00000000 -0.02391090
v 0.00000000 0.00000000 -0.04187820
v -0.00058662 0.00000000 -0.04182688
v -0.00168910 0.00000000 -0.04142561
v -0.00217147 0.00000000 -0.04108785
v -0.00115541 0.00000000 -0.04167447
v -0.00317447 0.00000000 -0.03734459
v -0.00292561 0.00000000 -0.03681090
v 0.00058662 0.00000000 -0.03517312
v -0.00000000 0.00000000 -0.03512180
v -0.00258785 0.00000000 -0.04067146
v -0.00292561 0.00000000 -0.04018910
v -0.00317447 0.00000000 -0.03965541
v -0.00258785 0.00000000 -0.03632854
v -0.00217147 0.00000000 -0.03591215
v -0.00168910 0.00000000 -0.03557439
v 0.00115541 0.00000000 -0.03532553
v 0.00168910 0.00000000 -0.03557439
v 0.00217147 0.00000000 -0.03591215
v 0.00317447 0.00000000 -0.03965541
v 0.00292561 0.00000000 -0.04018910
v 0.00258785 0.00000000 -0.04067146
v 0.00217147 0.00000000 -0.04108785
v 0.00168910 0.00000000 -0.04142561
v 0.00115541 0.00000000 -0.04167447
v 0.00058662 0.00000000 -0.04182688
v -0.00115541 0.00000000 -0.03532553
v -0.00058662 0.00000000 -0.03517312
v 0.00258785 0.00000000 -0.03632854
v 0.00292561 0.00000000 -0.03681090
v 0.00317447 0.00000000 -0.03734459
v -0.00332688 0.00000000 -0.03908662
v -0.00337820 0.00000000 -0.03850000
v -0.00332688 0.00000000 -0.03791338
v 0.00332688 0.00000000 -0.03791338
v 0.00337820 0.00000000 -0.03850000
v 0.00332688 0.00000000 -0.03908662
v -0.02016090 0.00000000 -0.02391090
v -0.02016090 0.00000000 -0.00803910
v -0.04393910 0.00000000 -0.00803910
v -0.04393910 0.00000000 0.00803910
v -0.02016090 0.00000000 0.02391090
v -0.02016090 0.00000000 0.00803910
v -0.04108785 0.00000000 0.00217147
v -0.04067146 0.00000000 0.00258785
v -0.04182688 0.00000000 0.00058662
v -0.04167447 0.00000000 0.00115541
v -0.04142561 0.00000000 0.00168910
v -0.03557439 0.00000000 0.00168910
v -0.03532553 0.00000000 0.00115541
v -0.02016090 0.00000000 0.00000000
v -0.03681090 0.00000000 0.00292561
v -0.03632854 0.00000000 0.00258785
v -0.03591215 0.00000000 0.00217147
v -0.04018910 0.00000000 0.00292561
v -0.03965541 0.00000000 0.00317447
v -0.03908662 0.00000000 0.00332688
v -0.03850000 0.00000000 0.00337820
v -0.03791338 0.00000000 0.00332688
v -0.03734459 0.00000000 0.00317447
v -0.03517312 0.00000000 0.00058662
v -0.03512180 0.00000000 0.00000000
v -0.03517312 0.00000000 -0.00058662
v -0.03532553 0.00000000 -0.00115541
v -0.03557439 0.00000000 -0.00168910
v -0.03591215 0.00000000 -0.00217147
v -0.03632854 0.00000000 -0.00258785
v -0.03850000 0.00000000 -0.00337820
v -0.03908662 0.00000000 -0.00332688
v -0.03965541 0.00000000 -0.00317447
v -0.04018910 0.00000000 -0.00292561
v -0.04067146 0.00000000 -0.00258785
v -0.03681090 0.00000000 -0.00292561
v -0.03734459 0.00000000 -0.00317447
v -0.03791338 0.00000000 -0.00332688
v -0.04108785 0.00000000 -0.00217147
v -0.04142561 0.00000000 -0.00168910
v -0.04167447 0.00000000 -0.00115541
v 0.00398343 0.00000000 0.00415750
v 0.00334250 0.00000000 0.00351657
v 0.00428910 0.00000000 0.00000000
v 0.00260000 0.00000000 0.00299667
v 0.00177850 0.00000000 0.00261360
v 0.00090297 0.00000000 0.00237900
v 0.00000000 0.00000000 0.00230000
v -0.00428910 0.00000000 0.00000000
v -0.00090297 0.00000000 0.00237900
v -0.00177850 0.00000000 0.00261360
v -0.00260000 0.00000000 0.00299667
v -0.00334250 0.00000000 0.00351657
v 0.00520000 0.00000000 0.00750000
v 0.00512100 0.00000000 0.00659703
v 0.00488640 0.00000000 0.00572150
v 0.00450333 0.00000000 0.00490000
v 0.00450333 0.00000000 0.01010000
v 0.00488640 0.00000000 0.00927851
v 0.00512100 0.00000000 0.00840297
v -0.00398343 0.00000000 0.01084250
v -0.00334250 0.00000000 0.01148343
v -0.00260000 0.00000000 0.01200333
v -0.00177850 0.00000000 0.01238640
v 0.00177850 0.00000000 0.01238640
v 0.00260000 0.00000000 0.01200333
v 0.00334250 0.00000000 0.01148343
v 0.00398343 0.00000000 0.01084250
v -0.00090297 0.00000000 0.01262100
v 0.00000000 0.00000000 0.01270000
v 0.00090297 0.00000000 0.01262100
v -0.00512100 0.00000000 0.00840297
v -0.00488640 0.00000000 0.00927851
v -0.00450333 0.00000000 0.01010000
v -0.00398343 0.00000000 0.00415750
v -0.00450333 0.00000000 0.00490000
v -0.00488640 0.00000000 0.00572150
v -0.00512100 0.00000000 0.00659703
v -0.00520000 0.00000000 0.00750000
v 0.00450333 0.00000000 -0.01010000
v 0.00398343 0.00000000 -0.01084250
v -0.00334250 0.00000000 -0.01148343
v -0.00260000 0.00000000 -0.01200333
v -0.00177850 0.00000000 -0.01238640
v 0.00334250 0.00000000 -0.01148343
v 0.00260000 0.00000000 -0.01200333
v 0.00177850 0.00000000 -0.01238640
v 0.00090297 0.00000000 -0.01262100
v 0.00000000 0.00000000 -0.01270000
v -0.00090297 0.00000000 -0.01262100
v 0.00488640 0.00000000 -0.00927851
v 0.00512100 0.00000000 -0.00840297
v 0.00520000 0.00000000 -0.00750000
v 0.00512100 0.00000000 -0.00659703
v 0.00334250 0.00000000 -0.00351657
v 0.00398343 0.00000000 -0.00415750
v 0.00450333 0.00000000 -0.00490000
v 0.00488640 0.00000000 -0.00572150
v -0.00260000 0.00000000 -0.00299667
v -0.00334250 0.00000000 -0.00351657
v -0.00398343 0.00000000 -0.00415750
v -0.00177850 0.00000000 -0.00261360
v -0.00090297 0.00000000 -0.00237900
v 0.00000000 0.00000000 -0.00230000
v 0.00090297 0.00000000 -0.00237900
v 0.00177850 0.00000000 -0.00261360
v 0.00260000 0.00000000 -0.00299667
v -0.00520000 0.00000000 -0.00750000
v -0.00512100 0.00000000 -0.00659703
v -0.00488640 0.00000000 -0.00572150
v -0.00450333 0.00000000 -0.00490000
v -0.00398343 0.00000000 -0.01084250
v -0.00450333 0.00000000 -0.01010000
v -0.00488640 0.00000000 -0.00927851
v -0.00512100 0.00000000 -0.00840297
v -0.00000000 0.01165000 -0.03512180
v 0.00058662 0.01165000 -0.03517312
v 0.00115541 0.01165000 -0.03532553
v 0.00168910 0.01165000 -0.03557439
v 0.00217147 0.01165000 -0.03591215
v 0.00258785 0.01165000 -0.03632854
v 0.00292561 0.01165000 -0.03681090
v 0.00317447 0.01165000 -0.03734459
v 0.00332688 0.01165000 -0.03791338
v 0.00337820 0.01165000 -0.03850000
v 0.00332688 0.01165000 -0.03908662
v 0.00317447 0.01165000 -0.03965541
v 0.00292561 0.01165000 -0.04018910
v 0.00258785 0.01165000 -0.04067146
v 0.00217147 0.01165000 -0.04108785
v 0.00168910 0.01165000 -0.04142561
v 0.00115541 0.01165000 -0.04167447
v 0.00058662 0.01165000 -0.04182688
v 0.00000000 0.01165000 -0.04187820
v -0.00058662 0.01165000 -0.04182688
v -0.00115541 0.01165000 -0.04167447
v -0.00168910 0.01165000 -0.04142561
v -0.00217147 0.01165000 -0.04108785
v -0.00258785 0.01165000 -0.04067146
v -0.00292561 0.01165000 -0.04018910
v -0.00317447 0.01165000 -0.03965541
v -0.00332688 0.01165000 -0.03908662
v -0.00337820 0.01165000 -0.03850000
v -0.00332688 0.01165000 -0.03791338
v -0.00317447 0.01165000 -0.03734459
v -0.00292561 0.01165000 -0.03681090
v -0.00258785 0.01165000 -0.03632854
v -0.00217147 0.01165000 -0.03591215
v -0.00168910 0.01165000 -0.03557439
v -0.00115541 0.01165000 -0.03532553
v -0.00058662 0.01165000 -0.03517312
v 0.00190035 0.01165000 -0.03327884
v 0.00277813 0.01165000 -0.03368815
v 0.00357149 0.01165000 -0.03424366
v 0.00425633 0.01165000 -0.03492851
v 0.00481185 0.01165000 -0.03572187
v 0.00522117 0.01165000 -0.03659965
v 0.00547184 0.01165000 -0.03753517
v 0.00555625 0.01165000 -0.03850000
v 0.00547184 0.01165000 -0.03946483
v 0.00522117 0.01165000 -0.04040035
v 0.00481185 0.01165000 -0.04127812
v 0.00425633 0.01165000 -0.04207149
v 0.00357149 0.01165000 -0.04275633
v 0.00277813 0.01165000 -0.04331185
v 0.00190035 0.01165000 -0.04372116
v 0.00096483 0.01165000 -0.04397184
v 0.00000000 0.01165000 -0.04405625
v -0.00096483 0.01165000 -0.04397184
v -0.00190035 0.01165000 -0.04372116
v -0.00277813 0.01165000 -0.04331185
v -0.00357149 0.01165000 -0.04275633
v -0.00425633 0.01165000 -0.04207149
v -0.00481185 0.01165000 -0.04127812
v -0.00522117 0.01165000 -0.04040035
v -0.00547184 0.01165000 -0.03946483
v -0.00555625 0.01165000 -0.03850000
v -0.00547184 0.01165000 -0.03753517
v -0.00522117 0.01165000 -0.03659965
v -0.00481185 0.01165000 -0.03572187
v -0.00425633 0.01165000 -0.03492851
v -0.00357149 0.01165000 -0.03424366
v -0.00277813 0.01165000 -0.03368815
v -0.00190035 0.01165000 -0.03327884
v -0.00096483 0.01165000 -0.03302816
v -0.00000000 0.01165000 -0.03294375
v 0.00096483 0.01165000 -0.03302816
v -0.00000000 0.01736500 -0.03294375
v 0.00096483 0.01736500 -0.03302816
v 0.00190035 0.01736500 -0.03327884
v 0.00277813 0.01736500 -0.03368815
v 0.00357149 0.01736500 -0.03424366
v 0.00425633 0.01736500 -0.03492851
v 0.00481185 0.01736500 -0.03572187
v 0.00522117 0.01736500 -0.03659965
v 0.00547184 0.01736500 -0.03753517
v 0.00555625 0.01736500 -0.03850000
v 0.00547184 0.01736500 -0.03946483
v 0.00522117 0.01736500 -0.04040035
v 0.00481185 0.01736500 -0.04127812
v 0.00425633 0.01736500 -0.04207149
v 0.00357149 0.01736500 -0.04275633
v 0.00277813 0.01736500 -0.04331185
v 0.00190035 0.01736500 -0.04372116
v 0.00096483 0.01736500 -0.04397184
v 0.00000000 0.01736500 -0.04405625
v -0.00096483 0.01736500 -0.04397184
v -0.00190035 0.01736500 -0.04372116
v -0.00277813 0.01736500 -0.04331185
v -0.00357149 0.01736500 -0.04275633
v -0.00425633 0.01736500 -0.04207149
v -0.00481185 0.01736500 -0.04127812
v -0.00522117 0.01736500 -0.04040035
v -0.00547184 0.01736500 -0.03946483
v -0.00555625 0.01736500 -0.03850000
v -0.00547184 0.01736500 -0.03753517
v -0.00522117 0.01736500 -0.03659965
v -0.00481185 0.01736500 -0.03572187
v -0.00425633 0.01736500 -0.03492851
v -0.00357149 0.01736500 -0.03424366
v -0.00277813 0.01736500 -0.03368815
v -0.00190035 0.01736500 -0.03327884
v -0.00096483 0.01736500 -0.03302816
v -0.03850000 0.01165000 0.00337820
v -0.03791338 0.01165000 0.00332688
v -0.03734459 0.01165000 0.00317447
v -0.03681090 0.01165000 0.00292561
v -0.03632854 0.01165000 0.00258785
v -0.03591215 0.01165000 0.00217147
v -0.03557439 0.01165000 0.00168910
v -0.03532553 0.01165000 0.00115541
v -0.03517312 0.01165000 0.00058662
v -0.03512180 0.01165000 0.00000000
v -0.03517312 0.01165000 -0.00058662
v -0.03532553 0.01165000 -0.00115541
v -0.03557439 0.01165000 -0.00168910
v -0.03591215 0.01165000 -0.00217147
v -0.03632854 0.01165000 -0.00258785
v -0.03681090 0.01165000 -0.00292561
v -0.03734459 0.01165000 -0.00317447
v -0.03791338 0.01165000 -0.00332688
v -0.03850000 0.01165000 -0.00337820
v -0.03908662 0.01165000 -0.00332688
v -0.03965541 0.01165000 -0.00317447
v -0.04018910 0.01165000 -0.00292561
v -0.04067146 0.01165000 -0.00258785
v -0.04108785 0.01165000 -0.00217147
v -0.04142561 0.01165000 -0.00168910
v -0.04167447 0.01165000 -0.00115541
v -0.04182688 0.01165000 -0.00058662
v -0.04187820 0.01165000 0.00000000
v -0.04182688 0.01165000 0.00058662
v -0.04167447 0.01165000 0.00115541
v -0.04142561 0.01165000 0.00168910
v -0.04108785 0.01165000 0.00217147
v -0.04067146 0.01165000 0.00258785
v -0.04018910 0.01165000 0.00292561
v -0.03965541 0.01165000 0.00317447
v -0.03908662 0.01165000 0.00332688
v -0.03659965 0.01165000 0.00522117
v -0.03572187 0.01165000 0.00481185
v -0.03492851 0.01165000 0.00425633
v -0.03424366 0.01165000 0.00357149
v -0.03368815 0.01165000 0.00277813
v -0.03327884 0.01165000 0.00190035
v -0.03302816 0.01165000 0.00096483
v -0.03294375 0.01165000 0.00000000
v -0.03302816 0.01165000 -0.00096483
v -0.03327884 0.01165000 -0.00190035
v -0.03368815 0.01165000 -0.00277813
v -0.03424366 0.01165000 -0.00357149
v -0.03492851 0.01165000 -0.00425633
v -0.03572187 0.01165000 -0.00481185
v -0.03659965 0.01165000 -0.00522117
v -0.03753517 0.01165000 -0.00547184
v -0.03850000 0.01165000 -0.00555625
v -0.03946483 0.01165000 -0.00547184
v -0.04040035 0.01165000 -0.00522117
v -0.04127812 0.01165000 -0.00481185
v -0.04207149 0.01165000 -0.00425633
v -0.04275633 0.01165000 -0.00357149
v -0.04331185 0.01165000 -0.00277813
v -0.04372116 0.01165000 -0.00190035
v -0.04397184 0.01165000 -0.00096483
v -0.04405625 0.01165000 0.00000000
v -0.04397184 0.01165000 0.00096483
v -0.04372116 0.01165000 0.00190035
v -0.04331185 0.01165000 0.00277813
v -0.04275633 0.01165000 0.00357149
v -0.04207149 0.01165000 0.00425633
v -0.04127812 0.01165000 0.00481185
v -0.04040035 0.01165000 0.00522117
v -0.03946483 0.01165000 0.00547184
v -0.03850000 0.01165000 0.00555625
v -0.03753517 0.01165000 0.00547184
v -0.03850000 0.01736500 0.00555625
v -0.03753517 0.01736500 0.00547184
v -0.03659965 0.01736500 0.00522117
v -0.03572187 0.01736500 0.00481185
v -0.03492851 0.01736500 0.00425633
v -0.03424366 0.01736500 0.00357149
v -0.03368815 0.01736500 0.00277813
v -0.03327884 0.01736500 0.00190035
v -0.03302816 0.01736500 0.00096483
v -0.03294375 0.01736500 0.00000000
v -0.03302816 0.01736500 -0.00096483
v -0.03327884 0.01736500 -0.00190035
v -0.03368815 0.01736500 -0.00277813
v -0.03424366 0.01736500 -0.00357149
v -0.03492851 0.01736500 -0.00425633
v -0.03572187 0.01736500 -0.00481185
v -0.03659965 0.01736500 -0.00522117
v -0.03753517 0.01736500 -0.00547184
v -0.03850000 0.01736500 -0.00555625
v -0.03946483 0.01736500 -0.00547184
v -0.04040035 0.01736500 -0.00522117
v -0.04127812 0.01736500 -0.00481185
v -0.04207149 0.01736500 -0.00425633
v -0.04275633 0.01736500 -0.00357149
v -0.04331185 0.01736500 -0.00277813
v -0.04372116 0.01736500 -0.00190035
v -0.04397184 0.01736500 -0.00096483
v -0.04405625 0.01736500 0.00000000
v -0.04397184 0.01736500 0.00096483
v -0.04372116 0.01736500 0.00190035
v -0.04331185 0.01736500 0.00277813
v -0.04275633 0.01736500 0.00357149
v -0.04207149 0.01736500 0.00425633
v -0.04127812 0.01736500 0.00481185
v -0.04040035 0.01736500 0.00522117
v -0.03946483 0.01736500 0.00547184
v -0.00000000 0.01165000 0.04187820
v 0.00058662 0.01165000 0.04182688
v 0.00115541 0.01165000 0.04167447
v 0.00168910 0.01165000 0.04142561
v 0.00217147 0.01165000 0.04108785
v 0.00258785 0.01165000 0.04067146
v 0.00292561 0.01165000 0.04018910
v 0.00317447 0.01165000 0.03965541
v 0.00332688 0.01165000 0.03908662
v 0.00337820 0.01165000 0.03850000
v 0.00332688 0.01165000 0.03791338
v 0.00317447 0.01165000 0.03734459
v 0.00292561 0.01165000 0.03681090
v 0.00258785 0.01165000 0.03632854
v 0.00217147 0.01165000 0.03591215
v 0.00168910 0.01165000 0.03557439
v 0.00115541 0.01165000 0.03532553
v 0.00058662 0.01165000 0.03517312
v 0.00000000 0.01165000 0.03512180
v -0.00058662 0.01165000 0.03517312
v -0.00115541 0.01165000 0.03532553
v -0.00168910 0.01165000 0.03557439
v -0.00217147 0.01165000 0.03591215
v -0.00258785 0.01165000 0.03632854
v -0.00292561 0.01165000 0.03681090
v -0.00317447 0.01165000 0.03734459
v -0.00332688 0.01165000 0.03791338
v -0.00337820 0.01165000 0.03850000
v -0.00332688 0.01165000 0.03908662
v -0.00317447 0.01165000 0.03965541
v -0.00292561 0.01165000 0.04018910
v -0.00258785 0.01165000 0.04067146
v -0.00217147 0.01165000 0.04108785
v -0.00168910 0.01165000 0.04142561
v -0.00115541 0.01165000 0.04167447
v -0.00058662 0.01165000 0.04182688
v 0.00190035 0.01165000 0.04372116
v 0.00277813 0.01165000 0.04331185
v 0.00357149 0.01165000 0.04275633
v 0.00425633 0.01165000 0.04207149
v 0.00481185 0.01165000 0.04127812
v 0.00522117 0.01165000 0.04040035
v 0.00547184 0.01165000 0.03946483
v 0.00555625 0.01165000 0.03850000
v 0.00547184 0.01165000 0.03753517
v 0.00522117 0.01165000 0.03659965
v 0.00481185 0.01165000 0.03572187
v 0.00425633 0.01165000 0.03492851
v 0.00357149 0.01165000 0.03424366
v 0.00277813 0.01165000 0.03368815
v 0.00190035 0.01165000 0.03327884
v 0.00096483 0.01165000 0.03302816
v 0.00000000 0.01165000 0.03294375
v -0.00096483 0.01165000 0.03302816
v -0.00190035 0.01165000 0.03327884
v -0.00277813 0.01165000 0.03368815
v -0.00357149 0.01165000 0.03424366
v -0.00425633 0.01165000 0.03492851
v -0.00481185 0.01165000 0.03572187
v -0.00522117 0.01165000 0.03659965
v -0.00547184 0.01165000 0.03753517
v -0.00555625 0.01165000 0.03850000
v -0.00547184 0.01165000 0.03946483
v -0.00522117 0.01165000 0.04040035
v -0.00481185 0.01165000 0.04127812
v -0.00425633 0.01165000 0.04207149
v -0.00357149 0.01165000 0.04275633
v -0.00277813 0.01165000 0.04331185
v -0.00190035 0.01165000 0.04372116
v -0.00096483 0.01165000 0.04397184
v -0.00000000 0.01165000 0.04405625
v 0.00096483 0.01165000 0.04397184
v -0.00000000 0.01736500 0.04405625
v 0.00096483 0.01736500 0.04397184
v 0.00190035 0.01736500 0.04372116
v 0.00277813 0.01736500 0.04331185
v 0.00357149 0.01736500 0.04275633
v 0.00425633 0.01736500 0.04207149
v 0.00481185 0.01736500 0.04127812
v 0.00522117 0.01736500 0.04040035
v 0.00547184 0.01736500 0.03946483
v 0.00555625 0.01736500 0.03850000
v 0.00547184 0.01736500 0.03753517
v 0.00522117 0.01736500 0.03659965
v 0.00481185 0.01736500 0.03572187
v 0.00425633 0.01736500 0.03492851
v 0.00357149 0.01736500 0.03424366
v 0.00277813 0.01736500 0.03368815
v 0.00190035 0.01736500 0.03327884
v 0.00096483 0.01736500 0.03302816
v 0.00000000 0.01736500 0.03294375
v -0.00096483 0.01736500 0.03302816
v -0.00190035 0.01736500 0.03327884
v -0.00277813 0.01736500 0.03368815
v -0.00357149 0.01736500 0.03424366
v -0.00425633 0.01736500 0.03492851
v -0.00481185 0.01736500 0.03572187
v -0.00522117 0.01736500 0.03659965
v -0.00547184 0.01736500 0.03753517
v -0.00555625 0.01736500 0.03850000
v -0.00547184 0.01736500 0.03946483
v -0.00522117 0.01736500 0.04040035
v -0.00481185 0.01736500 0.04127812
v -0.00425633 0.01736500 0.04207149
v -0.00357149 0.01736500 0.04275633
v -0.00277813 0.01736500 0.04331185
v -0.00190035 0.01736500 0.04372116
v -0.00096483 0.01736500 0.04397184
v 0.03850000 0.01165000 0.00337820
v 0.03908662 0.01165000 0.00332688
v 0.03965541 0.01165000 0.00317447
v 0.04018910 0.01165000 0.00292561
v 0.04067146 0.01165000 0.00258785
v 0.04108785 0.01165000 0.00217147
v 0.04142561 0.01165000 0.00168910
v 0.04167447 0.01165000 0.00115541
v 0.04182688 0.01165000 0.00058662
v 0.04187820 0.01165000 -0.00000000
v 0.04182688 0.01165000 -0.00058662
v 0.04167447 0.01165000 -0.00115541
v 0.04142561 0.01165000 -0.00168910
v 0.04108785 0.01165000 -0.00217147
v 0.04067146 0.01165000 -0.00258785
v 0.04018910 0.01165000 -0.00292561
v 0.03965541 0.01165000 -0.00317447
v 0.03908662 0.01165000 -0.00332688
v 0.03850000 0.01165000 -0.00337820
v 0.03791338 0.01165000 -0.00332688
v 0.03734459 0.01165000 -0.00317447
v 0.03681090 0.01165000 -0.00292561
v 0.03632854 0.01165000 -0.00258785
v 0.03591215 0.01165000 -0.00217147
v 0.03557439 0.01165000 -0.00168910
v 0.03532553 0.01165000 -0.00115541
v 0.03517312 0.01165000 -0.00058662
v 0.03512180 0.01165000 -0.00000000
v 0.03517312 0.01165000 0.00058662
v 0.03532553 0.01165000 0.00115541
v 0.03557439 0.01165000 0.00168910
v 0.03591215 0.01165000 0.00217147
v 0.03632854 0.01165000 0.00258785
v 0.03681090 0.01165000 0.00292561
v 0.03734459 0.01165000 0.00317447
v 0.03791338 0.01165000 0.00332688
v 0.04040035 0.01165000 0.00522117
v 0.04127812 0.01165000 0.00481185
v 0.04207149 0.01165000 0.00425633
v 0.04275633 0.01165000 0.00357149
v 0.04331185 0.01165000 0.00277813
v 0.04372116 0.01165000 0.00190035
v 0.04397184 0.01165000 0.00096483
v 0.04405625 0.01165000 -0.00000000
v 0.04397184 0.01165000 -0.00096483
v 0.04372116 0.01165000 -0.00190035
v 0.04331185 0.01165000 -0.00277813
v 0.04275633 0.01165000 -0.00357149
v 0.04207149 0.01165000 -0.00425633
v 0.04127812 0.01165000 -0.00481185
v 0.04040035 0.01165000 -0.00522117
v 0.03946483 0.01165000 -0.00547184
v 0.03850000 0.01165000 -0.00555625
v 0.03753517 0.01165000 -0.00547184
v 0.03659965 0.01165000 -0.00522117
v 0.03572187 0.01165000 -0.00481185
v 0.03492851 0.01165000 -0.00425633
v 0.03424366 0.01165000 -0.00357149
v 0.03368815 0.01165000 -0.00277813
v 0.03327884 0.01165000 -0.00190035
v 0.03302816 0.01165000 -0.00096483
v 0.03294375 0.01165000 -0.00000000
v 0.03302816 0.01165000 0.00096483
v 0.03327884 0.01165000 0.00190035
v 0.03368815 0.01165000 0.00277813
v 0.03424366 0.01165000 0.00357149
v 0.03492851 0.01165000 0.00425633
v 0.03572187 0.01165000 0.00481185
v 0.03659965 0.01165000 0.00522117
v 0.03753517 0.01165000 0.00547184
v 0.03850000 0.01165000 0.00555625
v 0.03946483 0.01165000 0.00547184
v 0.03850000 0.01736500 0.00555625
v 0.03946483 0.01736500 0.00547184
v 0.04040035 0.01736500 0.00522117
v 0.04127812 0.01736500 0.00481185
v 0.04207149 0.01736500 0.00425633
v 0.04275633 0.01736500 0.00357149
v 0.04331185 0.01736500 0.00277813
v 0.04372116 0.01736500 0.00190035
v 0.04397184 0.01736500 0.00096483
v 0.04405625 0.01736500 -0.00000000
v 0.04397184 0.01736500 -0.00096483
v 0.04372116 0.01736500 -0.00190035
v 0.04331185 0.01736500 -0.00277813
v 0.04275633 0.01736500 -0.00357149
v 0.04207149 0.01736500 -0.00425633
v 0.04127812 0.01736500 -0.00481185
v 0.04040035 0.01736500 -0.00522117
v 0.03946483 0.01736500 -0.00547184
v 0.03850000 0.01736500 -0.00555625
v 0.03753517 0.01736500 -0.00547184
v 0.03659965 0.01736500 -0.00522117
v 0.03572187 0.01736500 -0.00481185
v 0.03492851 0.01736500 -0.00425633
v 0.03424366 0.01736500 -0.00357149
v 0.03368815 0.01736500 -0.00277813
v 0.03327884 0.01736500 -0.00190035
v 0.03302816 0.01736500 -0.00096483
v 0.03294375 0.01736500 -0.00000000
v 0.03302816 0.01736500 0.00096483
v 0.03327884 0.01736500 0.00190035
v 0.03368815 0.01736500 0.00277813
v 0.03424366 0.01736500 0.00357149
v 0.03492851 0.01736500 0.00425633
v 0.03572187 0.01736500 0.00481185
v 0.03659965 0.01736500 0.00522117
v 0.03753517 0.01736500 0.00547184
v -0.00000000 0.01245000 0.00475000
v 0.00047753 0.01245000 0.00479178
v 0.00094056 0.01245000 0.00491584
v 0.00137500 0.01245000 0.00511843
v 0.00176767 0.01245000 0.00539338
v 0.00210662 0.01245000 0.00573233
v 0.00238157 0.01245000 0.00612500
v 0.00258415 0.01245000 0.00655944
v 0.00270822 0.01245000 0.00702247
v 0.00275000 0.01245000 0.00750000
v 0.00270822 0.01245000 0.00797753
v 0.00258415 0.01245000 0.00844055
v 0.00238157 0.01245000 0.00887500
v 0.00210662 0.01245000 0.00926767
v 0.00176767 0.01245000 0.00960662
v 0.00137500 0.01245000 0.00988157
v 0.00094056 0.01245000 0.01008416
v 0.00047753 0.01245000 0.01020822
v 0.00000000 0.01245000 0.01025000
v -0.00047753 0.01245000 0.01020822
v -0.00094056 0.01245000 0.01008416
v -0.00137500 0.01245000 0.00988157
v -0.00176767 0.01245000 0.00960662
v -0.00210662 0.01245000 0.00926767
v -0.00238157 0.01245000 0.00887500
v -0.00258415 0.01245000 0.00844055
v -0.00270822 0.01245000 0.00797753
v -0.00275000 0.01245000 0.00750000
v -0.00270822 0.01245000 0.00702247
v -0.00258415 0.01245000 0.00655944
v -0.00238157 0.01245000 0.00612500
v -0.00210662 0.01245000 0.00573233
v -0.00176767 0.01245000 0.00539338
v -0.00137500 0.01245000 0.00511843
v -0.00094056 0.01245000 0.00491584
v -0.00047753 0.01245000 0.00479178
v 0.00090297 0.01000000 0.00237900
v 0.00177850 0.01000000 0.00261360
v 0.00260000 0.01000000 0.00299667
v 0.00334250 0.01000000 0.00351657
v 0.00398343 0.01000000 0.00415750
v 0.00450333 0.01000000 0.00490000
v 0.00488640 0.01000000 0.00572150
v 0.00512100 0.01000000 0.00659703
v 0.00520000 0.01000000 0.00750000
v 0.00512100 0.01000000 0.00840297
v 0.00488640 0.01000000 0.00927851
v 0.00450333 0.01000000 0.01010000
v 0.00398343 0.01000000 0.01084250
v 0.00334250 0.01000000 0.01148343
v 0.00260000 0.01000000 0.01200333
v 0.00177850 0.01000000 0.01238640
v 0.00090297 0.01000000 0.01262100
v 0.00000000 0.01000000 0.01270000
v -0.00090297 0.01000000 0.01262100
v -0.00177850 0.01000000 0.01238640
v -0.00260000 0.01000000 0.01200333
v -0.00334250 0.01000000 0.01148343
v -0.00398343 0.01000000 0.01084250
v -0.00450333 0.01000000 0.01010000
v -0.00488640 0.01000000 0.00927851
v -0.00512100 0.01000000 0.00840297
v -0.00520000 0.01000000 0.00750000
v -0.00512100 0.01000000 0.00659703
v -0.00488640 0.01000000 0.00572150
v -0.00450333 0.01000000 0.00490000
v -0.00398343 0.01000000 0.00415750
v -0.00334250 0.01000000 0.00351657
v -0.00260000 0.01000000 0.00299667
v -0.00177850 0.01000000 0.00261360
v -0.00090297 0.01000000 0.00237900
v 0.00000000 0.01000000 0.00230000
v -0.00000000 0.01245000 -0.01025000
v 0.00047753 0.01245000 -0.01020822
v 0.00094056 0.01245000 -0.01008416
v 0.00137500 0.01245000 -0.00988157
v 0.00176767 0.01245000 -0.00960662
v 0.00210662 0.01245000 -0.00926767
v 0.00238157 0.01245000 -0.00887500
v 0.00258415 0.01245000 -0.00844055
v 0.00270822 0.01245000 -0.00797753
v 0.00275000 0.01245000 -0.00750000
v 0.00270822 0.01245000 -0.00702247
v 0.00258415 0.01245000 -0.00655944
v 0.00238157 0.01245000 -0.00612500
v 0.00210662 0.01245000 -0.00573233
v 0.00176767 0.01245000 -0.00539338
v 0.00137500 0.01245000 -0.00511843
v 0.00094056 0.01245000 -0.00491584
v 0.00047753 0.01245000 -0.00479178
v 0.00000000 0.01245000 -0.00475000
v -0.00047753 0.01245000 -0.00479178
v -0.00094056 0.01245000 -0.00491584
v -0.00137500 0.01245000 -0.00511843
v -0.00176767 0.01245000 -0.00539338
v -0.00210662 0.01245000 -0.00573233
v -0.00238157 0.01245000 -0.00612500
v -0.00258415 0.01245000 -0.00655944
v -0.00270822 0.01245000 -0.00702247
v -0.00275000 0.01245000 -0.00750000
v -0.00270822 0.01245000 -0.00797753
v -0.00258415 0.01245000 -0.00844055
v -0.00238157 0.01245000 -0.00887500
v -0.00210662 0.01245000 -0.00926767
v -0.00176767 0.01245000 -0.00960662
v -0.00137500 0.01245000 -0.00988157
v -0.00094056 0.01245000 -0.01008416
v -0.00047753 0.01245000 -0.01020822
v 0.00090297 0.01000000 -0.01262100
v 0.00177850 0.01000000 -0.01238640
v 0.00260000 0.01000000 -0.01200333
v 0.00334250 0.01000000 -0.01148343
v 0.00398343 0.01000000 -0.01084250
v 0.00450333 0.01000000 -0.01010000
v 0.00488640 0.01000000 -0.00927851
v 0.00512100 0.01000000 -0.00840297
v 0.00520000 0.01000000 -0.00750000
v 0.00512100 0.01000000 -0.00659703
v 0.00488640 0.01000000 -0.00572150
v 0.00450333 0.01000000 -0.00490000
v 0.00398343 0.01000000 -0.00415750
v 0.00334250 0.01000000 -0.00351657
v 0.00260000 0.01000000 -0.00299667
v 0.00177850 0.01000000 -0.00261360
v 0.00090297 0.01000000 -0.00237900
v 0.00000000 0.01000000 -0.00230000
v -0.00090297 0.01000000 -0.00237900
v -0.00177850 0.01000000 -0.00261360
v -0.00260000 0.01000000 -0.00299667
v -0.00334250 0.01000000 -0.00351657
v -0.00398343 0.01000000 -0.00415750
v -0.00450333 0.01000000 -0.00490000
v -0.00488640 0.01000000 -0.00572150
v -0.00512100 0.01000000 -0.00659703
v -0.00520000 0.01000000 -0.00750000
v -0.00512100 0.01000000 -0.00840297
v -0.00488640 0.01000000 -0.00927851
v -0.00450333 0.01000000 -0.01010000
v -0.00398343 0.01000000 -0.01084250
v -0.00334250 0.01000000 -0.01148343
v -0.00260000 0.01000000 -0.01200333
v -0.00177850 0.01000000 -0.01238640
v -0.00090297 0.01000000 -0.01262100
v 0.00000000 0.01000000 -0.01270000
f 1 2 3
f 3 2 4
f 3 4 5
f 5 4 6
f 5 6 7
f 7 6 8
f 7 8 9
f 9 8 10
f 9 10 11
f 11 10 12
f 11 12 13
f 13 12 14
f 13 14 15
f 15 14 16
f 15 16 17
f 17 16 18
f 17 18 19
f 19 18 20
f 19 20 21
f 21 20 22
f 21 22 23
f 23 22 24
f 23 24 25
f 25 24 26
f 25 26 27
f 27 26 28
f 27 28 29
f 29 28 30
f 29 30 31
f 31 30 32
f 31 32 33
f 33 32 34
f 33 34 35
f 35 34 36
f 35 36 37
f 37 36 38
f 37 38 39
f 39 38 40
f 39 40 41
f 41 40 42
f 41 42 43
f 43 42 44
f 43 44 45
f 45 44 46
f 45 46 47
f 47 46 48
f 47 48 49
f 49 48 50
f 49 50 51
f 51 50 52
f 51 52 53
f 53 52 54
f 53 54 55
f 55 54 56
f 55 56 57
f 57 56 58
f 57 58 59
f 59 58 60
f 59 60 61
f 61 60 62
f 61 62 63
f 63 62 64
f 63 64 65
f 65 64 66
f 65 66 67
f 67 66 68
f 67 68 69
f 69 68 70
f 69 70 71
f 71 70 72
f 71 72 73
f 73 72 74
f 73 74 75
f 75 74 76
f 75 76 77
f 77 76 78
f 77 78 79
f 79 78 80
f 79 80 81
f 81 80 82
f 81 82 83
f 83 82 84
f 83 84 85
f 85 84 86
f 85 86 87
f 87 86 88
f 87 88 89
f 89 88 90
f 89 90 91
f 91 90 92
f 91 92 93
f 93 92 94
f 93 94 95
f 95 94 96
f 95 96 97
f 97 96 98
f 97 98 99
f 99 98 100
f 99 100 101
f 101 100 102
f 101 102 103
f 103 102 104
f 103 104 105
f 105 104 106
f 105 106 107
f 107 106 108
f 107 108 109
f 109 108 110
f 109 110 111
f 111 110 112
f 111 112 113
f 113 112 114
f 113 114 115
f 115 114 116
f 115 116 117
f 117 116 118
f 117 118 119
f 119 118 120
f 119 120 1
f 1 120 2
f 10 8 121
f 122 123 124
f 96 94 125
f 126 127 58
f 58 127 128
f 58 128 60
f 60 128 129
f 129 130 60
f 60 130 131
f 60 131 62
f 62 131 132
f 62 132 133
f 133 134 62
f 62 134 135
f 62 135 64
f 64 135 136
f 64 136 66
f 66 136 137
f 66 137 68
f 68 137 138
f 138 139 68
f 68 139 140
f 68 140 141
f 141 140 142
f 141 142 143
f 76 74 141
f 76 141 78
f 74 72 141
f 141 72 70
f 141 70 68
f 86 84 144
f 144 84 82
f 144 82 141
f 141 82 80
f 141 80 78
f 144 145 146
f 145 144 147
f 147 144 148
f 147 148 149
f 146 150 144
f 144 150 151
f 144 151 152
f 152 153 144
f 144 153 154
f 144 154 86
f 154 155 86
f 86 155 156
f 86 156 157
f 158 159 88
f 88 159 160
f 88 160 161
f 157 162 86
f 86 162 163
f 86 163 88
f 88 163 164
f 88 164 158
f 94 92 161
f 161 92 90
f 161 90 88
f 125 165 148
f 148 165 166
f 148 166 149
f 160 167 161
f 161 167 168
f 161 168 94
f 94 168 169
f 169 170 94
f 94 170 171
f 94 171 172
f 172 173 94
f 94 173 174
f 94 174 175
f 176 177 125
f 175 178 94
f 94 178 179
f 94 179 125
f 125 179 180
f 125 180 176
f 177 181 125
f 125 181 182
f 125 182 165
f 183 112 110
f 110 108 183
f 183 108 106
f 183 106 104
f 104 102 183
f 183 102 100
f 183 100 125
f 125 100 98
f 125 98 96
f 184 185 183
f 183 185 186
f 183 186 112
f 112 186 187
f 187 188 112
f 112 188 189
f 112 189 114
f 114 189 190
f 114 190 116
f 116 190 191
f 116 191 118
f 118 191 192
f 118 192 193
f 193 194 118
f 118 194 195
f 118 195 120
f 120 195 196
f 196 197 120
f 120 197 198
f 120 198 2
f 2 198 199
f 2 199 200
f 200 201 2
f 2 201 202
f 2 202 4
f 4 202 203
f 4 203 6
f 6 203 204
f 6 204 8
f 8 204 205
f 205 206 8
f 8 206 207
f 8 207 121
f 121 207 208
f 121 208 122
f 18 16 121
f 16 14 121
f 121 14 12
f 121 12 10
f 26 24 209
f 209 24 22
f 209 22 121
f 121 22 20
f 121 20 18
f 210 211 212
f 213 214 26
f 215 30 216
f 216 30 28
f 216 28 217
f 210 212 209
f 209 212 218
f 209 218 219
f 219 220 209
f 209 220 221
f 209 221 222
f 222 223 209
f 209 223 224
f 209 224 26
f 26 224 225
f 26 225 213
f 214 226 26
f 26 226 227
f 26 227 28
f 28 227 228
f 28 228 217
f 229 32 230
f 230 32 30
f 230 30 231
f 231 30 215
f 232 233 34
f 34 233 234
f 229 235 32
f 32 235 236
f 32 236 34
f 34 236 237
f 34 237 232
f 234 238 34
f 34 238 239
f 34 239 240
f 240 239 241
f 241 242 240
f 240 242 243
f 240 243 244
f 244 245 240
f 240 245 246
f 240 246 210
f 210 246 247
f 210 247 211
f 42 40 248
f 248 40 38
f 248 38 240
f 240 38 36
f 240 36 34
f 248 50 48
f 48 46 248
f 248 46 44
f 248 44 42
f 249 250 248
f 50 248 52
f 52 248 250
f 52 250 251
f 251 252 52
f 52 252 253
f 52 253 54
f 54 253 254
f 54 254 56
f 56 254 255
f 56 255 58
f 58 255 256
f 58 256 126
f 123 257 124
f 124 257 258
f 124 258 259
f 259 260 124
f 124 260 261
f 124 261 262
f 262 261 263
f 262 263 264
f 264 265 262
f 262 265 266
f 262 266 184
f 267 268 269
f 268 270 269
f 269 270 271
f 269 271 272
f 273 274 275
f 275 274 276
f 273 277 274
f 274 277 278
f 274 278 269
f 269 278 279
f 269 279 267
f 280 281 282
f 283 284 285
f 285 284 286
f 285 286 287
f 288 289 290
f 281 291 282
f 282 291 292
f 282 292 285
f 285 292 293
f 285 293 283
f 294 295 296
f 297 298 282
f 282 298 299
f 282 299 280
f 287 300 285
f 285 300 301
f 285 301 288
f 288 301 302
f 288 302 289
f 296 303 294
f 294 303 304
f 294 304 282
f 282 304 305
f 282 305 297
f 306 269 307
f 307 269 308
f 309 310 274
f 290 311 288
f 288 311 312
f 288 312 269
f 269 312 313
f 269 313 308
f 306 314 269
f 269 314 315
f 269 315 274
f 274 315 316
f 274 316 309
f 310 317 274
f 274 317 318
f 274 318 294
f 294 318 319
f 294 319 295
f 320 262 321
f 321 262 322
f 323 324 124
f 320 325 262
f 262 325 326
f 262 326 327
f 327 328 262
f 262 328 329
f 262 329 124
f 124 329 330
f 124 330 323
f 324 331 124
f 124 331 332
f 124 332 333
f 332 334 333
f 333 334 335
f 333 335 336
f 337 338 285
f 285 338 339
f 285 339 340
f 282 341 342
f 336 343 333
f 333 343 344
f 333 344 285
f 285 344 345
f 285 345 337
f 340 346 285
f 285 346 347
f 285 347 282
f 282 347 348
f 282 348 349
f 349 350 282
f 282 350 351
f 282 351 341
f 352 353 322
f 322 353 354
f 322 354 321
f 342 355 282
f 282 355 356
f 282 356 322
f 322 356 357
f 322 357 352
f 122 124 121
f 121 124 333
f 121 333 209
f 209 333 285
f 209 285 210
f 210 285 288
f 210 288 240
f 240 288 269
f 240 269 248
f 248 269 272
f 248 272 249
f 184 183 262
f 262 183 125
f 262 125 322
f 322 125 148
f 322 148 282
f 282 148 144
f 282 144 294
f 294 144 141
f 294 141 274
f 274 141 143
f 274 143 276
f 358 359 360
f 117 119 361
f 57 59 362
f 363 364 365
f 366 367 61
f 364 363 368
f 368 363 362
f 368 362 369
f 365 370 363
f 363 370 371
f 363 371 372
f 373 374 362
f 362 374 375
f 372 376 363
f 363 376 377
f 363 377 378
f 379 380 63
f 63 380 381
f 63 381 382
f 59 383 384
f 375 385 362
f 362 385 386
f 362 386 369
f 61 367 59
f 59 367 387
f 59 387 383
f 384 388 59
f 59 388 389
f 59 389 390
f 382 391 63
f 63 391 392
f 63 392 61
f 61 392 393
f 61 393 366
f 390 394 59
f 59 394 395
f 59 395 362
f 362 395 396
f 362 396 373
f 378 397 363
f 363 397 398
f 363 398 63
f 63 398 399
f 63 399 379
f 43 45 400
f 400 45 47
f 400 47 49
f 49 51 400
f 400 51 53
f 400 53 362
f 362 53 55
f 362 55 57
f 35 37 401
f 401 37 39
f 401 39 400
f 400 39 41
f 400 41 43
f 402 403 401
f 401 403 404
f 401 404 405
f 406 31 407
f 407 31 33
f 407 33 408
f 409 410 35
f 35 410 411
f 411 412 35
f 35 412 413
f 35 413 33
f 33 413 414
f 33 414 408
f 405 415 401
f 401 415 416
f 401 416 35
f 35 416 417
f 35 417 409
f 418 419 420
f 420 419 421
f 420 421 422
f 406 423 31
f 31 423 424
f 31 424 29
f 29 424 425
f 425 426 29
f 29 426 427
f 29 427 27
f 27 427 428
f 429 430 431
f 428 432 27
f 27 432 433
f 27 433 434
f 431 435 429
f 429 435 436
f 429 436 418
f 434 437 27
f 27 437 438
f 27 438 429
f 429 438 439
f 429 439 430
f 440 23 429
f 429 23 25
f 429 25 27
f 11 13 440
f 440 13 15
f 440 15 17
f 17 19 440
f 440 19 21
f 440 21 23
f 3 5 441
f 441 5 7
f 441 7 440
f 440 7 9
f 440 9 11
f 1 442 443
f 119 444 445
f 1 443 119
f 119 443 446
f 119 446 444
f 447 448 361
f 449 441 450
f 450 441 361
f 445 451 119
f 119 451 452
f 119 452 453
f 448 454 361
f 361 454 455
f 361 455 456
f 449 457 441
f 441 457 458
f 441 458 459
f 460 461 3
f 3 461 462
f 3 462 463
f 463 464 3
f 3 464 465
f 3 465 1
f 1 465 466
f 1 466 442
f 456 467 361
f 361 467 468
f 361 468 450
f 459 469 441
f 441 469 470
f 441 470 471
f 453 472 119
f 119 472 473
f 119 473 361
f 361 473 474
f 361 474 447
f 471 475 441
f 441 475 476
f 441 476 3
f 3 476 477
f 3 477 460
f 109 111 478
f 478 111 113
f 478 113 361
f 361 113 115
f 361 115 117
f 478 101 103
f 103 105 478
f 478 105 107
f 478 107 109
f 101 478 99
f 99 478 479
f 99 479 97
f 97 479 480
f 97 480 95
f 95 480 93
f 93 480 360
f 93 360 91
f 481 87 360
f 360 87 89
f 360 89 91
f 71 73 482
f 482 73 75
f 482 75 77
f 77 79 482
f 482 79 81
f 482 81 483
f 483 81 83
f 483 83 481
f 481 83 85
f 481 85 87
f 63 65 363
f 363 65 67
f 363 67 482
f 482 67 69
f 482 69 71
f 484 485 481
f 359 486 360
f 360 486 487
f 360 487 481
f 481 487 488
f 481 488 484
f 483 489 490
f 483 490 491
f 492 493 483
f 483 493 494
f 483 494 489
f 485 495 481
f 481 495 496
f 481 496 497
f 497 498 481
f 481 498 499
f 481 499 483
f 483 499 500
f 483 500 492
f 490 501 491
f 491 501 502
f 491 502 503
f 504 505 479
f 479 505 506
f 479 506 507
f 508 509 480
f 509 510 480
f 480 510 511
f 480 511 512
f 507 513 479
f 479 513 514
f 479 514 480
f 480 514 515
f 480 515 508
f 512 516 480
f 480 516 517
f 480 517 360
f 360 517 518
f 360 518 358
f 519 520 521
f 521 520 522
f 521 522 523
f 523 524 521
f 521 524 525
f 521 525 526
f 526 525 527
f 527 528 526
f 526 528 529
f 526 529 530
f 531 420 401
f 401 420 422
f 401 422 402
f 531 532 420
f 420 532 533
f 420 533 521
f 521 533 534
f 521 534 519
f 362 535 400
f 400 535 536
f 400 536 401
f 401 536 537
f 401 537 531
f 538 539 363
f 363 539 540
f 363 540 541
f 362 542 543
f 543 544 362
f 362 544 545
f 362 545 535
f 541 546 363
f 363 546 547
f 363 547 362
f 362 547 548
f 362 548 542
f 483 549 482
f 482 549 550
f 482 550 363
f 363 550 551
f 363 551 538
f 530 552 526
f 526 552 553
f 526 553 491
f 553 554 491
f 491 554 555
f 491 555 483
f 483 555 556
f 483 556 549
f 441 557 558
f 559 361 560
f 560 361 561
f 558 562 441
f 441 562 563
f 441 563 564
f 564 565 441
f 441 565 566
f 441 566 361
f 361 566 567
f 361 567 561
f 557 441 568
f 568 441 440
f 568 440 569
f 569 440 429
f 569 429 570
f 418 420 429
f 429 420 571
f 429 571 570
f 572 573 521
f 521 573 574
f 521 574 420
f 420 574 575
f 420 575 571
f 576 526 577
f 577 526 578
f 576 579 526
f 526 579 580
f 526 580 521
f 521 580 581
f 521 581 582
f 582 583 521
f 521 583 584
f 521 584 572
f 585 491 479
f 479 491 503
f 479 503 504
f 585 586 491
f 491 586 587
f 491 587 526
f 526 587 588
f 526 588 578
f 559 589 361
f 361 589 590
f 361 590 478
f 478 590 591
f 478 591 479
f 479 591 592
f 479 592 585
f 450 593 449
f 449 593 594
f 449 594 457
f 457 594 595
f 457 595 458
f 458 595 596
f 458 596 459
f 459 596 597
f 459 597 469
f 469 597 598
f 469 598 470
f 470 598 599
f 470 599 471
f 471 599 600
f 471 600 475
f 475 600 601
f 475 601 476
f 476 601 602
f 476 602 477
f 477 602 603
f 477 603 460
f 460 603 604
f 460 604 461
f 461 604 605
f 461 605 462
f 462 605 606
f 462 606 463
f 463 606 607
f 463 607 464
f 464 607 608
f 464 608 465
f 465 608 609
f 465 609 466
f 466 609 610
f 466 610 442
f 442 610 611
f 442 611 443
f 443 611 612
f 443 612 446
f 446 612 613
f 446 613 444
f 444 613 614
f 444 614 445
f 445 614 615
f 445 615 451
f 451 615 616
f 451 616 452
f 452 616 617
f 452 617 453
f 453 617 618
f 453 618 472
f 472 618 619
f 472 619 473
f 473 619 620
f 473 620 474
f 474 620 621
f 474 621 447
f 447 621 622
f 447 622 448
f 448 622 623
f 448 623 454
f 454 623 624
f 454 624 455
f 455 624 625
f 455 625 456
f 456 625 626
f 456 626 467
f 467 626 627
f 467 627 468
f 468 627 628
f 468 628 450
f 450 628 593
f 595 629 596
f 596 629 630
f 596 630 597
f 597 630 631
f 597 631 598
f 598 631 632
f 598 632 599
f 599 632 633
f 599 633 600
f 600 633 634
f 600 634 601
f 601 634 635
f 601 635 602
f 602 635 636
f 602 636 603
f 603 636 637
f 603 637 604
f 604 637 638
f 604 638 605
f 605 638 639
f 605 639 606
f 606 639 640
f 606 640 607
f 607 640 641
f 607 641 608
f 608 641 642
f 608 642 609
f 609 642 643
f 609 643 610
f 610 643 644
f 610 644 611
f 611 644 645
f 611 645 612
f 612 645 646
f 612 646 613
f 613 646 647
f 613 647 614
f 614 647 648
f 614 648 615
f 615 648 649
f 615 649 616
f 616 649 650
f 616 650 617
f 617 650 651
f 617 651 618
f 618 651 652
f 618 652 619
f 619 652 653
f 619 653 620
f 620 653 654
f 620 654 621
f 621 654 655
f 621 655 622
f 622 655 656
f 622 656 623
f 623 656 657
f 623 657 624
f 624 657 658
f 624 658 625
f 625 658 659
f 625 659 626
f 626 659 660
f 626 660 627
f 627 660 661
f 627 661 628
f 628 661 662
f 628 662 593
f 593 662 663
f 593 663 594
f 594 663 664
f 594 664 595
f 595 664 629
f 663 665 664
f 664 665 666
f 664 666 629
f 629 666 667
f 629 667 630
f 630 667 668
f 630 668 631
f 631 668 669
f 631 669 632
f 632 669 670
f 632 670 633
f 633 670 671
f 633 671 634
f 634 671 672
f 634 672 635
f 635 672 673
f 635 673 636
f 636 673 674
f 636 674 637
f 637 674 675
f 637 675 638
f 638 675 676
f 638 676 639
f 639 676 677
f 639 677 640
f 640 677 678
f 640 678 641
f 641 678 679
f 641 679 642
f 642 679 680
f 642 680 643
f 643 680 681
f 643 681 644
f 644 681 682
f 644 682 645
f 645 682 683
f 645 683 646
f 646 683 684
f 646 684 647
f 647 684 685
f 647 685 648
f 648 685 686
f 648 686 649
f 649 686 687
f 649 687 650
f 650 687 688
f 650 688 651
f 651 688 689
f 651 689 652
f 652 689 690
f 652 690 653
f 653 690 691
f 653 691 654
f 654 691 692
f 654 692 655
f 655 692 693
f 655 693 656
f 656 693 694
f 656 694 657
f 657 694 695
f 657 695 658
f 658 695 696
f 658 696 659
f 659 696 697
f 659 697 660
f 660 697 698
f 660 698 661
f 661 698 699
f 661 699 662
f 662 699 700
f 662 700 663
f 663 700 665
f 666 260 667
f 667 260 259
f 667 259 668
f 668 259 258
f 668 258 669
f 669 258 257
f 669 257 670
f 670 257 123
f 670 123 671
f 671 123 122
f 671 122 672
f 672 122 208
f 672 208 673
f 673 208 207
f 673 207 674
f 674 207 206
f 674 206 675
f 675 206 205
f 675 205 676
f 676 205 204
f 676 204 677
f 677 204 203
f 677 203 678
f 678 203 202
f 678 202 679
f 679 202 201
f 679 201 680
f 680 201 200
f 680 200 681
f 681 200 199
f 681 199 682
f 682 199 198
f 682 198 683
f 683 198 197
f 683 197 684
f 684 197 196
f 684 196 685
f 685 196 195
f 685 195 686
f 686 195 194
f 686 194 687
f 687 194 193
f 687 193 688
f 688 193 192
f 688 192 689
f 689 192 191
f 689 191 690
f 690 191 190
f 690 190 691
f 691 190 189
f 691 189 692
f 692 189 188
f 692 188 693
f 693 188 187
f 693 187 694
f 694 187 186
f 694 186 695
f 695 186 185
f 695 185 696
f 696 185 184
f 696 184 697
f 697 184 266
f 697 266 698
f 698 266 265
f 698 265 699
f 699 265 264
f 699 264 700
f 700 264 263
f 700 263 665
f 665 263 261
f 665 261 666
f 666 261 260
f 498 701 499
f 499 701 702
f 499 702 500
f 500 702 703
f 500 703 492
f 492 703 704
f 492 704 493
f 493 704 705
f 493 705 494
f 494 705 706
f 494 706 489
f 489 706 707
f 489 707 490
f 490 707 708
f 490 708 501
f 501 708 709
f 501 709 502
f 502 709 710
f 502 710 503
f 503 710 711
f 503 711 504
f 504 711 712
f 504 712 505
f 505 712 713
f 505 713 506
f 506 713 714
f 506 714 507
f 507 714 715
f 507 715 513
f 513 715 716
f 513 716 514
f 514 716 717
f 514 717 515
f 515 717 718
f 515 718 508
f 508 718 719
f 508 719 509
f 509 719 720
f 509 720 510
f 510 720 721
f 510 721 511
f 511 721 722
f 511 722 512
f 512 722 723
f 512 723 516
f 516 723 724
f 516 724 517
f 517 724 725
f 517 725 518
f 518 725 726
f 518 726 358
f 358 726 727
f 358 727 359
f 359 727 728
f 359 728 486
f 486 728 729
f 486 729 487
f 487 729 730
f 487 730 488
f 488 730 731
f 488 731 484
f 484 731 732
f 484 732 485
f 485 732 733
f 485 733 495
f 495 733 734
f 495 734 496
f 496 734 735
f 496 735 497
f 497 735 736
f 497 736 498
f 498 736 701
f 703 737 704
f 704 737 738
f 704 738 705
f 705 738 739
f 705 739 706
f 706 739 740
f 706 740 707
f 707 740 741
f 707 741 708
f 708 741 742
f 708 742 709
f 709 742 743
f 709 743 710
f 710 743 744
f 710 744 711
f 711 744 745
f 711 745 712
f 712 745 746
f 712 746 713
f 713 746 747
f 713 747 714
f 714 747 748
f 714 748 715
f 715 748 749
f 715 749 716
f 716 749 750
f 716 750 717
f 717 750 751
f 717 751 718
f 718 751 752
f 718 752 719
f 719 752 753
f 719 753 720
f 720 753 754
f 720 754 721
f 721 754 755
f 721 755 722
f 722 755 756
f 722 756 723
f 723 756 757
f 723 757 724
f 724 757 758
f 724 758 725
f 725 758 759
f 725 759 726
f 726 759 760
f 726 760 727
f 727 760 761
f 727 761 728
f 728 761 762
f 728 762 729
f 729 762 763
f 729 763 730
f 730 763 764
f 730 764 731
f 731 764 765
f 731 765 732
f 732 765 766
f 732 766 733
f 733 766 767
f 733 767 734
f 734 767 768
f 734 768 735
f 735 768 769
f 735 769 736
f 736 769 770
f 736 770 701
f 701 770 771
f 701 771 702
f 702 771 772
f 702 772 703
f 703 772 737
f 771 773 772
f 772 773 774
f 772 774 737
f 737 774 775
f 737 775 738
f 738 775 776
f 738 776 739
f 739 776 777
f 739 777 740
f 740 777 778
f 740 778 741
f 741 778 779
f 741 779 742
f 742 779 780
f 742 780 743
f 743 780 781
f 743 781 744
f 744 781 782
f 744 782 745
f 745 782 783
f 745 783 746
f 746 783 784
f 746 784 747
f 747 784 785
f 747 785 748
f 748 785 786
f 748 786 749
f 749 786 787
f 749 787 750
f 750 787 788
f 750 788 751
f 751 788 789
f 751 789 752
f 752 789 790
f 752 790 753
f 753 790 791
f 753 791 754
f 754 791 792
f 754 792 755
f 755 792 793
f 755 793 756
f 756 793 794
f 756 794 757
f 757 794 795
f 757 795 758
f 758 795 796
f 758 796 759
f 759 796 797
f 759 797 760
f 760 797 798
f 760 798 761
f 761 798 799
f 761 799 762
f 762 799 800
f 762 800 763
f 763 800 801
f 763 801 764
f 764 801 802
f 764 802 765
f 765 802 803
f 765 803 766
f 766 803 804
f 766 804 767
f 767 804 805
f 767 805 768
f 768 805 806
f 768 806 769
f 769 806 807
f 769 807 770
f 770 807 808
f 770 808 771
f 771 808 773
f 774 154 775
f 775 154 153
f 775 153 776
f 776 153 152
f 776 152 777
f 777 152 151
f 777 151 778
f 778 151 150
f 778 150 779
f 779 150 146
f 779 146 780
f 780 146 145
f 780 145 781
f 781 145 147
f 781 147 782
f 782 147 149
f 782 149 783
f 783 149 166
f 783 166 784
f 784 166 165
f 784 165 785
f 785 165 182
f 785 182 786
f 786 182 181
f 786 181 787
f 787 181 177
f 787 177 788
f 788 177 176
f 788 176 789
f 789 176 180
f 789 180 790
f 790 180 179
f 790 179 791
f 791 179 178
f 791 178 792
f 792 178 175
f 792 175 793
f 793 175 174
f 793 174 794
f 794 174 173
f 794 173 795
f 795 173 172
f 795 172 796
f 796 172 171
f 796 171 797
f 797 171 170
f 797 170 798
f 798 170 169
f 798 169 799
f 799 169 168
f 799 168 800
f 800 168 167
f 800 167 801
f 801 167 160
f 801 160 802
f 802 160 159
f 802 159 803
f 803 159 158
f 803 158 804
f 804 158 164
f 804 164 805
f 805 164 163
f 805 163 806
f 806 163 162
f 806 162 807
f 807 162 157
f 807 157 808
f 808 157 156
f 808 156 773
f 773 156 155
f 773 155 774
f 774 155 154
f 366 809 367
f 367 809 810
f 367 810 387
f 387 810 811
f 387 811 383
f 383 811 812
f 383 812 384
f 384 812 813
f 384 813 388
f 388 813 814
f 388 814 389
f 389 814 815
f 389 815 390
f 390 815 816
f 390 816 394
f 394 816 817
f 394 817 395
f 395 817 818
f 395 818 396
f 396 818 819
f 396 819 373
f 373 819 820
f 373 820 374
f 374 820 821
f 374 821 375
f 375 821 822
f 375 822 385
f 385 822 823
f 385 823 386
f 386 823 824
f 386 824 369
f 369 824 825
f 369 825 368
f 368 825 826
f 368 826 364
f 364 826 827
f 364 827 365
f 365 827 828
f 365 828 370
f 370 828 829
f 370 829 371
f 371 829 830
f 371 830 372
f 372 830 831
f 372 831 376
f 376 831 832
f 376 832 377
f 377 832 833
f 377 833 378
f 378 833 834
f 378 834 397
f 397 834 835
f 397 835 398
f 398 835 836
f 398 836 399
f 399 836 837
f 399 837 379
f 379 837 838
f 379 838 380
f 380 838 839
f 380 839 381
f 381 839 840
f 381 840 382
f 382 840 841
f 382 841 391
f 391 841 842
f 391 842 392
f 392 842 843
f 392 843 393
f 393 843 844
f 393 844 366
f 366 844 809
f 811 845 812
f 812 845 846
f 812 846 813
f 813 846 847
f 813 847 814
f 814 847 848
f 814 848 815
f 815 848 849
f 815 849 816
f 816 849 850
f 816 850 817
f 817 850 851
f 817 851 818
f 818 851 852
f 818 852 819
f 819 852 853
f 819 853 820
f 820 853 854
f 820 854 821
f 821 854 855
f 821 855 822
f 822 855 856
f 822 856 823
f 823 856 857
f 823 857 824
f 824 857 858
f 824 858 825
f 825 858 859
f 825 859 826
f 826 859 860
f 826 860 827
f 827 860 861
f 827 861 828
f 828 861 862
f 828 862 829
f 829 862 863
f 829 863 830
f 830 863 864
f 830 864 831
f 831 864 865
f 831 865 832
f 832 865 866
f 832 866 833
f 833 866 867
f 833 867 834
f 834 867 868
f 834 868 835
f 835 868 869
f 835 869 836
f 836 869 870
f 836 870 837
f 837 870 871
f 837 871 838
f 838 871 872
f 838 872 839
f 839 872 873
f 839 873 840
f 840 873 874
f 840 874 841
f 841 874 875
f 841 875 842
f 842 875 876
f 842 876 843
f 843 876 877
f 843 877 844
f 844 877 878
f 844 878 809
f 809 878 879
f 809 879 810
f 810 879 880
f 810 880 811
f 811 880 845
f 879 881 880
f 880 881 882
f 880 882 845
f 845 882 883
f 845 883 846
f 846 883 884
f 846 884 847
f 847 884 885
f 847 885 848
f 848 885 886
f 848 886 849
f 849 886 887
f 849 887 850
f 850 887 888
f 850 888 851
f 851 888 889
f 851 889 852
f 852 889 890
f 852 890 853
f 853 890 891
f 853 891 854
f 854 891 892
f 854 892 855
f 855 892 893
f 855 893 856
f 856 893 894
f 856 894 857
f 857 894 895
f 857 895 858
f 858 895 896
f 858 896 859
f 859 896 897
f 859 897 860
f 860 897 898
f 860 898 861
f 861 898 899
f 861 899 862
f 862 899 900
f 862 900 863
f 863 900 901
f 863 901 864
f 864 901 902
f 864 902 865
f 865 902 903
f 865 903 866
f 866 903 904
f 866 904 867
f 867 904 905
f 867 905 868
f 868 905 906
f 868 906 869
f 869 906 907
f 869 907 870
f 870 907 908
f 870 908 871
f 871 908 909
f 871 909 872
f 872 909 910
f 872 910 873
f 873 910 911
f 873 911 874
f 874 911 912
f 874 912 875
f 875 912 913
f 875 913 876
f 876 913 914
f 876 914 877
f 877 914 915
f 877 915 878
f 878 915 916
f 878 916 879
f 879 916 881
f 882 129 883
f 883 129 128
f 883 128 884
f 884 128 127
f 884 127 885
f 885 127 126
f 885 126 886
f 886 126 256
f 886 256 887
f 887 256 255
f 887 255 888
f 888 255 254
f 888 254 889
f 889 254 253
f 889 253 890
f 890 253 252
f 890 252 891
f 891 252 251
f 891 251 892
f 892 251 250
f 892 250 893
f 893 250 249
f 893 249 894
f 894 249 272
f 894 272 895
f 895 272 271
f 895 271 896
f 896 271 270
f 896 270 897
f 897 270 268
f 897 268 898
f 898 268 267
f 898 267 899
f 899 267 279
f 899 279 900
f 900 279 278
f 900 278 901
f 901 278 277
f 901 277 902
f 902 277 273
f 902 273 903
f 903 273 275
f 903 275 904
f 904 275 276
f 904 276 905
f 905 276 143
f 905 143 906
f 906 143 142
f 906 142 907
f 907 142 140
f 907 140 908
f 908 140 139
f 908 139 909
f 909 139 138
f 909 138 910
f 910 138 137
f 910 137 911
f 911 137 136
f 911 136 912
f 912 136 135
f 912 135 913
f 913 135 134
f 913 134 914
f 914 134 133
f 914 133 915
f 915 133 132
f 915 132 916
f 916 132 131
f 916 131 881
f 881 131 130
f 881 130 882
f 882 130 129
f 409 917 410
f 410 917 918
f 410 918 411
f 411 918 919
f 411 919 412
f 412 919 920
f 412 920 413
f 413 920 921
f 413 921 414
f 414 921 922
f 414 922 408
f 408 922 923
f 408 923 407
f 407 923 924
f 407 924 406
f 406 924 925
f 406 925 423
f 423 925 926
f 423 926 424
f 424 926 927
f 424 927 425
f 425 927 928
f 425 928 426
f 426 928 929
f 426 929 427
f 427 929 930
f 427 930 428
f 428 930 931
f 428 931 432
f 432 931 932
f 432 932 433
f 433 932 933
f 433 933 434
f 434 933 934
f 434 934 437
f 437 934 935
f 437 935 438
f 438 935 936
f 438 936 439
f 439 936 937
f 439 937 430
f 430 937 938
f 430 938 431
f 431 938 939
f 431 939 435
f 435 939 940
f 435 940 436
f 436 940 941
f 436 941 418
f 418 941 942
f 418 942 419
f 419 942 943
f 419 943 421
f 421 943 944
f 421 944 422
f 422 944 945
f 422 945 402
f 402 945 946
f 402 946 403
f 403 946 947
f 403 947 404
f 404 947 948
f 404 948 405
f 405 948 949
f 405 949 415
f 415 949 950
f 415 950 416
f 416 950 951
f 416 951 417
f 417 951 952
f 417 952 409
f 409 952 917
f 919 953 920
f 920 953 954
f 920 954 921
f 921 954 955
f 921 955 922
f 922 955 956
f 922 956 923
f 923 956 957
f 923 957 924
f 924 957 958
f 924 958 925
f 925 958 959
f 925 959 926
f 926 959 960
f 926 960 927
f 927 960 961
f 927 961 928
f 928 961 962
f 928 962 929
f 929 962 963
f 929 963 930
f 930 963 964
f 930 964 931
f 931 964 965
f 931 965 932
f 932 965 966
f 932 966 933
f 933 966 967
f 933 967 934
f 934 967 968
f 934 968 935
f 935 968 969
f 935 969 936
f 936 969 970
f 936 970 937
f 937 970 971
f 937 971 938
f 938 971 972
f 938 972 939
f 939 972 973
f 939 973 940
f 940 973 974
f 940 974 941
f 941 974 975
f 941 975 942
f 942 975 976
f 942 976 943
f 943 976 977
f 943 977 944
f 944 977 978
f 944 978 945
f 945 978 979
f 945 979 946
f 946 979 980
f 946 980 947
f 947 980 981
f 947 981 948
f 948 981 982
f 948 982 949
f 949 982 983
f 949 983 950
f 950 983 984
f 950 984 951
f 951 984 985
f 951 985 952
f 952 985 986
f 952 986 917
f 917 986 987
f 917 987 918
f 918 987 988
f 918 988 919
f 919 988 953
f 987 989 988
f 988 989 990
f 988 990 953
f 953 990 991
f 953 991 954
f 954 991 992
f 954 992 955
f 955 992 993
f 955 993 956
f 956 993 994
f 956 994 957
f 957 994 995
f 957 995 958
f 958 995 996
f 958 996 959
f 959 996 997
f 959 997 960
f 960 997 998
f 960 998 961
f 961 998 999
f 961 999 962
f 962 999 1000
f 962 1000 963
f 963 1000 1001
f 963 1001 964
f 964 1001 1002
f 964 1002 965
f 965 1002 1003
f 965 1003 966
f 966 1003 1004
f 966 1004 967
f 967 1004 1005
f 967 1005 968
f 968 1005 1006
f 968 1006 969
f 969 1006 1007
f 969 1007 970
f 970 1007 1008
f 970 1008 971
f 971 1008 1009
f 971 1009 972
f 972 1009 1010
f 972 1010 973
f 973 1010 1011
f 973 1011 974
f 974 1011 1012
f 974 1012 975
f 975 1012 1013
f 975 1013 976
f 976 1013 1014
f 976 1014 977
f 977 1014 1015
f 977 1015 978
f 978 1015 1016
f 978 1016 979
f 979 1016 1017
f 979 1017 980
f 980 1017 1018
f 980 1018 981
f 981 1018 1019
f 981 1019 982
f 982 1019 1020
f 982 1020 983
f 983 1020 1021
f 983 1021 984
f 984 1021 1022
f 984 1022 985
f 985 1022 1023
f 985 1023 986
f 986 1023 1024
f 986 1024 987
f 987 1024 989
f 990 234 991
f 991 234 233
f 991 233 992
f 992 233 232
f 992 232 993
f 993 232 237
f 993 237 994
f 994 237 236
f 994 236 995
f 995 236 235
f 995 235 996
f 996 235 229
f 996 229 997
f 997 229 230
f 997 230 998
f 998 230 231
f 998 231 999
f 999 231 215
f 999 215 1000
f 1000 215 216
f 1000 216 1001
f 1001 216 217
f 1001 217 1002
f 1002 217 228
f 1002 228 1003
f 1003 228 227
f 1003 227 1004
f 1004 227 226
f 1004 226 1005
f 1005 226 214
f 1005 214 1006
f 1006 214 213
f 1006 213 1007
f 1007 213 225
f 1007 225 1008
f 1008 225 224
f 1008 224 1009
f 1009 224 223
f 1009 223 1010
f 1010 223 222
f 1010 222 1011
f 1011 222 221
f 1011 221 1012
f 1012 221 220
f 1012 220 1013
f 1013 220 219
f 1013 219 1014
f 1014 219 218
f 1014 218 1015
f 1015 218 212
f 1015 212 1016
f 1016 212 211
f 1016 211 1017
f 1017 211 247
f 1017 247 1018
f 1018 247 246
f 1018 246 1019
f 1019 246 245
f 1019 245 1020
f 1020 245 244
f 1020 244 1021
f 1021 244 243
f 1021 243 1022
f 1022 243 242
f 1022 242 1023
f 1023 242 241
f 1023 241 1024
f 1024 241 239
f 1024 239 989
f 989 239 238
f 989 238 990
f 990 238 234
f 292 1025 293
f 293 1025 1026
f 293 1026 283
f 283 1026 1027
f 283 1027 284
f 284 1027 1028
f 284 1028 286
f 286 1028 1029
f 286 1029 287
f 287 1029 1030
f 287 1030 300
f 300 1030 1031
f 300 1031 301
f 301 1031 1032
f 301 1032 302
f 302 1032 1033
f 302 1033 289
f 289 1033 1034
f 289 1034 290
f 290 1034 1035
f 290 1035 311
f 311 1035 1036
f 311 1036 312
f 312 1036 1037
f 312 1037 313
f 313 1037 1038
f 313 1038 308
f 308 1038 1039
f 308 1039 307
f 307 1039 1040
f 307 1040 306
f 306 1040 1041
f 306 1041 314
f 314 1041 1042
f 314 1042 315
f 315 1042 1043
f 315 1043 316
f 316 1043 1044
f 316 1044 309
f 309 1044 1045
f 309 1045 310
f 310 1045 1046
f 310 1046 317
f 317 1046 1047
f 317 1047 318
f 318 1047 1048
f 318 1048 319
f 319 1048 1049
f 319 1049 295
f 295 1049 1050
f 295 1050 296
f 296 1050 1051
f 296 1051 303
f 303 1051 1052
f 303 1052 304
f 304 1052 1053
f 304 1053 305
f 305 1053 1054
f 305 1054 297
f 297 1054 1055
f 297 1055 298
f 298 1055 1056
f 298 1056 299
f 299 1056 1057
f 299 1057 280
f 280 1057 1058
f 280 1058 281
f 281 1058 1059
f 281 1059 291
f 291 1059 1060
f 291 1060 292
f 292 1060 1025
f 1026 1061 1027
f 1027 1061 1062
f 1027 1062 1028
f 1028 1062 1063
f 1028 1063 1029
f 1029 1063 1064
f 1029 1064 1030
f 1030 1064 1065
f 1030 1065 1031
f 1031 1065 1066
f 1031 1066 1032
f 1032 1066 1067
f 1032 1067 1033
f 1033 1067 1068
f 1033 1068 1034
f 1034 1068 1069
f 1034 1069 1035
f 1035 1069 1070
f 1035 1070 1036
f 1036 1070 1071
f 1036 1071 1037
f 1037 1071 1072
f 1037 1072 1038
f 1038 1072 1073
f 1038 1073 1039
f 1039 1073 1074
f 1039 1074 1040
f 1040 1074 1075
f 1040 1075 1041
f 1041 1075 1076
f 1041 1076 1042
f 1042 1076 1077
f 1042 1077 1043
f 1043 1077 1078
f 1043 1078 1044
f 1044 1078 1079
f 1044 1079 1045
f 1045 1079 1080
f 1045 1080 1046
f 1046 1080 1081
f 1046 1081 1047
f 1047 1081 1082
f 1047 1082 1048
f 1048 1082 1083
f 1048 1083 1049
f 1049 1083 1084
f 1049 1084 1050
f 1050 1084 1085
f 1050 1085 1051
f 1051 1085 1086
f 1051 1086 1052
f 1052 1086 1087
f 1052 1087 1053
f 1053 1087 1088
f 1053 1088 1054
f 1054 1088 1089
f 1054 1089 1055
f 1055 1089 1090
f 1055 1090 1056
f 1056 1090 1091
f 1056 1091 1057
f 1057 1091 1092
f 1057 1092 1058
f 1058 1092 1093
f 1058 1093 1059
f 1059 1093 1094
f 1059 1094 1060
f 1060 1094 1095
f 1060 1095 1025
f 1025 1095 1096
f 1025 1096 1026
f 1026 1096 1061
f 1096 525 1061
f 1061 525 524
f 1061 524 1062
f 1062 524 523
f 1062 523 1063
f 1063 523 522
f 1063 522 1064
f 1064 522 520
f 1064 520 1065
f 1065 520 519
f 1065 519 1066
f 1066 519 534
f 1066 534 1067
f 1067 534 533
f 1067 533 1068
f 1068 533 532
f 1068 532 1069
f 1069 532 531
f 1069 531 1070
f 1070 531 537
f 1070 537 1071
f 1071 537 536
f 1071 536 1072
f 1072 536 535
f 1072 535 1073
f 1073 535 545
f 1073 545 1074
f 1074 545 544
f 1074 544 1075
f 1075 544 543
f 1075 543 1076
f 1076 543 542
f 1076 542 1077
f 1077 542 548
f 1077 548 1078
f 1078 548 547
f 1078 547 1079
f 1079 547 546
f 1079 546 1080
f 1080 546 541
f 1080 541 1081
f 1081 541 540
f 1081 540 1082
f 1082 540 539
f 1082 539 1083
f 1083 539 538
f 1083 538 1084
f 1084 538 551
f 1084 551 1085
f 1085 551 550
f 1085 550 1086
f 1086 550 549
f 1086 549 1087
f 1087 549 556
f 1087 556 1088
f 1088 556 555
f 1088 555 1089
f 1089 555 554
f 1089 554 1090
f 1090 554 553
f 1090 553 1091
f 1091 553 552
f 1091 552 1092
f 1092 552 530
f 1092 530 1093
f 1093 530 529
f 1093 529 1094
f 1094 529 528
f 1094 528 1095
f 1095 528 527
f 1095 527 1096
f 1096 527 525
f 329 1097 330
f 330 1097 1098
f 330 1098 323
f 323 1098 1099
f 323 1099 324
f 324 1099 1100
f 324 1100 331
f 331 1100 1101
f 331 1101 332
f 332 1101 1102
f 332 1102 334
f 334 1102 1103
f 334 1103 335
f 335 1103 1104
f 335 1104 336
f 336 1104 1105
f 336 1105 343
f 343 1105 1106
f 343 1106 344
f 344 1106 1107
f 344 1107 345
f 345 1107 1108
f 345 1108 337
f 337 1108 1109
f 337 1109 338
f 338 1109 1110
f 338 1110 339
f 339 1110 1111
f 339 1111 340
f 340 1111 1112
f 340 1112 346
f 346 1112 1113
f 346 1113 347
f 347 1113 1114
f 347 1114 348
f 348 1114 1115
f 348 1115 349
f 349 1115 1116
f 349 1116 350
f 350 1116 1117
f 350 1117 351
f 351 1117 1118
f 351 1118 341
f 341 1118 1119
f 341 1119 342
f 342 1119 1120
f 342 1120 355
f 355 1120 1121
f 355 1121 356
f 356 1121 1122
f 356 1122 357
f 357 1122 1123
f 357 1123 352
f 352 1123 1124
f 352 1124 353
f 353 1124 1125
f 353 1125 354
f 354 1125 1126
f 354 1126 321
f 321 1126 1127
f 321 1127 320
f 320 1127 1128
f 320 1128 325
f 325 1128 1129
f 325 1129 326
f 326 1129 1130
f 326 1130 327
f 327 1130 1131
f 327 1131 328
f 328 1131 1132
f 328 1132 329
f 329 1132 1097
f 1098 1133 1099
f 1099 1133 1134
f 1099 1134 1100
f 1100 1134 1135
f 1100 1135 1101
f 1101 1135 1136
f 1101 1136 1102
f 1102 1136 1137
f 1102 1137 1103
f 1103 1137 1138
f 1103 1138 1104
f 1104 1138 1139
f 1104 1139 1105
f 1105 1139 1140
f 1105 1140 1106
f 1106 1140 1141
f 1106 1141 1107
f 1107 1141 1142
f 1107 1142 1108
f 1108 1142 1143
f 1108 1143 1109
f 1109 1143 1144
f 1109 1144 1110
f 1110 1144 1145
f 1110 1145 1111
f 1111 1145 1146
f 1111 1146 1112
f 1112 1146 1147
f 1112 1147 1113
f 1113 1147 1148
f 1113 1148 1114
f 1114 1148 1149
f 1114 1149 1115
f 1115 1149 1150
f 1115 1150 1116
f 1116 1150 1151
f 1116 1151 1117
f 1117 1151 1152
f 1117 1152 1118
f 1118 1152 1153
f 1118 1153 1119
f 1119 1153 1154
f 1119 1154 1120
f 1120 1154 1155
f 1120 1155 1121
f 1121 1155 1156
f 1121 1156 1122
f 1122 1156 1157
f 1122 1157 1123
f 1123 1157 1158
f 1123 1158 1124
f 1124 1158 1159
f 1124 1159 1125
f 1125 1159 1160
f 1125 1160 1126
f 1126 1160 1161
f 1126 1161 1127
f 1127 1161 1162
f 1127 1162 1128
f 1128 1162 1163
f 1128 1163 1129
f 1129 1163 1164
f 1129 1164 1130
f 1130 1164 1165
f 1130 1165 1131
f 1131 1165 1166
f 1131 1166 1132
f 1132 1166 1167
f 1132 1167 1097
f 1097 1167 1168
f 1097 1168 1098
f 1098 1168 1133
f 1168 566 1133
f 1133 566 565
f 1133 565 1134
f 1134 565 564
f 1134 564 1135
f 1135 564 563
f 1135 563 1136
f 1136 563 562
f 1136 562 1137
f 1137 562 558
f 1137 558 1138
f 1138 558 557
f 1138 557 1139
f 1139 557 568
f 1139 568 1140
f 1140 568 569
f 1140 569 1141
f 1141 569 570
f 1141 570 1142
f 1142 570 571
f 1142 571 1143
f 1143 571 575
f 1143 575 1144
f 1144 575 574
f 1144 574 1145
f 1145 574 573
f 1145 573 1146
f 1146 573 572
f 1146 572 1147
f 1147 572 584
f 1147 584 1148
f 1148 584 583
f 1148 583 1149
f 1149 583 582
f 1149 582 1150
f 1150 582 581
f 1150 581 1151
f 1151 581 580
f 1151 580 1152
f 1152 580 579
f 1152 579 1153
f 1153 579 576
f 1153 576 1154
f 1154 576 577
f 1154 577 1155
f 1155 577 578
f 1155 578 1156
f 1156 578 588
f 1156 588 1157
f 1157 588 587
f 1157 587 1158
f 1158 587 586
f 1158 586 1159
f 1159 586 585
f 1159 585 1160
f 1160 585 592
f 1160 592 1161
f 1161 592 591
f 1161 591 1162
f 1162 591 590
f 1162 590 1163
f 1163 590 589
f 1163 589 1164
f 1164 589 559
f 1164 559 1165
f 1165 559 560
f 1165 560 1166
f 1166 560 561
f 1166 561 1167
f 1167 561 567
f 1167 567 1168
f 1168 567 566

