# Blender 5.0.1
# www.blender.org
mtllib crossbar_visual.mtl
o TOPE_visual.001
v 0.006000 -1.261240 0.007273
v 0.011000 -1.261240 0.007273
v 0.006000 -1.241241 0.007273
v 0.011000 -1.236241 0.007273
v -0.006000 -1.241241 0.007273
v -0.011000 -1.236241 0.007273
v -0.006000 -1.261240 0.007273
v -0.011000 -1.261240 0.007273
v 0.011000 -1.236241 -0.007327
v 0.011000 -1.261240 -0.007327
v -0.011000 -1.236241 -0.007327
v -0.011000 -1.261240 -0.007327
v -0.006000 -1.261240 -0.007327
v -0.006000 -1.241241 -0.007327
v 0.006000 -1.241241 -0.007327
v 0.006000 -1.261240 -0.007327
vn -0.0000 -0.0000 1.0000
vn 1.0000 -0.0000 -0.0000
vn -0.0000 1.0000 -0.0000
vn -1.0000 -0.0000 -0.0000
vn -0.0000 -1.0000 -0.0000
vn -0.0000 -0.0000 -1.0000
s 0
f 1//1 2//1 3//1
f 3//1 2//1 4//1
f 3//1 4//1 5//1
f 5//1 4//1 6//1
f 5//1 6//1 7//1
f 7//1 6//1 8//1
f 9//2 4//2 10//2
f 10//2 4//2 2//2
f 6//3 4//3 11//3
f 11//3 4//3 9//3
f 6//4 11//4 8//4
f 8//4 11//4 12//4
f 12//5 13//5 8//5
f 8//5 13//5 7//5
f 7//2 13//2 5//2
f 5//2 13//2 14//2
f 5//5 14//5 3//5
f 3//5 14//5 15//5
f 3//4 15//4 1//4
f 1//4 15//4 16//4
f 16//5 10//5 1//5
f 1//5 10//5 2//5
f 13//6 12//6 14//6
f 14//6 12//6 11//6
f 14//6 11//6 15//6
f 15//6 11//6 9//6
f 15//6 9//6 16//6
f 16//6 9//6 10//6
