# Blender 5.0.1
# www.blender.org
mtllib l_finger_mount_visual.mtl
o CUBITO_CHATO_visual.001
v -0.002478 0.012903 2.500170
v -0.002158 0.012903 2.499774
v -0.005992 0.012903 2.496799
v 0.001126 0.012903 2.499066
v 0.001581 0.012903 2.499295
v 0.006008 0.012903 2.496799
v 0.004670 0.012903 2.516922
v 0.004943 0.012903 2.516747
v 0.002627 0.012903 2.515312
v 0.001990 0.012903 2.499598
v 0.002342 0.012903 2.499965
v 0.002627 0.012903 2.500386
v -0.001776 0.012903 2.499438
v -0.001343 0.012903 2.499171
v -0.000871 0.012903 2.498981
v 0.002836 0.012903 2.500850
v 0.002964 0.012903 2.501343
v 0.003008 0.012903 2.501849
v 0.001126 0.012903 2.516633
v 0.003732 0.012903 2.517156
v 0.001581 0.012903 2.516404
v 0.001990 0.012903 2.516101
v -0.000373 0.012903 2.498874
v 0.000135 0.012903 2.498852
v 0.000640 0.012903 2.498917
v 0.000640 0.012903 2.516782
v 0.000135 0.012903 2.516847
v -0.003717 0.012903 2.517156
v -0.000373 0.012903 2.516825
v -0.000871 0.012903 2.516718
v -0.001343 0.012903 2.516528
v 0.002836 0.012903 2.514849
v 0.005185 0.012903 2.516530
v 0.005388 0.012903 2.516277
v -0.001776 0.012903 2.516261
v -0.002158 0.012903 2.515925
v -0.004041 0.012903 2.517129
v -0.002478 0.012903 2.515529
v -0.004356 0.012903 2.517051
v -0.004654 0.012903 2.516922
v 0.005548 0.012903 2.515994
v 0.005802 0.012903 2.515320
v 0.002964 0.012903 2.514356
v 0.005956 0.012903 2.514617
v 0.003008 0.012903 2.513849
v 0.006008 0.012903 2.513900
v 0.002964 0.012903 2.513342
v 0.002342 0.012903 2.515734
v 0.004056 0.012903 2.517129
v 0.004371 0.012903 2.517051
v -0.004928 0.012903 2.516747
v -0.002726 0.012903 2.515085
v -0.005170 0.012903 2.516530
v -0.002896 0.012903 2.514605
v -0.005533 0.012903 2.515994
v -0.005373 0.012903 2.516277
v -0.002982 0.012903 2.513595
v -0.005992 0.012903 2.513900
v -0.002982 0.012903 2.514104
v -0.005941 0.012903 2.514617
v -0.005786 0.012903 2.515320
v -0.002896 0.012903 2.513093
v -0.002726 0.012903 2.512614
v -0.002478 0.012903 2.512170
v -0.002158 0.012903 2.511774
v -0.001776 0.012903 2.511437
v -0.001343 0.012903 2.511171
v -0.000871 0.012903 2.510981
v -0.002982 0.012903 2.502104
v -0.002982 0.012903 2.501595
v 0.002342 0.012903 2.503734
v 0.001990 0.012903 2.504102
v 0.002342 0.012903 2.511965
v -0.002896 0.012903 2.501094
v -0.002726 0.012903 2.500614
v 0.002627 0.012903 2.512386
v -0.000871 0.012903 2.504718
v -0.000373 0.012903 2.504825
v -0.000373 0.012903 2.510874
v 0.000135 0.012903 2.504847
v 0.000135 0.012903 2.510852
v 0.000640 0.012903 2.504782
v -0.001343 0.012903 2.504528
v -0.001776 0.012903 2.504261
v -0.002158 0.012903 2.503925
v 0.001126 0.012903 2.504633
v 0.001126 0.012903 2.511066
v 0.001581 0.012903 2.511295
v 0.002836 0.012903 2.512850
v -0.002478 0.012903 2.503529
v -0.002726 0.012903 2.503085
v -0.002896 0.012903 2.502605
v 0.002964 0.012903 2.502357
v 0.002836 0.012903 2.502849
v 0.002627 0.012903 2.503313
v 0.000640 0.012903 2.510917
v 0.001581 0.012903 2.504404
v 0.001990 0.012903 2.511597
v -0.002896 -0.013097 2.513093
v -0.002982 -0.013097 2.513595
v -0.005992 -0.013097 2.513900
v -0.000871 -0.013097 2.498981
v -0.001343 -0.013097 2.499171
v -0.005992 -0.013097 2.496799
v -0.001776 -0.013097 2.499438
v -0.002158 -0.013097 2.499774
v -0.002478 -0.013097 2.500170
v -0.002726 -0.013097 2.500614
v -0.002158 -0.013097 2.515925
v -0.001776 -0.013097 2.516261
v -0.003717 -0.013097 2.517156
v -0.001343 -0.013097 2.516528
v -0.000871 -0.013097 2.516718
v -0.000373 -0.013097 2.516825
v 0.000135 -0.013097 2.516847
v 0.003732 -0.013097 2.517156
v 0.000640 -0.013097 2.516782
v 0.001126 -0.013097 2.516633
v 0.002342 -0.013097 2.499965
v 0.001990 -0.013097 2.499598
v 0.006008 -0.013097 2.496799
v 0.001581 -0.013097 2.499295
v 0.001126 -0.013097 2.499066
v 0.000640 -0.013097 2.498917
v 0.000135 -0.013097 2.498852
v -0.000373 -0.013097 2.498874
v -0.005941 -0.013097 2.514617
v -0.002982 -0.013097 2.514104
v -0.005786 -0.013097 2.515320
v -0.002896 -0.013097 2.514605
v -0.005533 -0.013097 2.515994
v -0.002726 -0.013097 2.515085
v -0.005373 -0.013097 2.516277
v -0.004356 -0.013097 2.517051
v -0.004654 -0.013097 2.516922
v -0.002478 -0.013097 2.515529
v -0.004928 -0.013097 2.516747
v -0.005170 -0.013097 2.516530
v -0.002896 -0.013097 2.501094
v -0.002982 -0.013097 2.501595
v -0.002982 -0.013097 2.502104
v -0.004041 -0.013097 2.517129
v -0.001776 -0.013097 2.511437
v -0.001343 -0.013097 2.511171
v -0.000871 -0.013097 2.510981
v -0.002158 -0.013097 2.511774
v -0.002478 -0.013097 2.512170
v -0.002726 -0.013097 2.512614
v -0.002896 -0.013097 2.502605
v -0.002726 -0.013097 2.503085
v -0.002478 -0.013097 2.503529
v 0.005802 -0.013097 2.515320
v 0.005548 -0.013097 2.515994
v 0.001126 -0.013097 2.504633
v 0.002836 -0.013097 2.514849
v 0.002964 -0.013097 2.514356
v 0.003008 -0.013097 2.513849
v 0.002964 -0.013097 2.513342
v -0.002158 -0.013097 2.503925
v -0.001776 -0.013097 2.504261
v -0.001343 -0.013097 2.504528
v 0.001990 -0.013097 2.511597
v 0.001581 -0.013097 2.511295
v 0.001581 -0.013097 2.504404
v 0.001990 -0.013097 2.504102
v 0.006008 -0.013097 2.513900
v 0.002342 -0.013097 2.503734
v 0.002627 -0.013097 2.503313
v 0.002964 -0.013097 2.501343
v 0.002836 -0.013097 2.500850
v 0.002627 -0.013097 2.500386
v 0.002836 -0.013097 2.512850
v 0.002627 -0.013097 2.512386
v 0.002342 -0.013097 2.511965
v 0.005956 -0.013097 2.514617
v 0.001581 -0.013097 2.516404
v 0.001990 -0.013097 2.516101
v 0.004056 -0.013097 2.517129
v 0.002342 -0.013097 2.515734
v 0.004371 -0.013097 2.517051
v 0.002627 -0.013097 2.515312
v 0.004670 -0.013097 2.516922
v 0.005388 -0.013097 2.516277
v 0.005185 -0.013097 2.516530
v 0.004943 -0.013097 2.516747
v -0.000871 -0.013097 2.504718
v -0.000373 -0.013097 2.504825
v -0.000373 -0.013097 2.510874
v 0.000135 -0.013097 2.510852
v 0.002836 -0.013097 2.502849
v 0.002964 -0.013097 2.502357
v 0.003008 -0.013097 2.501849
v 0.000135 -0.013097 2.504847
v 0.000640 -0.013097 2.504782
v 0.000640 -0.013097 2.510917
v 0.001126 -0.013097 2.511066
vn -0.0000 1.0000 -0.0000
vn -0.0000 -1.0000 -0.0000
vn -0.9964 -0.0000 -0.0849
vn -0.9964 -0.0000 -0.0848
vn -0.9677 -0.0000 -0.2520
vn -0.9114 -0.0000 -0.4115
vn -0.9112 -0.0000 -0.4119
vn -0.8283 -0.0000 -0.5603
vn -0.8287 -0.0000 -0.5598
vn -0.7214 -0.0000 -0.6925
vn -0.7225 -0.0000 -0.6914
vn -0.5947 -0.0000 -0.8040
vn -0.5940 -0.0000 -0.8045
vn -0.4505 -0.0000 -0.8928
vn -0.2928 -0.0000 -0.9562
vn -0.1273 -0.0000 -0.9919
vn -0.1262 -0.0000 -0.9920
vn 0.0417 -0.0000 -0.9991
vn 0.0428 -0.0000 -0.9991
vn 0.2106 -0.0000 -0.9776
vn 0.3728 -0.0000 -0.9279
vn 0.5239 -0.0000 -0.8518
vn 0.5247 -0.0000 -0.8513
vn 0.6609 -0.0000 -0.7504
vn 0.6603 -0.0000 -0.7510
vn 0.7781 -0.0000 -0.6281
vn 0.8730 -0.0000 -0.4877
vn 0.9429 -0.0000 -0.3332
vn 0.9856 -0.0000 -0.1690
vn 0.9856 -0.0000 -0.1688
vn 1.0000 -0.0000 -0.0000
vn 0.9856 -0.0000 0.1690
vn 0.9430 -0.0000 0.3328
vn 0.9429 -0.0000 0.3332
vn 0.8730 -0.0000 0.4877
vn 0.7777 -0.0000 0.6286
vn 0.7781 -0.0000 0.6281
vn 0.6603 -0.0000 0.7510
vn 0.6609 -0.0000 0.7504
vn 0.5239 -0.0000 0.8518
vn 0.5247 -0.0000 0.8513
vn 0.3728 -0.0000 0.9279
vn 0.2106 -0.0000 0.9776
vn 0.2117 -0.0000 0.9773
vn 0.0417 -0.0000 0.9991
vn -0.1273 -0.0000 0.9919
vn -0.1262 -0.0000 0.9920
vn -0.2928 -0.0000 0.9562
vn -0.4496 -0.0000 0.8932
vn -0.4505 -0.0000 0.8928
vn -0.5947 -0.0000 0.8040
vn -0.7220 -0.0000 0.6919
vn -0.8283 -0.0000 0.5603
vn -0.8287 -0.0000 0.5598
vn -0.9112 -0.0000 0.4119
vn -0.9677 -0.0000 0.2520
vn -0.9678 -0.0000 0.2518
vn -0.9964 -0.0000 0.0849
vn -0.9964 -0.0000 0.0848
vn -0.9678 -0.0000 -0.2518
vn -0.9110 -0.0000 -0.4123
vn -0.7220 -0.0000 -0.6919
vn -0.5954 -0.0000 -0.8034
vn -0.4496 -0.0000 -0.8932
vn 0.3738 -0.0000 -0.9275
vn 0.7777 -0.0000 -0.6286
vn 0.9430 -0.0000 -0.3328
vn 0.9856 -0.0000 -0.1692
vn 0.8733 -0.0000 0.4873
vn 0.8727 -0.0000 0.4882
vn 0.7786 -0.0000 0.6275
vn 0.2096 -0.0000 0.9778
vn 0.0439 -0.0000 0.9990
vn -0.4514 -0.0000 0.8923
vn -0.5940 -0.0000 0.8045
vn -0.5954 -0.0000 0.8034
vn -0.9676 -0.0000 0.2523
vn -0.0000 -0.0000 -1.0000
vn -1.0000 -0.0000 -0.0000
vn 0.9974 -0.0000 0.0720
vn 0.9767 -0.0000 0.2145
vn 0.9768 -0.0000 0.2143
vn 0.9359 -0.0000 0.3524
vn -0.9359 -0.0000 0.3524
vn -0.9768 -0.0000 0.2143
vn -0.9767 -0.0000 0.2145
vn -0.9974 -0.0000 0.0720
vn -0.0000 -0.0000 1.0000
vn -0.0811 -0.0000 0.9967
vn -0.2416 -0.0000 0.9704
vn -0.3951 -0.0000 0.9186
vn -0.3966 -0.0000 0.9180
vn -0.5395 -0.0000 0.8420
vn -0.5382 -0.0000 0.8428
vn -0.6684 -0.0000 0.7438
vn -0.7805 -0.0000 0.6252
vn -0.7791 -0.0000 0.6269
vn -0.8711 -0.0000 0.4911
vn 0.8711 -0.0000 0.4911
vn 0.7791 -0.0000 0.6269
vn 0.7805 -0.0000 0.6252
vn 0.6684 -0.0000 0.7438
vn 0.5382 -0.0000 0.8428
vn 0.5395 -0.0000 0.8420
vn 0.3966 -0.0000 0.9180
vn 0.3951 -0.0000 0.9186
vn 0.2416 -0.0000 0.9704
vn 0.0811 -0.0000 0.9967
s 0
f 1//1 2//1 3//1
f 4//1 5//1 6//1
f 7//1 8//1 9//1
f 5//1 10//1 6//1
f 6//1 10//1 11//1
f 6//1 11//1 12//1
f 2//1 13//1 3//1
f 3//1 13//1 14//1
f 3//1 14//1 15//1
f 12//1 16//1 6//1
f 6//1 16//1 17//1
f 6//1 17//1 18//1
f 19//1 20//1 21//1
f 21//1 20//1 22//1
f 15//1 23//1 3//1
f 3//1 23//1 24//1
f 3//1 24//1 6//1
f 6//1 24//1 25//1
f 6//1 25//1 4//1
f 19//1 26//1 20//1
f 20//1 26//1 27//1
f 20//1 27//1 28//1
f 27//1 29//1 28//1
f 28//1 29//1 30//1
f 28//1 30//1 31//1
f 9//1 8//1 32//1
f 32//1 8//1 33//1
f 32//1 33//1 34//1
f 31//1 35//1 28//1
f 28//1 35//1 36//1
f 28//1 36//1 37//1
f 37//1 36//1 38//1
f 37//1 38//1 39//1
f 39//1 38//1 40//1
f 34//1 41//1 32//1
f 32//1 41//1 42//1
f 32//1 42//1 43//1
f 43//1 42//1 44//1
f 43//1 44//1 45//1
f 45//1 44//1 46//1
f 45//1 46//1 47//1
f 22//1 20//1 48//1
f 48//1 20//1 49//1
f 48//1 49//1 9//1
f 9//1 49//1 50//1
f 9//1 50//1 7//1
f 40//1 38//1 51//1
f 51//1 38//1 52//1
f 51//1 52//1 53//1
f 54//1 55//1 52//1
f 52//1 55//1 56//1
f 52//1 56//1 53//1
f 57//1 58//1 59//1
f 59//1 58//1 60//1
f 59//1 60//1 54//1
f 54//1 60//1 61//1
f 54//1 61//1 55//1
f 57//1 62//1 58//1
f 58//1 62//1 63//1
f 58//1 63//1 3//1
f 3//1 63//1 64//1
f 3//1 64//1 65//1
f 65//1 66//1 3//1
f 3//1 66//1 67//1
f 3//1 67//1 68//1
f 3//1 69//1 70//1
f 71//1 72//1 73//1
f 70//1 74//1 3//1
f 3//1 74//1 75//1
f 3//1 75//1 1//1
f 6//1 73//1 76//1
f 77//1 68//1 78//1
f 78//1 68//1 79//1
f 78//1 79//1 80//1
f 80//1 79//1 81//1
f 80//1 81//1 82//1
f 77//1 83//1 68//1
f 68//1 83//1 84//1
f 68//1 84//1 85//1
f 86//1 87//1 88//1
f 6//1 76//1 46//1
f 46//1 76//1 89//1
f 46//1 89//1 47//1
f 85//1 90//1 68//1
f 68//1 90//1 91//1
f 68//1 91//1 3//1
f 3//1 91//1 92//1
f 3//1 92//1 69//1
f 18//1 93//1 6//1
f 6//1 93//1 94//1
f 6//1 94//1 73//1
f 73//1 94//1 95//1
f 73//1 95//1 71//1
f 82//1 81//1 86//1
f 86//1 81//1 96//1
f 86//1 96//1 87//1
f 72//1 97//1 73//1
f 73//1 97//1 86//1
f 73//1 86//1 98//1
f 98//1 86//1 88//1
f 99//2 100//2 101//2
f 102//2 103//2 104//2
f 104//2 103//2 105//2
f 105//2 106//2 104//2
f 104//2 106//2 107//2
f 104//2 107//2 108//2
f 109//2 110//2 111//2
f 111//2 110//2 112//2
f 111//2 112//2 113//2
f 113//2 114//2 111//2
f 111//2 114//2 115//2
f 111//2 115//2 116//2
f 116//2 115//2 117//2
f 116//2 117//2 118//2
f 119//2 120//2 121//2
f 121//2 120//2 122//2
f 121//2 122//2 123//2
f 123//2 124//2 121//2
f 121//2 124//2 125//2
f 121//2 125//2 104//2
f 104//2 125//2 126//2
f 104//2 126//2 102//2
f 101//2 100//2 127//2
f 127//2 100//2 128//2
f 127//2 128//2 129//2
f 129//2 128//2 130//2
f 129//2 130//2 131//2
f 131//2 130//2 132//2
f 131//2 132//2 133//2
f 134//2 135//2 136//2
f 136//2 135//2 137//2
f 136//2 137//2 132//2
f 132//2 137//2 138//2
f 132//2 138//2 133//2
f 108//2 139//2 104//2
f 104//2 139//2 140//2
f 104//2 140//2 141//2
f 109//2 111//2 136//2
f 136//2 111//2 142//2
f 136//2 142//2 134//2
f 143//2 104//2 144//2
f 144//2 104//2 145//2
f 143//2 146//2 104//2
f 104//2 146//2 147//2
f 104//2 147//2 101//2
f 101//2 147//2 148//2
f 101//2 148//2 99//2
f 141//2 149//2 104//2
f 104//2 149//2 150//2
f 104//2 150//2 145//2
f 145//2 150//2 151//2
f 152//2 153//2 154//2
f 155//2 156//2 153//2
f 153//2 156//2 157//2
f 153//2 157//2 158//2
f 151//2 159//2 145//2
f 145//2 159//2 160//2
f 145//2 160//2 161//2
f 162//2 163//2 154//2
f 164//2 165//2 166//2
f 166//2 165//2 167//2
f 166//2 167//2 168//2
f 169//2 170//2 121//2
f 121//2 170//2 171//2
f 121//2 171//2 119//2
f 158//2 172//2 153//2
f 153//2 172//2 173//2
f 153//2 173//2 154//2
f 154//2 173//2 174//2
f 154//2 174//2 162//2
f 164//2 166//2 154//2
f 154//2 166//2 175//2
f 154//2 175//2 152//2
f 118//2 176//2 116//2
f 116//2 176//2 177//2
f 116//2 177//2 178//2
f 178//2 177//2 179//2
f 178//2 179//2 180//2
f 180//2 179//2 181//2
f 180//2 181//2 182//2
f 153//2 183//2 155//2
f 155//2 183//2 184//2
f 155//2 184//2 181//2
f 181//2 184//2 185//2
f 181//2 185//2 182//2
f 161//2 186//2 145//2
f 145//2 186//2 187//2
f 145//2 187//2 188//2
f 188//2 187//2 189//2
f 168//2 190//2 166//2
f 166//2 190//2 191//2
f 166//2 191//2 121//2
f 121//2 191//2 192//2
f 121//2 192//2 169//2
f 187//2 193//2 189//2
f 189//2 193//2 194//2
f 189//2 194//2 195//2
f 195//2 194//2 154//2
f 195//2 154//2 196//2
f 196//2 154//2 163//2
f 18//3 192//3 93//3
f 93//4 192//4 191//4
f 93//5 191//5 94//5
f 94//5 191//5 190//5
f 94//6 190//6 95//6
f 95//7 190//7 168//7
f 95//8 168//8 71//8
f 71//9 168//9 167//9
f 71//10 167//10 72//10
f 72//11 167//11 165//11
f 72//12 165//12 97//12
f 97//13 165//13 164//13
f 97//14 164//14 86//14
f 86//14 164//14 154//14
f 86//15 154//15 82//15
f 82//15 154//15 194//15
f 82//16 194//16 80//16
f 80//17 194//17 193//17
f 80//18 193//18 78//18
f 78//19 193//19 187//19
f 78//20 187//20 77//20
f 77//20 187//20 186//20
f 77//21 186//21 83//21
f 83//21 186//21 161//21
f 83//22 161//22 84//22
f 84//23 161//23 160//23
f 84//24 160//24 85//24
f 85//25 160//25 159//25
f 85//26 159//26 90//26
f 90//26 159//26 151//26
f 90//27 151//27 91//27
f 91//27 151//27 150//27
f 91//28 150//28 92//28
f 92//28 150//28 149//28
f 92//29 149//29 69//29
f 69//30 149//30 141//30
f 69//31 141//31 70//31
f 70//31 141//31 140//31
f 70//32 140//32 74//32
f 74//32 140//32 139//32
f 74//33 139//33 75//33
f 75//34 139//34 108//34
f 75//35 108//35 1//35
f 1//35 108//35 107//35
f 1//36 107//36 2//36
f 2//37 107//37 106//37
f 2//38 106//38 13//38
f 13//39 106//39 105//39
f 13//40 105//40 14//40
f 14//41 105//41 103//41
f 14//42 103//42 15//42
f 15//42 103//42 102//42
f 15//43 102//43 23//43
f 23//44 102//44 126//44
f 23//45 126//45 24//45
f 24//45 126//45 125//45
f 24//46 125//46 25//46
f 25//47 125//47 124//47
f 25//48 124//48 4//48
f 4//48 124//48 123//48
f 4//49 123//49 5//49
f 5//50 123//50 122//50
f 5//51 122//51 10//51
f 10//51 122//51 120//51
f 10//52 120//52 11//52
f 11//52 120//52 119//52
f 11//53 119//53 12//53
f 12//54 119//54 171//54
f 12//55 171//55 16//55
f 16//55 171//55 170//55
f 16//56 170//56 17//56
f 17//57 170//57 169//57
f 17//58 169//58 18//58
f 18//59 169//59 192//59
f 45//3 157//3 43//3
f 43//4 157//4 156//4
f 43//5 156//5 32//5
f 32//60 156//60 155//60
f 32//61 155//61 9//61
f 9//7 155//7 181//7
f 9//9 181//9 48//9
f 48//9 181//9 179//9
f 48//10 179//10 22//10
f 22//62 179//62 177//62
f 22//12 177//12 21//12
f 21//63 177//63 176//63
f 21//64 176//64 19//64
f 19//64 176//64 118//64
f 19//15 118//15 26//15
f 26//15 118//15 117//15
f 26//16 117//16 27//16
f 27//16 117//16 115//16
f 27//19 115//19 29//19
f 29//18 115//18 114//18
f 29//20 114//20 30//20
f 30//20 114//20 113//20
f 30//65 113//65 31//65
f 31//21 113//21 112//21
f 31//23 112//23 35//23
f 35//22 112//22 110//22
f 35//25 110//25 36//25
f 36//24 110//24 109//24
f 36//66 109//66 38//66
f 38//26 109//26 136//26
f 38//27 136//27 52//27
f 52//27 136//27 132//27
f 52//28 132//28 54//28
f 54//67 132//67 130//67
f 54//68 130//68 59//68
f 59//29 130//29 128//29
f 59//31 128//31 57//31
f 57//31 128//31 100//31
f 57//32 100//32 62//32
f 62//32 100//32 99//32
f 62//34 99//34 63//34
f 63//34 99//34 148//34
f 63//69 148//69 64//69
f 64//70 148//70 147//70
f 64//71 147//71 65//71
f 65//36 147//36 146//36
f 65//39 146//39 66//39
f 66//39 146//39 143//39
f 66//40 143//40 67//40
f 67//41 143//41 144//41
f 67//42 144//42 68//42
f 68//42 144//42 145//42
f 68//43 145//43 79//43
f 79//72 145//72 188//72
f 79//73 188//73 81//73
f 81//45 188//45 189//45
f 81//47 189//47 96//47
f 96//46 189//46 195//46
f 96//48 195//48 87//48
f 87//48 195//48 196//48
f 87//74 196//74 88//74
f 88//49 196//49 163//49
f 88//75 163//75 98//75
f 98//76 163//76 162//76
f 98//52 162//52 73//52
f 73//52 162//52 174//52
f 73//53 174//53 76//53
f 76//54 174//54 173//54
f 76//55 173//55 89//55
f 89//55 173//55 172//55
f 89//57 172//57 47//57
f 47//77 172//77 158//77
f 47//59 158//59 45//59
f 45//59 158//59 157//59
f 3//78 6//78 104//78
f 104//78 6//78 121//78
f 166//31 121//31 46//31
f 46//31 121//31 6//31
f 58//79 3//79 101//79
f 101//79 3//79 104//79
f 166//80 46//80 44//80
f 166//80 44//80 175//80
f 175//81 44//81 42//81
f 175//82 42//82 152//82
f 152//83 42//83 41//83
f 152//83 41//83 153//83
f 131//84 55//84 61//84
f 131//84 61//84 129//84
f 129//85 61//85 60//85
f 129//86 60//86 127//86
f 127//87 60//87 58//87
f 127//87 58//87 101//87
f 111//88 116//88 28//88
f 28//88 116//88 20//88
f 111//89 28//89 37//89
f 111//89 37//89 142//89
f 142//90 37//90 39//90
f 142//90 39//90 134//90
f 134//91 39//91 40//91
f 134//92 40//92 135//92
f 135//93 40//93 51//93
f 135//94 51//94 137//94
f 137//95 51//95 53//95
f 137//95 53//95 138//95
f 138//96 53//96 56//96
f 138//97 56//97 133//97
f 133//98 56//98 55//98
f 133//98 55//98 131//98
f 153//99 41//99 34//99
f 153//99 34//99 183//99
f 183//100 34//100 33//100
f 183//101 33//101 184//101
f 184//102 33//102 8//102
f 184//102 8//102 185//102
f 185//103 8//103 7//103
f 185//104 7//104 182//104
f 182//105 7//105 50//105
f 182//106 50//106 180//106
f 180//107 50//107 49//107
f 180//107 49//107 178//107
f 178//108 49//108 20//108
f 178//108 20//108 116//108
