# Blender 5.0.1
# www.blender.org
mtllib r_finger_mount_visual.mtl
o CUBITO_CUCHO_visual.001
v 0.015046 0.012933 -2.535488
v 0.015046 -0.013067 -2.535488
v 0.014606 -0.013067 -2.535076
v 0.014606 0.012933 -2.535076
v 0.013674 -0.013067 -2.534114
v 0.013674 0.012933 -2.534114
v 0.012880 -0.013067 -2.533171
v 0.012880 0.012933 -2.533171
v 0.012274 -0.013067 -2.532326
v 0.012274 0.012933 -2.532326
v 0.011870 -0.013067 -2.531635
v 0.011870 0.012933 -2.531635
v 0.011642 -0.013067 -2.531098
v 0.011642 0.012933 -2.531098
v 0.011568 -0.013067 -2.530801
v 0.011568 0.012933 -2.530801
v 0.011553 -0.013067 -2.530628
v 0.011553 0.012933 -2.530628
v 0.015067 -0.013067 -2.518898
v 0.015387 -0.013067 -2.518502
v 0.011553 -0.013067 -2.515528
v 0.018671 -0.013067 -2.517795
v 0.019126 -0.013067 -2.518024
v 0.023553 -0.013067 -2.515528
v 0.019535 -0.013067 -2.518326
v 0.015769 -0.013067 -2.518166
v 0.016202 -0.013067 -2.517900
v 0.016674 -0.013067 -2.517710
v 0.019887 -0.013067 -2.518693
v 0.020172 -0.013067 -2.519115
v 0.020382 -0.013067 -2.519579
v 0.016389 -0.013067 -2.536006
v 0.018717 -0.013067 -2.536006
v 0.017680 -0.013067 -2.535576
v 0.017172 -0.013067 -2.517602
v 0.017680 -0.013067 -2.517581
v 0.018185 -0.013067 -2.517646
v 0.020553 -0.013067 -2.532578
v 0.020510 -0.013067 -2.533085
v 0.021893 -0.013067 -2.533584
v 0.020382 -0.013067 -2.533578
v 0.021021 -0.013067 -2.534555
v 0.019010 -0.013067 -2.535985
v 0.019297 -0.013067 -2.535920
v 0.018671 -0.013067 -2.535362
v 0.019126 -0.013067 -2.535133
v 0.018185 -0.013067 -2.535511
v 0.019572 -0.013067 -2.535814
v 0.019828 -0.013067 -2.535669
v 0.019535 -0.013067 -2.534830
v 0.020060 -0.013067 -2.535488
v 0.019887 -0.013067 -2.534463
v 0.020172 -0.013067 -2.534041
v 0.015769 -0.013067 -2.534990
v 0.015387 -0.013067 -2.534654
v 0.015067 -0.013067 -2.534258
v 0.014819 -0.013067 -2.533814
v 0.017172 -0.013067 -2.535554
v 0.016674 -0.013067 -2.535447
v 0.016095 -0.013067 -2.535985
v 0.016202 -0.013067 -2.535257
v 0.015278 -0.013067 -2.535669
v 0.015534 -0.013067 -2.535814
v 0.015808 -0.013067 -2.535920
v 0.016674 -0.013067 -2.529710
v 0.016202 -0.013067 -2.529899
v 0.015769 -0.013067 -2.530166
v 0.014564 -0.013067 -2.520833
v 0.014564 -0.013067 -2.520324
v 0.014650 -0.013067 -2.533334
v 0.014564 -0.013067 -2.532833
v 0.014564 -0.013067 -2.532324
v 0.014650 -0.013067 -2.531822
v 0.014819 -0.013067 -2.531343
v 0.015067 -0.013067 -2.530898
v 0.015387 -0.013067 -2.530502
v 0.023549 -0.013067 -2.530714
v 0.023553 -0.013067 -2.530628
v 0.020382 -0.013067 -2.531579
v 0.014650 -0.013067 -2.519822
v 0.014819 -0.013067 -2.519342
v 0.020510 -0.013067 -2.520071
v 0.020553 -0.013067 -2.520578
v 0.020510 -0.013067 -2.521085
v 0.016674 -0.013067 -2.523447
v 0.017172 -0.013067 -2.523554
v 0.017172 -0.013067 -2.529603
v 0.017680 -0.013067 -2.523576
v 0.017680 -0.013067 -2.529581
v 0.018185 -0.013067 -2.523511
v 0.016202 -0.013067 -2.523257
v 0.015769 -0.013067 -2.522990
v 0.015387 -0.013067 -2.522654
v 0.020382 -0.013067 -2.521578
v 0.020172 -0.013067 -2.522041
v 0.019887 -0.013067 -2.530694
v 0.019887 -0.013067 -2.522463
v 0.019535 -0.013067 -2.522830
v 0.018671 -0.013067 -2.523362
v 0.018671 -0.013067 -2.529794
v 0.019126 -0.013067 -2.530024
v 0.015067 -0.013067 -2.522258
v 0.014819 -0.013067 -2.521814
v 0.014650 -0.013067 -2.521334
v 0.020172 -0.013067 -2.531115
v 0.018185 -0.013067 -2.529645
v 0.019126 -0.013067 -2.523133
v 0.019535 -0.013067 -2.530326
v 0.022595 -0.013067 -2.532676
v 0.023092 -0.013067 -2.531902
v 0.020510 -0.013067 -2.532071
v 0.023393 -0.013067 -2.531292
v 0.023514 -0.013067 -2.530923
v 0.016674 0.012933 -2.517710
v 0.016202 0.012933 -2.517900
v 0.011553 0.012933 -2.515528
v 0.015769 0.012933 -2.518166
v 0.015387 0.012933 -2.518502
v 0.015067 0.012933 -2.518898
v 0.014819 0.012933 -2.519342
v 0.014819 0.012933 -2.533814
v 0.019887 0.012933 -2.518693
v 0.019535 0.012933 -2.518326
v 0.023553 0.012933 -2.515528
v 0.019126 0.012933 -2.518024
v 0.018671 0.012933 -2.517795
v 0.018185 0.012933 -2.517646
v 0.017680 0.012933 -2.517581
v 0.017172 0.012933 -2.517602
v 0.014650 0.012933 -2.533334
v 0.014564 0.012933 -2.532833
v 0.015808 0.012933 -2.535920
v 0.015534 0.012933 -2.535814
v 0.016202 0.012933 -2.535257
v 0.015769 0.012933 -2.534990
v 0.016095 0.012933 -2.535985
v 0.016674 0.012933 -2.535447
v 0.016389 0.012933 -2.536006
v 0.017172 0.012933 -2.535554
v 0.018717 0.012933 -2.536006
v 0.014650 0.012933 -2.519822
v 0.014564 0.012933 -2.520324
v 0.014564 0.012933 -2.520833
v 0.015067 0.012933 -2.534258
v 0.015387 0.012933 -2.534654
v 0.015278 0.012933 -2.535669
v 0.017680 0.012933 -2.535576
v 0.018185 0.012933 -2.535511
v 0.019010 0.012933 -2.535985
v 0.018671 0.012933 -2.535362
v 0.019297 0.012933 -2.535920
v 0.019126 0.012933 -2.535133
v 0.021021 0.012933 -2.534555
v 0.020060 0.012933 -2.535488
v 0.019535 0.012933 -2.534830
v 0.019828 0.012933 -2.535669
v 0.019572 0.012933 -2.535814
v 0.016674 0.012933 -2.529710
v 0.016202 0.012933 -2.529899
v 0.015769 0.012933 -2.530166
v 0.015387 0.012933 -2.530502
v 0.015067 0.012933 -2.530898
v 0.014819 0.012933 -2.531343
v 0.014650 0.012933 -2.531822
v 0.014650 0.012933 -2.521334
v 0.014819 0.012933 -2.521814
v 0.015067 0.012933 -2.522258
v 0.014564 0.012933 -2.532324
v 0.015387 0.012933 -2.522654
v 0.015769 0.012933 -2.522990
v 0.016202 0.012933 -2.523257
v 0.021893 0.012933 -2.533584
v 0.020510 0.012933 -2.533085
v 0.022595 0.012933 -2.532676
v 0.020553 0.012933 -2.532578
v 0.020510 0.012933 -2.532071
v 0.019535 0.012933 -2.530326
v 0.019126 0.012933 -2.530024
v 0.018671 0.012933 -2.523362
v 0.019126 0.012933 -2.523133
v 0.019535 0.012933 -2.522830
v 0.023553 0.012933 -2.530628
v 0.019887 0.012933 -2.522463
v 0.020172 0.012933 -2.522041
v 0.020510 0.012933 -2.520071
v 0.020382 0.012933 -2.519579
v 0.020172 0.012933 -2.519115
v 0.019887 0.012933 -2.534463
v 0.020172 0.012933 -2.534041
v 0.020382 0.012933 -2.533578
v 0.020382 0.012933 -2.531579
v 0.020172 0.012933 -2.531115
v 0.019887 0.012933 -2.530694
v 0.023514 0.012933 -2.530923
v 0.023393 0.012933 -2.531292
v 0.023092 0.012933 -2.531902
v 0.016674 0.012933 -2.523447
v 0.017172 0.012933 -2.523554
v 0.017172 0.012933 -2.529603
v 0.017680 0.012933 -2.529581
v 0.023549 0.012933 -2.530714
v 0.020382 0.012933 -2.521578
v 0.020510 0.012933 -2.521085
v 0.020553 0.012933 -2.520578
v 0.017680 0.012933 -2.523576
v 0.018185 0.012933 -2.523511
v 0.018185 0.012933 -2.529645
v 0.018671 0.012933 -2.529794
vn -0.6835 -0.0000 -0.7300
vn -0.7183 -0.0000 -0.6958
vn -0.7185 -0.0000 -0.6956
vn -0.7649 -0.0000 -0.6441
vn -0.7651 -0.0000 -0.6439
vn -0.8122 -0.0000 -0.5833
vn -0.8126 -0.0000 -0.5828
vn -0.8637 -0.0000 -0.5040
vn -0.8635 -0.0000 -0.5043
vn -0.9202 -0.0000 -0.3914
vn -0.9204 -0.0000 -0.3910
vn -0.9702 -0.0000 -0.2424
vn -0.9703 -0.0000 -0.2420
vn -0.9964 -0.0000 -0.0845
vn -0.9964 -0.0000 -0.0843
vn -0.0000 -1.0000 -0.0000
vn -0.0000 1.0000 -0.0000
vn -0.9964 -0.0000 0.0849
vn -0.9964 -0.0000 0.0848
vn -0.9677 -0.0000 0.2520
vn -0.9114 -0.0000 0.4115
vn -0.9110 -0.0000 0.4123
vn -0.8287 -0.0000 0.5598
vn -0.8283 -0.0000 0.5603
vn -0.7220 -0.0000 0.6919
vn -0.7225 -0.0000 0.6914
vn -0.5947 -0.0000 0.8040
vn -0.5940 -0.0000 0.8045
vn -0.4505 -0.0000 0.8928
vn -0.2928 -0.0000 0.9562
vn -0.1273 -0.0000 0.9919
vn -0.1262 -0.0000 0.9920
vn 0.0417 -0.0000 0.9991
vn 0.0428 -0.0000 0.9991
vn 0.2106 -0.0000 0.9776
vn 0.3728 -0.0000 0.9279
vn 0.5239 -0.0000 0.8518
vn 0.5247 -0.0000 0.8513
vn 0.6609 -0.0000 0.7504
vn 0.6603 -0.0000 0.7510
vn 0.7781 -0.0000 0.6281
vn 0.8730 -0.0000 0.4877
vn 0.9429 -0.0000 0.3332
vn 0.9856 -0.0000 0.1690
vn 0.9856 -0.0000 0.1688
vn 1.0000 -0.0000 -0.0000
vn 0.9856 -0.0000 -0.1690
vn 0.9430 -0.0000 -0.3328
vn 0.9429 -0.0000 -0.3332
vn 0.8730 -0.0000 -0.4877
vn 0.7777 -0.0000 -0.6286
vn 0.7781 -0.0000 -0.6281
vn 0.6603 -0.0000 -0.7510
vn 0.6609 -0.0000 -0.7504
vn 0.5239 -0.0000 -0.8518
vn 0.5247 -0.0000 -0.8513
vn 0.3728 -0.0000 -0.9279
vn 0.2106 -0.0000 -0.9776
vn 0.2117 -0.0000 -0.9773
vn 0.0417 -0.0000 -0.9991
vn 0.0428 -0.0000 -0.9991
vn -0.1284 -0.0000 -0.9917
vn -0.1262 -0.0000 -0.9920
vn -0.2928 -0.0000 -0.9562
vn -0.4496 -0.0000 -0.8932
vn -0.4505 -0.0000 -0.8928
vn -0.5954 -0.0000 -0.8034
vn -0.5940 -0.0000 -0.8045
vn -0.7220 -0.0000 -0.6919
vn -0.8283 -0.0000 -0.5603
vn -0.8287 -0.0000 -0.5598
vn -0.9112 -0.0000 -0.4119
vn -0.9677 -0.0000 -0.2520
vn -0.9678 -0.0000 -0.2518
vn -0.9964 -0.0000 -0.0849
vn -0.9964 -0.0000 -0.0848
vn -0.9112 -0.0000 0.4119
vn -0.7214 -0.0000 0.6925
vn -0.4496 -0.0000 0.8932
vn -0.2918 -0.0000 0.9565
vn -0.1284 -0.0000 0.9917
vn 0.3738 -0.0000 0.9275
vn 0.3719 -0.0000 0.9283
vn 0.9856 -0.0000 -0.1688
vn 0.3719 -0.0000 -0.9283
vn 0.0439 -0.0000 -0.9990
vn -0.1273 -0.0000 -0.9919
vn -0.4514 -0.0000 -0.8923
vn -0.9110 -0.0000 -0.4123
vn -0.9114 -0.0000 -0.4115
vn -0.0000 -0.0000 1.0000
vn -1.0000 -0.0000 -0.0000
vn 0.9990 -0.0000 -0.0451
vn 0.9990 -0.0000 -0.0454
vn 0.9862 -0.0000 -0.1655
vn 0.9861 -0.0000 -0.1660
vn 0.9500 -0.0000 -0.3123
vn 0.9501 -0.0000 -0.3118
vn 0.8967 -0.0000 -0.4426
vn 0.8969 -0.0000 -0.4423
vn 0.8413 -0.0000 -0.5406
vn 0.7914 -0.0000 -0.6113
vn 0.7912 -0.0000 -0.6116
vn 0.7442 -0.0000 -0.6679
vn 0.7440 -0.0000 -0.6682
vn 0.6968 -0.0000 -0.7173
vn -0.0000 -0.0000 -1.0000
vn -0.0721 -0.0000 -0.9974
vn -0.0740 -0.0000 -0.9973
vn -0.2201 -0.0000 -0.9755
vn -0.2182 -0.0000 -0.9759
vn -0.3603 -0.0000 -0.9328
vn -0.4913 -0.0000 -0.8710
vn -0.4928 -0.0000 -0.8701
vn -0.6162 -0.0000 -0.7876
vn -0.6138 -0.0000 -0.7894
vn 0.6138 -0.0000 -0.7894
vn 0.6162 -0.0000 -0.7876
vn 0.4928 -0.0000 -0.8701
vn 0.4913 -0.0000 -0.8710
vn 0.3603 -0.0000 -0.9328
vn 0.2182 -0.0000 -0.9759
vn 0.2201 -0.0000 -0.9755
vn 0.0740 -0.0000 -0.9973
vn 0.0721 -0.0000 -0.9974
s 0
f 1//1 2//1 3//1
f 1//1 3//1 4//1
f 4//2 3//2 5//2
f 4//3 5//3 6//3
f 6//4 5//4 7//4
f 6//5 7//5 8//5
f 8//6 7//6 9//6
f 8//7 9//7 10//7
f 10//8 9//8 11//8
f 10//9 11//9 12//9
f 12//10 11//10 13//10
f 12//11 13//11 14//11
f 14//12 13//12 15//12
f 14//13 15//13 16//13
f 16//14 15//14 17//14
f 16//15 17//15 18//15
f 19//16 20//16 21//16
f 22//16 23//16 24//16
f 24//16 23//16 25//16
f 20//16 26//16 21//16
f 21//16 26//16 27//16
f 21//16 27//16 28//16
f 25//16 29//16 24//16
f 24//16 29//16 30//16
f 24//16 30//16 31//16
f 32//16 33//16 34//16
f 28//16 35//16 21//16
f 21//16 35//16 36//16
f 21//16 36//16 24//16
f 24//16 36//16 37//16
f 24//16 37//16 22//16
f 38//16 39//16 40//16
f 40//16 39//16 41//16
f 40//16 41//16 42//16
f 43//16 44//16 45//16
f 45//16 44//16 46//16
f 43//16 45//16 33//16
f 33//16 45//16 47//16
f 33//16 47//16 34//16
f 44//16 48//16 46//16
f 46//16 48//16 49//16
f 46//16 49//16 50//16
f 50//16 49//16 51//16
f 50//16 51//16 52//16
f 52//16 51//16 42//16
f 52//16 42//16 53//16
f 53//16 42//16 41//16
f 2//16 54//16 55//16
f 2//16 55//16 3//16
f 3//16 55//16 56//16
f 3//16 56//16 5//16
f 5//16 56//16 57//16
f 5//16 57//16 7//16
f 34//16 58//16 32//16
f 32//16 58//16 59//16
f 32//16 59//16 60//16
f 60//16 59//16 61//16
f 2//16 62//16 54//16
f 54//16 62//16 63//16
f 54//16 63//16 61//16
f 61//16 63//16 64//16
f 61//16 64//16 60//16
f 65//16 21//16 66//16
f 66//16 21//16 67//16
f 21//16 68//16 69//16
f 57//16 70//16 7//16
f 7//16 70//16 71//16
f 7//16 71//16 9//16
f 9//16 71//16 72//16
f 9//16 72//16 11//16
f 11//16 72//16 73//16
f 11//16 73//16 13//16
f 13//16 73//16 15//16
f 15//16 73//16 74//16
f 15//16 74//16 17//16
f 17//16 74//16 75//16
f 17//16 75//16 21//16
f 21//16 75//16 76//16
f 21//16 76//16 67//16
f 77//16 78//16 79//16
f 69//16 80//16 21//16
f 21//16 80//16 81//16
f 21//16 81//16 19//16
f 31//16 82//16 24//16
f 24//16 82//16 83//16
f 24//16 83//16 84//16
f 85//16 65//16 86//16
f 86//16 65//16 87//16
f 86//16 87//16 88//16
f 88//16 87//16 89//16
f 88//16 89//16 90//16
f 85//16 91//16 65//16
f 65//16 91//16 92//16
f 65//16 92//16 93//16
f 94//16 95//16 96//16
f 96//16 95//16 97//16
f 96//16 97//16 98//16
f 99//16 100//16 101//16
f 93//16 102//16 65//16
f 65//16 102//16 103//16
f 65//16 103//16 21//16
f 21//16 103//16 104//16
f 21//16 104//16 68//16
f 84//16 94//16 24//16
f 24//16 94//16 96//16
f 24//16 96//16 78//16
f 78//16 96//16 105//16
f 78//16 105//16 79//16
f 90//16 89//16 99//16
f 99//16 89//16 106//16
f 99//16 106//16 100//16
f 98//16 107//16 96//16
f 96//16 107//16 99//16
f 96//16 99//16 108//16
f 108//16 99//16 101//16
f 40//16 109//16 38//16
f 38//16 109//16 110//16
f 38//16 110//16 111//16
f 111//16 110//16 112//16
f 111//16 112//16 79//16
f 79//16 112//16 113//16
f 79//16 113//16 77//16
f 114//17 115//17 116//17
f 116//17 115//17 117//17
f 117//17 118//17 116//17
f 116//17 118//17 119//17
f 116//17 119//17 120//17
f 4//17 6//17 121//17
f 122//17 123//17 124//17
f 124//17 123//17 125//17
f 124//17 125//17 126//17
f 126//17 127//17 124//17
f 124//17 127//17 128//17
f 124//17 128//17 116//17
f 116//17 128//17 129//17
f 116//17 129//17 114//17
f 121//17 6//17 130//17
f 130//17 6//17 8//17
f 130//17 8//17 131//17
f 132//17 133//17 134//17
f 134//17 133//17 135//17
f 132//17 134//17 136//17
f 136//17 134//17 137//17
f 136//17 137//17 138//17
f 138//17 137//17 139//17
f 138//17 139//17 140//17
f 120//17 141//17 116//17
f 116//17 141//17 142//17
f 116//17 142//17 143//17
f 121//17 144//17 4//17
f 4//17 144//17 145//17
f 4//17 145//17 1//17
f 1//17 145//17 135//17
f 1//17 135//17 146//17
f 146//17 135//17 133//17
f 139//17 147//17 140//17
f 140//17 147//17 148//17
f 140//17 148//17 149//17
f 149//17 148//17 150//17
f 149//17 150//17 151//17
f 151//17 150//17 152//17
f 153//17 154//17 155//17
f 155//17 154//17 156//17
f 155//17 156//17 152//17
f 152//17 156//17 157//17
f 152//17 157//17 151//17
f 116//17 158//17 159//17
f 159//17 160//17 116//17
f 116//17 160//17 161//17
f 116//17 161//17 18//17
f 161//17 162//17 18//17
f 18//17 162//17 163//17
f 18//17 163//17 16//17
f 16//17 163//17 164//17
f 16//17 164//17 14//17
f 143//17 165//17 116//17
f 116//17 165//17 166//17
f 116//17 166//17 158//17
f 158//17 166//17 167//17
f 131//17 8//17 168//17
f 168//17 8//17 10//17
f 168//17 10//17 164//17
f 164//17 10//17 12//17
f 164//17 12//17 14//17
f 167//17 169//17 158//17
f 158//17 169//17 170//17
f 158//17 170//17 171//17
f 172//17 173//17 174//17
f 174//17 173//17 175//17
f 174//17 175//17 176//17
f 177//17 178//17 179//17
f 180//17 181//17 182//17
f 182//17 181//17 183//17
f 182//17 183//17 184//17
f 185//17 186//17 124//17
f 124//17 186//17 187//17
f 124//17 187//17 122//17
f 155//17 188//17 153//17
f 153//17 188//17 189//17
f 153//17 189//17 172//17
f 172//17 189//17 190//17
f 172//17 190//17 173//17
f 176//17 191//17 174//17
f 174//17 191//17 192//17
f 174//17 192//17 179//17
f 179//17 192//17 193//17
f 179//17 193//17 177//17
f 194//17 195//17 179//17
f 179//17 195//17 196//17
f 179//17 196//17 174//17
f 171//17 197//17 158//17
f 158//17 197//17 198//17
f 158//17 198//17 199//17
f 199//17 198//17 200//17
f 180//17 182//17 179//17
f 179//17 182//17 201//17
f 179//17 201//17 194//17
f 184//17 202//17 182//17
f 182//17 202//17 203//17
f 182//17 203//17 124//17
f 124//17 203//17 204//17
f 124//17 204//17 185//17
f 198//17 205//17 200//17
f 200//17 205//17 206//17
f 200//17 206//17 207//17
f 207//17 206//17 179//17
f 207//17 179//17 208//17
f 208//17 179//17 178//17
f 83//18 204//18 84//18
f 84//19 204//19 203//19
f 84//20 203//20 94//20
f 94//20 203//20 202//20
f 94//21 202//21 95//21
f 95//22 202//22 184//22
f 95//23 184//23 97//23
f 97//24 184//24 183//24
f 97//25 183//25 98//25
f 98//26 183//26 181//26
f 98//27 181//27 107//27
f 107//28 181//28 180//28
f 107//29 180//29 99//29
f 99//29 180//29 179//29
f 99//30 179//30 90//30
f 90//30 179//30 206//30
f 90//31 206//31 88//31
f 88//32 206//32 205//32
f 88//33 205//33 86//33
f 86//34 205//34 198//34
f 86//35 198//35 85//35
f 85//35 198//35 197//35
f 85//36 197//36 91//36
f 91//36 197//36 171//36
f 91//37 171//37 92//37
f 92//38 171//38 170//38
f 92//39 170//39 93//39
f 93//40 170//40 169//40
f 93//41 169//41 102//41
f 102//41 169//41 167//41
f 102//42 167//42 103//42
f 103//42 167//42 166//42
f 103//43 166//43 104//43
f 104//43 166//43 165//43
f 104//44 165//44 68//44
f 68//45 165//45 143//45
f 68//46 143//46 69//46
f 69//46 143//46 142//46
f 69//47 142//47 80//47
f 80//47 142//47 141//47
f 80//48 141//48 81//48
f 81//49 141//49 120//49
f 81//50 120//50 19//50
f 19//50 120//50 119//50
f 19//51 119//51 20//51
f 20//52 119//52 118//52
f 20//53 118//53 26//53
f 26//54 118//54 117//54
f 26//55 117//55 27//55
f 27//56 117//56 115//56
f 27//57 115//57 28//57
f 28//57 115//57 114//57
f 28//58 114//58 35//58
f 35//59 114//59 129//59
f 35//60 129//60 36//60
f 36//61 129//61 128//61
f 36//62 128//62 37//62
f 37//63 128//63 127//63
f 37//64 127//64 22//64
f 22//64 127//64 126//64
f 22//65 126//65 23//65
f 23//66 126//66 125//66
f 23//67 125//67 25//67
f 25//68 125//68 123//68
f 25//69 123//69 29//69
f 29//69 123//69 122//69
f 29//70 122//70 30//70
f 30//71 122//71 187//71
f 30//72 187//72 31//72
f 31//72 187//72 186//72
f 31//73 186//73 82//73
f 82//74 186//74 185//74
f 82//75 185//75 83//75
f 83//76 185//76 204//76
f 38//18 175//18 39//18
f 39//19 175//19 173//19
f 39//20 173//20 41//20
f 41//20 173//20 190//20
f 41//21 190//21 53//21
f 53//77 190//77 189//77
f 53//24 189//24 52//24
f 52//23 189//23 188//23
f 52//78 188//78 50//78
f 50//26 188//26 155//26
f 50//27 155//27 46//27
f 46//27 155//27 152//27
f 46//79 152//79 45//79
f 45//29 152//29 150//29
f 45//30 150//30 47//30
f 47//80 150//80 148//80
f 47//31 148//31 34//31
f 34//81 148//81 147//81
f 34//34 147//34 58//34
f 58//34 147//34 139//34
f 58//35 139//35 59//35
f 59//35 139//35 137//35
f 59//82 137//82 61//82
f 61//83 137//83 134//83
f 61//37 134//37 54//37
f 54//38 134//38 135//38
f 54//40 135//40 55//40
f 55//39 135//39 145//39
f 55//41 145//41 56//41
f 56//41 145//41 144//41
f 56//42 144//42 57//42
f 57//42 144//42 121//42
f 57//43 121//43 70//43
f 70//43 121//43 130//43
f 70//44 130//44 71//44
f 71//45 130//45 131//45
f 71//46 131//46 72//46
f 72//46 131//46 168//46
f 72//47 168//47 73//47
f 73//84 168//84 164//84
f 73//49 164//49 74//49
f 74//49 164//49 163//49
f 74//50 163//50 75//50
f 75//50 163//50 162//50
f 75//52 162//52 76//52
f 76//51 162//51 161//51
f 76//54 161//54 67//54
f 67//54 161//54 160//54
f 67//56 160//56 66//56
f 66//55 160//55 159//55
f 66//85 159//85 65//85
f 65//57 159//57 158//57
f 65//58 158//58 87//58
f 87//58 158//58 199//58
f 87//86 199//86 89//86
f 89//60 199//60 200//60
f 89//63 200//63 106//63
f 106//87 200//87 207//87
f 106//64 207//64 100//64
f 100//64 207//64 208//64
f 100//88 208//88 101//88
f 101//65 208//65 178//65
f 101//68 178//68 108//68
f 108//67 178//67 177//67
f 108//69 177//69 96//69
f 96//69 177//69 193//69
f 96//70 193//70 105//70
f 105//71 193//71 192//71
f 105//89 192//89 79//89
f 79//90 192//90 191//90
f 79//73 191//73 111//73
f 111//73 191//73 176//73
f 111//76 176//76 38//76
f 38//76 176//76 175//76
f 21//91 24//91 116//91
f 116//91 24//91 124//91
f 182//46 124//46 78//46
f 78//46 124//46 24//46
f 17//92 21//92 18//92
f 18//92 21//92 116//92
f 182//93 78//93 77//93
f 182//94 77//94 201//94
f 201//95 77//95 113//95
f 201//96 113//96 194//96
f 194//97 113//97 112//97
f 194//98 112//98 195//98
f 195//99 112//99 110//99
f 195//100 110//100 196//100
f 196//101 110//101 109//101
f 196//101 109//101 174//101
f 174//102 109//102 40//102
f 174//103 40//103 172//103
f 172//104 40//104 42//104
f 172//105 42//105 153//105
f 153//106 42//106 51//106
f 153//106 51//106 154//106
f 138//107 140//107 32//107
f 32//107 140//107 33//107
f 138//108 32//108 60//108
f 138//109 60//109 136//109
f 136//110 60//110 64//110
f 136//111 64//111 132//111
f 132//112 64//112 63//112
f 132//112 63//112 133//112
f 133//113 63//113 62//113
f 133//114 62//114 146//114
f 146//115 62//115 2//115
f 146//116 2//116 1//116
f 154//117 51//117 49//117
f 154//118 49//118 156//118
f 156//119 49//119 48//119
f 156//120 48//120 157//120
f 157//121 48//121 44//121
f 157//121 44//121 151//121
f 151//122 44//122 43//122
f 151//123 43//123 149//123
f 149//124 43//124 33//124
f 149//125 33//125 140//125
